<mxfile host="Electron" modified="2023-10-06T20:45:01.096Z" agent="Mozilla/5.0 (Windows NT 10.0; Win64; x64) AppleWebKit/537.36 (KHTML, like Gecko) draw.io/21.6.1 Chrome/112.0.5615.204 Electron/24.6.1 Safari/537.36" version="21.6.1" etag="l9oqW198gnORcLqneRnQ" type="device">
  <diagram name="MultiPOD_FW-ASA-HA" id="FW-EXT-TRUST-2/EXT_PARTNERS">
    <mxGraphModel dx="1101" dy="832" grid="1" gridSize="10" guides="1" tooltips="1" connect="1" arrows="1" fold="1" page="1" pageScale="1" pageWidth="827" pageHeight="1169" math="0" shadow="0">
      <root>
        <mxCell id="0" />
        <mxCell id="1" parent="0" />
        <UserObject label="&lt;div style=&quot;font-size: 1px&quot;&gt;&lt;p style=&quot;text-align:center;margin-left:0;margin-right:0;margin-top:0px;margin-bottom:0px;text-indent:0;vertical-align:top;direction:ltr;&quot;&gt;&lt;font style=&quot;font-size:19.76px;font-family:Calibri;color:#000000;direction:ltr;letter-spacing:0px;line-height:120%;opacity:1&quot;&gt;&lt;b&gt;VRF TEST&lt;br/&gt;&lt;/b&gt;&lt;/font&gt;&lt;/p&gt;&lt;/div&gt;" tags="Фон" id="2">
          <mxCell style="verticalAlign=top;align=center;overflow=width;vsdxID=1;fillColor=#fdebdd;gradientColor=none;shape=stencil(nZBLDoAgDERP0z3SIyjew0SURgSD+Lu9kMZoXLhwN9O+tukAlrNpJg1SzDH4QW/URgNYgZTkjA4UkwJUgGXng+6DX1zLfmoymdXo17xh5zmRJ6Q42BWCfc2oJfdAr+Yv+AP9Cb7OJ3H/2JG1HNGz/84klThPVCc=);strokeColor=#000000;points=[[0.5,1,0],[1,0.5,0],[0.5,0,0],[0,0.5,0],[0.5,0.5,0]];labelBackgroundColor=none;rounded=0;html=1;whiteSpace=wrap;" parent="1" vertex="1">
            <mxGeometry x="850" y="25" width="800" height="1098" as="geometry" />
          </mxCell>
        </UserObject>
        <UserObject label="&lt;div style=&quot;font-size: 1px&quot;&gt;&lt;p style=&quot;text-align:center;margin-left:0;margin-right:0;margin-top:0px;margin-bottom:0px;text-indent:0;vertical-align:top;direction:ltr;&quot;&gt;&lt;font style=&quot;font-size:19.76px;font-family:Calibri;color:#000000;direction:ltr;letter-spacing:0px;line-height:120%;opacity:1&quot;&gt;&lt;b&gt;VRF PROM&lt;br/&gt;&lt;/b&gt;&lt;/font&gt;&lt;/p&gt;&lt;/div&gt;" tags="Фон" id="3">
          <mxCell style="verticalAlign=top;align=center;overflow=width;vsdxID=2;fillColor=#ddd6e5;gradientColor=none;shape=stencil(nZBLDoAgDERP0z3SIyjew0SURgSD+Lu9kMZoXLhwN9O+tukAlrNpJg1SzDH4QW/URgNYgZTkjA4UkwJUgGXng+6DX1zLfmoymdXo17xh5zmRJ6Q42BWCfc2oJfdAr+Yv+AP9Cb7OJ3H/2JG1HNGz/84klThPVCc=);strokeColor=#000000;points=[[0.5,1,0],[1,0.5,0],[0.5,0,0],[0,0.5,0],[0,0.5,0]];labelBackgroundColor=none;rounded=0;html=1;whiteSpace=wrap;" parent="1" vertex="1">
            <mxGeometry x="6" y="19" width="826" height="1100" as="geometry" />
          </mxCell>
        </UserObject>
        <UserObject label="&lt;div style=&quot;font-size: 1px&quot;&gt;&lt;p style=&quot;text-align:center;margin-left:0;margin-right:0;margin-top:0px;margin-bottom:0px;text-indent:0;vertical-align:top;direction:ltr;&quot;&gt;&lt;font style=&quot;font-size:16.93px;font-family:Calibri;color:#000000;direction:ltr;letter-spacing:0px;line-height:120%;opacity:1&quot;&gt;&lt;b&gt;WAN Route-policy import&lt;br/&gt;&lt;/b&gt;&lt;/font&gt;&lt;font style=&quot;font-size:16.93px;font-family:Calibri;color:#000000;direction:ltr;letter-spacing:0px;line-height:120%;opacity:1&quot;&gt;Prefix-list + Community &lt;br/&gt;Prefix-list + Community &lt;br/&gt;Prefix-list without community = &lt;br/&gt;&lt;/font&gt;&lt;/p&gt;&lt;/div&gt;" tags="Фон" id="4">
          <mxCell style="verticalAlign=top;align=center;overflow=width;vsdxID=4;fillColor=#FFFFFF;gradientColor=none;shape=stencil(nZBLDoAgDERP0z3SIyjew0SURgSD+Lu9kMZoXLhwN9O+tukAlrNpJg1SzDH4QW/URgNYgZTkjA4UkwJUgGXng+6DX1zLfmoymdXo17xh5zmRJ6Q42BWCfc2oJfdAr+Yv+AP9Cb7OJ3H/2JG1HNGz/84klThPVCc=);strokeColor=#000000;points=[];labelBackgroundColor=none;rounded=0;html=1;whiteSpace=wrap;" parent="1" vertex="1">
            <mxGeometry x="63" y="925" width="1536" height="109" as="geometry" />
          </mxCell>
        </UserObject>
        <UserObject label="" tags="Фон" id="5">
          <mxCell style="vsdxID=6;fillColor=none;gradientColor=none;image;aspect=fixed;image=data:image/svg+xml,PD94bWwgdmVyc2lvbj0iMS4wIiBlbmNvZGluZz0iVVRGLTgiIHN0YW5kYWxvbmU9Im5vIj8+DQo8IS0tIENyZWF0ZWQgd2l0aCBJbmtzY2FwZSAoaHR0cDovL3d3dy5pbmtzY2FwZS5vcmcvKSAtLT4NCjxzdmcNCiAgIHhtbG5zOmRjPSJodHRwOi8vcHVybC5vcmcvZGMvZWxlbWVudHMvMS4xLyINCiAgIHhtbG5zOmNjPSJodHRwOi8vY3JlYXRpdmVjb21tb25zLm9yZy9ucyMiDQogICB4bWxuczpyZGY9Imh0dHA6Ly93d3cudzMub3JnLzE5OTkvMDIvMjItcmRmLXN5bnRheC1ucyMiDQogICB4bWxuczpzdmc9Imh0dHA6Ly93d3cudzMub3JnLzIwMDAvc3ZnIg0KICAgeG1sbnM9Imh0dHA6Ly93d3cudzMub3JnLzIwMDAvc3ZnIg0KICAgeG1sbnM6c29kaXBvZGk9Imh0dHA6Ly9zb2RpcG9kaS5zb3VyY2Vmb3JnZS5uZXQvRFREL3NvZGlwb2RpLTAuZHRkIg0KICAgeG1sbnM6aW5rc2NhcGU9Imh0dHA6Ly93d3cuaW5rc2NhcGUub3JnL25hbWVzcGFjZXMvaW5rc2NhcGUiDQogICB3aWR0aD0iMjUwIg0KICAgaGVpZ2h0PSIyNTAiDQogICBpZD0ic3ZnMzMxOSINCiAgIHNvZGlwb2RpOnZlcnNpb249IjAuMzIiDQogICBpbmtzY2FwZTp2ZXJzaW9uPSIwLjQ2Ig0KICAgdmVyc2lvbj0iMS4wIg0KICAgc29kaXBvZGk6ZG9jbmFtZT0ibm9waG90b19pLnN2ZyINCiAgIGlua3NjYXBlOm91dHB1dF9leHRlbnNpb249Im9yZy5pbmtzY2FwZS5vdXRwdXQuc3ZnLmlua3NjYXBlIj4NCiAgPGRlZnMNCiAgICAgaWQ9ImRlZnMzMzIxIj4NCiAgICA8aW5rc2NhcGU6cGVyc3BlY3RpdmUNCiAgICAgICBzb2RpcG9kaTp0eXBlPSJpbmtzY2FwZTpwZXJzcDNkIg0KICAgICAgIGlua3NjYXBlOnZwX3g9IjAgOiA1MjYuMTgxMDkgOiAxIg0KICAgICAgIGlua3NjYXBlOnZwX3k9IjAgOiAxMDAwIDogMCINCiAgICAgICBpbmtzY2FwZTp2cF96PSI3NDQuMDk0NDggOiA1MjYuMTgxMDkgOiAxIg0KICAgICAgIGlua3NjYXBlOnBlcnNwM2Qtb3JpZ2luPSIzNzIuMDQ3MjQgOiAzNTAuNzg3MzkgOiAxIg0KICAgICAgIGlkPSJwZXJzcGVjdGl2ZTMzMjciIC8+DQogICAgPGlua3NjYXBlOnBlcnNwZWN0aXZlDQogICAgICAgaWQ9InBlcnNwZWN0aXZlMzM0MiINCiAgICAgICBpbmtzY2FwZTpwZXJzcDNkLW9yaWdpbj0iMzcyLjA0NzI0IDogMzUwLjc4NzM5IDogMSINCiAgICAgICBpbmtzY2FwZTp2cF96PSI3NDQuMDk0NDggOiA1MjYuMTgxMDkgOiAxIg0KICAgICAgIGlua3NjYXBlOnZwX3k9IjAgOiAxMDAwIDogMCINCiAgICAgICBpbmtzY2FwZTp2cF94PSIwIDogNTI2LjE4MTA5IDogMSINCiAgICAgICBzb2RpcG9kaTp0eXBlPSJpbmtzY2FwZTpwZXJzcDNkIiAvPg0KICA8L2RlZnM+DQogIDxzb2RpcG9kaTpuYW1lZHZpZXcNCiAgICAgaWQ9ImJhc2UiDQogICAgIHBhZ2Vjb2xvcj0iI2ZmZmZmZiINCiAgICAgYm9yZGVyY29sb3I9IiM2NjY2NjYiDQogICAgIGJvcmRlcm9wYWNpdHk9IjEuMCINCiAgICAgaW5rc2NhcGU6cGFnZW9wYWNpdHk9IjAuMCINCiAgICAgaW5rc2NhcGU6cGFnZXNoYWRvdz0iMiINCiAgICAgaW5rc2NhcGU6em9vbT0iMi4yNDI5NDI3Ig0KICAgICBpbmtzY2FwZTpjeD0iMTIxLjk3NjQ4Ig0KICAgICBpbmtzY2FwZTpjeT0iMTIyLjQ0MTk4Ig0KICAgICBpbmtzY2FwZTpkb2N1bWVudC11bml0cz0icHgiDQogICAgIGlua3NjYXBlOmN1cnJlbnQtbGF5ZXI9ImxheWVyMSINCiAgICAgc2hvd2dyaWQ9ImZhbHNlIg0KICAgICBpbmtzY2FwZTp3aW5kb3ctd2lkdGg9IjE2NjQiDQogICAgIGlua3NjYXBlOndpbmRvdy1oZWlnaHQ9Ijg0NCINCiAgICAgaW5rc2NhcGU6d2luZG93LXg9Ii0zIg0KICAgICBpbmtzY2FwZTp3aW5kb3cteT0iLTE4IiAvPg0KICA8bWV0YWRhdGENCiAgICAgaWQ9Im1ldGFkYXRhMzMyNCI+DQogICAgPHJkZjpSREY+DQogICAgICA8Y2M6V29yaw0KICAgICAgICAgcmRmOmFib3V0PSIiPg0KICAgICAgICA8ZGM6Zm9ybWF0PmltYWdlL3N2Zyt4bWw8L2RjOmZvcm1hdD4NCiAgICAgICAgPGRjOnR5cGUNCiAgICAgICAgICAgcmRmOnJlc291cmNlPSJodHRwOi8vcHVybC5vcmcvZGMvZGNtaXR5cGUvU3RpbGxJbWFnZSIgLz4NCiAgICAgICAgPGRjOnRpdGxlPkZvdG9ncmFmaWVydmVyYm90PC9kYzp0aXRsZT4NCiAgICAgICAgPGRjOmRhdGU+MjAwOC0wNi0yOTwvZGM6ZGF0ZT4NCiAgICAgICAgPGRjOmNyZWF0b3I+DQogICAgICAgICAgPGNjOkFnZW50Pg0KICAgICAgICAgICAgPGRjOnRpdGxlPlRvcnJzdGVuIFNrb21wPC9kYzp0aXRsZT4NCiAgICAgICAgICA8L2NjOkFnZW50Pg0KICAgICAgICA8L2RjOmNyZWF0b3I+DQogICAgICAgIDxkYzpyaWdodHM+DQogICAgICAgICAgPGNjOkFnZW50Pg0KICAgICAgICAgICAgPGRjOnRpdGxlPlRvcnN0ZW4gU2tvbXA8L2RjOnRpdGxlPg0KICAgICAgICAgIDwvY2M6QWdlbnQ+DQogICAgICAgIDwvZGM6cmlnaHRzPg0KICAgICAgICA8ZGM6cHVibGlzaGVyPg0KICAgICAgICAgIDxjYzpBZ2VudD4NCiAgICAgICAgICAgIDxkYzp0aXRsZT5Ub3JzdGVuIFNrb21wPC9kYzp0aXRsZT4NCiAgICAgICAgICA8L2NjOkFnZW50Pg0KICAgICAgICA8L2RjOnB1Ymxpc2hlcj4NCiAgICAgICAgPGRjOmxhbmd1YWdlPmRlX0RFPC9kYzpsYW5ndWFnZT4NCiAgICAgICAgPGRjOnN1YmplY3Q+DQogICAgICAgICAgPHJkZjpCYWc+DQogICAgICAgICAgICA8cmRmOmxpPlBpa3RvZ3JhbW07IEZvdG9ncmFmaWVydmVyYm90PC9yZGY6bGk+DQogICAgICAgICAgPC9yZGY6QmFnPg0KICAgICAgICA8L2RjOnN1YmplY3Q+DQogICAgICAgIDxkYzpkZXNjcmlwdGlvbj5Gb3RvZ3JhZmllcnZlcmJvdCBhbHMgUGlrdG9ncmFtbSA8L2RjOmRlc2NyaXB0aW9uPg0KICAgICAgICA8Y2M6bGljZW5zZQ0KICAgICAgICAgICByZGY6cmVzb3VyY2U9Imh0dHA6Ly9jcmVhdGl2ZWNvbW1vbnMub3JnL2xpY2Vuc2VzL3B1YmxpY2RvbWFpbi8iIC8+DQogICAgICA8L2NjOldvcms+DQogICAgICA8Y2M6TGljZW5zZQ0KICAgICAgICAgcmRmOmFib3V0PSJodHRwOi8vY3JlYXRpdmVjb21tb25zLm9yZy9saWNlbnNlcy9wdWJsaWNkb21haW4vIj4NCiAgICAgICAgPGNjOnBlcm1pdHMNCiAgICAgICAgICAgcmRmOnJlc291cmNlPSJodHRwOi8vY3JlYXRpdmVjb21tb25zLm9yZy9ucyNSZXByb2R1Y3Rpb24iIC8+DQogICAgICAgIDxjYzpwZXJtaXRzDQogICAgICAgICAgIHJkZjpyZXNvdXJjZT0iaHR0cDovL2NyZWF0aXZlY29tbW9ucy5vcmcvbnMjRGlzdHJpYnV0aW9uIiAvPg0KICAgICAgICA8Y2M6cGVybWl0cw0KICAgICAgICAgICByZGY6cmVzb3VyY2U9Imh0dHA6Ly9jcmVhdGl2ZWNvbW1vbnMub3JnL25zI0Rlcml2YXRpdmVXb3JrcyIgLz4NCiAgICAgIDwvY2M6TGljZW5zZT4NCiAgICA8L3JkZjpSREY+DQogIDwvbWV0YWRhdGE+DQogIDxnDQogICAgIGlua3NjYXBlOmxhYmVsPSJFYmVuZSAxIg0KICAgICBpbmtzY2FwZTpncm91cG1vZGU9ImxheWVyIg0KICAgICBpZD0ibGF5ZXIxIj4NCiAgICA8cGF0aA0KICAgICAgIHN0eWxlPSJmaWxsOiMwMDAwMDA7ZmlsbC1vcGFjaXR5OjEiDQogICAgICAgZD0iTSAxNjQuNTMxMjUgNjIuNjg3NSBDIDE2Mi43OTExNSA2Mi42ODc1MDEgMTYxLjM3NSA2NC4wNzI0MTYgMTYxLjM3NSA2NS44MTI1IEwgMTYxLjM3NSA2OC43NSBMIDM4LjM3NSA2OC43NSBDIDM1LjA5MjI5OCA2OC43NDk5OTkgMzIuNDY4NzUgNzEuMzczNTQ4IDMyLjQ2ODc1IDc0LjY1NjI1IEwgMzIuNDY4NzUgMTgxLjM3NSBDIDMyLjQ2ODc1IDE4NC42NTc3IDM1LjA5MjMwNyAxODcuMzEyNTEgMzguMzc1IDE4Ny4zMTI1IEwgMjExLjYyNSAxODcuMzEyNSBDIDIxNC45MDc2OSAxODcuMzEyNSAyMTcuNTMxMjcgMTg0LjY1NzcgMjE3LjUzMTI1IDE4MS4zNzUgTCAyMTcuNTMxMjUgNzQuNjU2MjUgQyAyMTcuNTMxMjUgNzEuMzczNTUxIDIxNC45MDc2OCA2OC43NSAyMTEuNjI1IDY4Ljc1IEwgMjAyLjA2MjUgNjguNzUgTCAyMDIuMDYyNSA2NS44MTI1IEMgMjAyLjA2MjUgNjQuMDcyNDEgMjAwLjY0NjM1IDYyLjY4NzUgMTk4LjkwNjI1IDYyLjY4NzUgTCAxNjQuNTMxMjUgNjIuNjg3NSB6IE0gNDYuODEyNSA3OCBMIDg4LjY1NjI1IDc4IEMgOTAuMzk2MzQyIDc4IDkxLjgxMjUgNzkuMzg0OTA3IDkxLjgxMjUgODEuMTI1IEwgOTEuODEyNSA5Ni4zMTI1IEMgOTEuODEyNSA5OC4wNTI1OTIgOTAuMzk2MzQzIDk5LjQzNzUgODguNjU2MjUgOTkuNDM3NSBMIDQ2LjgxMjUgOTkuNDM3NSBDIDQ1LjA3MjQwOCA5OS40Mzc1IDQzLjY4NzUgOTguMDUyNTkzIDQzLjY4NzUgOTYuMzEyNSBMIDQzLjY4NzUgODEuMTI1IEMgNDMuNjg3NSA3OS4zODQ5MDggNDUuMDcyNDA3IDc4IDQ2LjgxMjUgNzggeiBNIDE0NiA4OC4yMTg3NSBDIDE2Ny43MzQ3NSA4OC4yMTg3NTMgMTg1LjM3NSAxMDYuMTUwNzEgMTg1LjM3NSAxMjguMjUgQyAxODUuMzc0OTkgMTUwLjM0OTI4IDE2Ny43MzQ3NCAxNjguMjgxMjUgMTQ2IDE2OC4yODEyNSBDIDEyNC4yNjUyNyAxNjguMjgxMjYgMTA2LjYyNSAxNTAuMzQ5MjkgMTA2LjYyNSAxMjguMjUgQyAxMDYuNjI1IDEwNi4xNTA3MSAxMjQuMjY1MjYgODguMjE4NzUgMTQ2IDg4LjIxODc1IHogTSAxNDYgOTEuNzE4NzUgQyAxMjYuMTY1NTcgOTEuNzE4NzUgMTEwLjA2MjUgMTA4LjA4Mjg5IDExMC4wNjI1IDEyOC4yNSBDIDExMC4wNjI1IDE0OC40MTcxMSAxMjYuMTY1NTcgMTY0Ljc4MTI2IDE0NiAxNjQuNzgxMjUgQyAxNjUuODM0NDMgMTY0Ljc4MTI1IDE4MS45Mzc1IDE0OC40MTcxIDE4MS45Mzc1IDEyOC4yNSBDIDE4MS45Mzc1IDEwOC4wODI4OSAxNjUuODM0NDMgOTEuNzE4NzUgMTQ2IDkxLjcxODc1IHogTSAxNDYgOTYuNTkzNzUgQyAxNjMuMTc3NjggOTYuNTkzNzUyIDE3Ny4xMjUgMTEwLjc4NDIgMTc3LjEyNSAxMjguMjUgQyAxNzcuMTI0OTkgMTQ1LjcxNTggMTYzLjE3NzY5IDE1OS44NzUgMTQ2IDE1OS44NzUgQyAxMjguODIyMzEgMTU5Ljg3NSAxMTQuODc1IDE0NS43MTU4IDExNC44NzUgMTI4LjI1IEMgMTE0Ljg3NSAxMTAuNzg0MTkgMTI4LjgyMjMxIDk2LjU5Mzc1IDE0NiA5Ni41OTM3NSB6IE0gMTc2LjUgMTcyLjcxODc1IEwgMjA2LjE4NzUgMTcyLjcxODc1IEMgMjA3LjQyMTM4IDE3Mi43MTg3NSAyMDguNDA2MjUgMTczLjEyNzgzIDIwOC40MDYyNSAxNzMuNjI1IEwgMjA4LjQwNjI1IDE3Ny45Njg3NSBDIDIwOC40MDYyNSAxNzguNDY1OTIgMjA3LjQyMTM4IDE3OC44NDM3NSAyMDYuMTg3NSAxNzguODQzNzUgTCAxNzYuNSAxNzguODQzNzUgQyAxNzUuMjY2MTEgMTc4Ljg0Mzc1IDE3NC4yODEyNSAxNzguNDY1OTIgMTc0LjI4MTI1IDE3Ny45Njg3NSBMIDE3NC4yODEyNSAxNzMuNjI1IEMgMTc0LjI4MTI1IDE3My4xMjc4MyAxNzUuMjY2MTIgMTcyLjcxODc1IDE3Ni41IDE3Mi43MTg3NSB6ICINCiAgICAgICBpZD0icmVjdDMyMDkiIC8+DQogICAgPHBhdGgNCiAgICAgICBzdHlsZT0iZmlsbDojYzQyNjFkO2ZpbGwtb3BhY2l0eToxIg0KICAgICAgIGQ9Ik0gMjAgMCBDIDE4LjU1OTkzOCAwIDE3LjE2NDc0NyAwLjE1MDk4NjY2IDE1LjgxMjUgMC40Mzc1IEMgMTUuMjEwMjkxIDAuNTY1MTk1NzggMTQuNjExOTEzIDAuNzI2MjExMjYgMTQuMDMxMjUgMC45MDYyNSBDIDEzLjU1NDc3MyAxLjA1Mzk4NTIgMTMuMDg1MzQ5IDEuMjI0ODUzNiAxMi42MjUgMS40MDYyNSBDIDEyLjMyODc2NiAxLjUyMzA3MzkgMTIuMDM5MDMzIDEuNjUwOTE4MiAxMS43NSAxLjc4MTI1IEMgMTEuMzQ3Mjc4IDEuOTYyMzU5OCAxMC45NTA0MDYgMi4xMzc0MTY1IDEwLjU2MjUgMi4zNDM3NSBDIDEwLjUyMTU1NSAyLjM2NTU2ODggMTAuNDc4MjczIDIuMzg0MTU1NSAxMC40Mzc1IDIuNDA2MjUgQyAxMC40MTY5MzQgMi40MTczNzU0IDEwLjM5NTUyMiAyLjQyNjMwNDkgMTAuMzc1IDIuNDM3NSBDIDkuODMyNjg2MSAyLjczMzM0NDYgOS4zMjI2NDQ4IDMuMDYzMjQ1MiA4LjgxMjUgMy40MDYyNSBDIDguMjgzMTIyMSAzLjc2MjE4NjUgNy43NzI3NzI4IDQuMTU4OTIwOSA3LjI4MTI1IDQuNTYyNSBDIDcuMjc1MDU1IDQuNTY3NTg2NiA3LjI1NjE4ODggNC41NTc0MDYxIDcuMjUgNC41NjI1IEMgNy4yMzg1NDc5IDQuNTcxOTQzNCA3LjIzMDE4MDYgNC41ODQyODE2IDcuMjE4NzUgNC41OTM3NSBDIDcuMTA0NzM1MiA0LjY4ODAxNTkgNi45ODY4NTA3IDQuNzc4MjY4NyA2Ljg3NSA0Ljg3NSBDIDYuNTE1NzAyMSA1LjE4NjQyNjQgNi4xNzk3OTA5IDUuNTA3NzA5MSA1Ljg0Mzc1IDUuODQzNzUgQyA1LjQwNDQwMjUgNi4yODE4MDc4IDQuOTkwNzQ0OSA2Ljc0MTM1NTQgNC41OTM3NSA3LjIxODc1IEMgNC41NzkwMDg2IDcuMjM2NTQ2MiA0LjU3NzE4MDYgNy4yNjM0MDE1IDQuNTYyNSA3LjI4MTI1IEMgMy43Njc0ODk4IDguMjQzOTE4MSAzLjA0MjI3MjEgOS4yNzE4NzA1IDIuNDM3NSAxMC4zNzUgQyAyLjQyNjIyMzIgMTAuMzk1NjM1IDIuNDE3NDU2MSAxMC40MTY4MiAyLjQwNjI1IDEwLjQzNzUgQyAyLjEwODM5MDggMTAuOTg1MzQ4IDEuODQwMjIzMyAxMS41NDcyMTQgMS41OTM3NSAxMi4xMjUgQyAxLjU3NTU4NjUgMTIuMTY3NjY1IDEuNTQ5MTI1NSAxMi4yMDcxODIgMS41MzEyNSAxMi4yNSBDIDEuMjg3NzEzMSAxMi44MzI0MzMgMS4wOTQ2NzU0IDEzLjQyMTgyMiAwLjkwNjI1IDE0LjAzMTI1IEMgMC43Mjk2MzAxNCAxNC42MDI0OTUgMC41NjMwOTYzNCAxNS4xODg4MjggMC40Mzc1IDE1Ljc4MTI1IEMgMC4xNDY5MTQwNCAxNy4xNDI1NzggLTQuMzkwNjEzM2UtMTggMTguNTQ5NDY2IDAgMjAgTCAwIDIzMCBDIDAgMjQxLjA4IDguOTIgMjUwIDIwIDI1MCBMIDIzMCAyNTAgQyAyMzEuNDQwMDYgMjUwIDIzMi44MzUyNSAyNDkuODQ5MDEgMjM0LjE4NzUgMjQ5LjU2MjUgQyAyMzQuNzg5MDMgMjQ5LjQzNDk3IDIzNS4zODg2NiAyNDkuMjczODEgMjM1Ljk2ODc1IDI0OS4wOTM3NSBDIDIzNi40NDQ3NiAyNDguOTQ2IDIzNi45MTUwNSAyNDguNzc1MjYgMjM3LjM3NSAyNDguNTkzNzUgQyAyMzcuNjcxMjMgMjQ4LjQ3NjkzIDIzNy45NjA5NyAyNDguMzQ5MDggMjM4LjI1IDI0OC4yMTg3NSBDIDIzOC4yNzk4MSAyNDguMjA1MzEgMjM4LjMxNDAyIDI0OC4yMDEwOSAyMzguMzQzNzUgMjQ4LjE4NzUgQyAyMzguNzU4MzYgMjQ3Ljk5ODMgMjM5LjE2Mzc0IDI0Ny44MDk4MSAyMzkuNTYyNSAyNDcuNTkzNzUgQyAyMzkuNTgzMTggMjQ3LjU4MjU0IDIzOS42MDQzNiAyNDcuNTczNzggMjM5LjYyNSAyNDcuNTYyNSBDIDI0MC4xNjkyNSAyNDcuMjY1MTIgMjQwLjY3NTU4IDI0Ni45Mzg3MyAyNDEuMTg3NSAyNDYuNTkzNzUgQyAyNDEuNjY4NzggMjQ2LjI2OTQxIDI0Mi4xNDM1OSAyNDUuOTI2MzkgMjQyLjU5Mzc1IDI0NS41NjI1IEMgMjQyLjY0NDc0IDI0NS41MjEyOCAyNDIuNjk5NDMgMjQ1LjQ3OTIxIDI0Mi43NSAyNDUuNDM3NSBDIDI0Mi44NzY1MSAyNDUuMzMzMTggMjQzLjAwMTE1IDI0NS4yMzIzNSAyNDMuMTI1IDI0NS4xMjUgQyAyNDMuNDgyNjUgMjQ0LjgxNTM4IDI0My44MjE1NSAyNDQuNDkwMTkgMjQ0LjE1NjI1IDI0NC4xNTYyNSBDIDI0NC40OTIyOSAyNDMuODIwMjEgMjQ0LjgxMzU3IDI0My40ODQzIDI0NS4xMjUgMjQzLjEyNSBDIDI0NS4yMzE2NyAyNDMuMDAyMzQgMjQ1LjMzMzgxIDI0Mi44NzUyNyAyNDUuNDM3NSAyNDIuNzUgQyAyNDUuNDQyNzYgMjQyLjc0MzYyIDI0NS40MzIyNSAyNDIuNzI1MTMgMjQ1LjQzNzUgMjQyLjcxODc1IEMgMjQ1Ljg0MjQ5IDI0Mi4yMjgzIDI0Ni4yMzY0IDI0MS43MTU3NiAyNDYuNTkzNzUgMjQxLjE4NzUgQyAyNDYuOTM4MTIgMjQwLjY3ODQzIDI0Ny4yNjUzNiAyNDAuMTY2MjIgMjQ3LjU2MjUgMjM5LjYyNSBDIDI0Ny41NzM2MyAyMzkuNjA0NzIgMjQ3LjU4MjY4IDIzOS41ODI4MiAyNDcuNTkzNzUgMjM5LjU2MjUgQyAyNDcuODkxOTcgMjM5LjAxNDggMjQ4LjE1OTMxIDIzOC40NTIzOSAyNDguNDA2MjUgMjM3Ljg3NSBDIDI0OC40MTU1NCAyMzcuODUzMjggMjQ4LjQyODI5IDIzNy44MzQyNiAyNDguNDM3NSAyMzcuODEyNSBDIDI0OC40NDY0NCAyMzcuNzkxMjkgMjQ4LjQ1OTg4IDIzNy43NzEyNSAyNDguNDY4NzUgMjM3Ljc1IEMgMjQ4LjcwOTkyIDIzNy4xNzQ3NiAyNDguOTA2MjggMjM2LjU3MDA4IDI0OS4wOTM3NSAyMzUuOTY4NzUgQyAyNDkuMjczNzUgMjM1LjM5MTM3IDI0OS40MzQ2OCAyMzQuODE3NTQgMjQ5LjU2MjUgMjM0LjIxODc1IEMgMjQ5Ljg1MzA5IDIzMi44NTc0MiAyNTAgMjMxLjQ1MDUzIDI1MCAyMzAgTCAyNTAgMjAgQyAyNTAgOC45MiAyNDEuMDggLTMuMzUzNzk4N2UtMTcgMjMwIDAgTCAyMCAwIHogTSAzNC43ODEyNSAxOS40MDYyNSBMIDIyNS40Njg3NSAxOS40MDYyNSBDIDIyOC4zMDk0NiAxOS40MDYyNSAyMzAuNTkzNzUgMjEuNjkwNTQ0IDIzMC41OTM3NSAyNC41MzEyNSBMIDIzMC41OTM3NSAyMTUuMjUgTCAzNC43ODEyNSAxOS40MDYyNSB6IE0gMTkuNDA2MjUgMzQuNzUgTCAyMTUuMjE4NzUgMjMwLjU5Mzc1IEwgMjQuNTMxMjUgMjMwLjU5Mzc1IEMgMjEuNjkwNTQ0IDIzMC41OTM3NiAxOS40MDYyNSAyMjguMzA5NDYgMTkuNDA2MjUgMjI1LjQ2ODc1IEwgMTkuNDA2MjUgMzQuNzUgeiAiDQogICAgICAgaWQ9InBhdGgzMTk2IiAvPg0KICA8L2c+DQo8L3N2Zz4NCg==;strokeColor=none;points=[[0.44,1,0]];labelBackgroundColor=none;rounded=0;html=1;whiteSpace=wrap;" parent="1" vertex="1">
            <mxGeometry x="346" y="765" width="102" height="49" as="geometry" />
          </mxCell>
        </UserObject>
        <mxCell id="6" value="&lt;div style=&quot;font-size: 1px&quot;&gt;&lt;p style=&quot;text-align:center;margin-left:0;margin-right:0;margin-top:0px;margin-bottom:0px;text-indent:0;vertical-align:top;direction:ltr;&quot;&gt;&lt;font style=&quot;font-size:14.11px;font-family:Arial;color:#000000;direction:ltr;letter-spacing:0px;line-height:120%;opacity:1&quot;&gt;BL-11&lt;br/&gt;&lt;/font&gt;&lt;/p&gt;&lt;/div&gt;" style="text;vsdxID=6;fillColor=none;gradientColor=none;aspect=fixed;strokeColor=none;points=[[0.44,1,0]];labelBackgroundColor=none;rounded=0;html=1;whiteSpace=wrap;verticalAlign=top;align=center;;html=1;" parent="5" vertex="1">
          <mxGeometry x="-41.02" y="49" width="179.46" as="geometry" />
        </mxCell>
        <UserObject label="" tags="Фон" id="7">
          <mxCell style="vsdxID=8;fillColor=none;gradientColor=none;image;aspect=fixed;image=data:image/svg+xml,PD94bWwgdmVyc2lvbj0iMS4wIiBlbmNvZGluZz0iVVRGLTgiIHN0YW5kYWxvbmU9Im5vIj8+DQo8IS0tIENyZWF0ZWQgd2l0aCBJbmtzY2FwZSAoaHR0cDovL3d3dy5pbmtzY2FwZS5vcmcvKSAtLT4NCjxzdmcNCiAgIHhtbG5zOmRjPSJodHRwOi8vcHVybC5vcmcvZGMvZWxlbWVudHMvMS4xLyINCiAgIHhtbG5zOmNjPSJodHRwOi8vY3JlYXRpdmVjb21tb25zLm9yZy9ucyMiDQogICB4bWxuczpyZGY9Imh0dHA6Ly93d3cudzMub3JnLzE5OTkvMDIvMjItcmRmLXN5bnRheC1ucyMiDQogICB4bWxuczpzdmc9Imh0dHA6Ly93d3cudzMub3JnLzIwMDAvc3ZnIg0KICAgeG1sbnM9Imh0dHA6Ly93d3cudzMub3JnLzIwMDAvc3ZnIg0KICAgeG1sbnM6c29kaXBvZGk9Imh0dHA6Ly9zb2RpcG9kaS5zb3VyY2Vmb3JnZS5uZXQvRFREL3NvZGlwb2RpLTAuZHRkIg0KICAgeG1sbnM6aW5rc2NhcGU9Imh0dHA6Ly93d3cuaW5rc2NhcGUub3JnL25hbWVzcGFjZXMvaW5rc2NhcGUiDQogICB3aWR0aD0iMjUwIg0KICAgaGVpZ2h0PSIyNTAiDQogICBpZD0ic3ZnMzMxOSINCiAgIHNvZGlwb2RpOnZlcnNpb249IjAuMzIiDQogICBpbmtzY2FwZTp2ZXJzaW9uPSIwLjQ2Ig0KICAgdmVyc2lvbj0iMS4wIg0KICAgc29kaXBvZGk6ZG9jbmFtZT0ibm9waG90b19pLnN2ZyINCiAgIGlua3NjYXBlOm91dHB1dF9leHRlbnNpb249Im9yZy5pbmtzY2FwZS5vdXRwdXQuc3ZnLmlua3NjYXBlIj4NCiAgPGRlZnMNCiAgICAgaWQ9ImRlZnMzMzIxIj4NCiAgICA8aW5rc2NhcGU6cGVyc3BlY3RpdmUNCiAgICAgICBzb2RpcG9kaTp0eXBlPSJpbmtzY2FwZTpwZXJzcDNkIg0KICAgICAgIGlua3NjYXBlOnZwX3g9IjAgOiA1MjYuMTgxMDkgOiAxIg0KICAgICAgIGlua3NjYXBlOnZwX3k9IjAgOiAxMDAwIDogMCINCiAgICAgICBpbmtzY2FwZTp2cF96PSI3NDQuMDk0NDggOiA1MjYuMTgxMDkgOiAxIg0KICAgICAgIGlua3NjYXBlOnBlcnNwM2Qtb3JpZ2luPSIzNzIuMDQ3MjQgOiAzNTAuNzg3MzkgOiAxIg0KICAgICAgIGlkPSJwZXJzcGVjdGl2ZTMzMjciIC8+DQogICAgPGlua3NjYXBlOnBlcnNwZWN0aXZlDQogICAgICAgaWQ9InBlcnNwZWN0aXZlMzM0MiINCiAgICAgICBpbmtzY2FwZTpwZXJzcDNkLW9yaWdpbj0iMzcyLjA0NzI0IDogMzUwLjc4NzM5IDogMSINCiAgICAgICBpbmtzY2FwZTp2cF96PSI3NDQuMDk0NDggOiA1MjYuMTgxMDkgOiAxIg0KICAgICAgIGlua3NjYXBlOnZwX3k9IjAgOiAxMDAwIDogMCINCiAgICAgICBpbmtzY2FwZTp2cF94PSIwIDogNTI2LjE4MTA5IDogMSINCiAgICAgICBzb2RpcG9kaTp0eXBlPSJpbmtzY2FwZTpwZXJzcDNkIiAvPg0KICA8L2RlZnM+DQogIDxzb2RpcG9kaTpuYW1lZHZpZXcNCiAgICAgaWQ9ImJhc2UiDQogICAgIHBhZ2Vjb2xvcj0iI2ZmZmZmZiINCiAgICAgYm9yZGVyY29sb3I9IiM2NjY2NjYiDQogICAgIGJvcmRlcm9wYWNpdHk9IjEuMCINCiAgICAgaW5rc2NhcGU6cGFnZW9wYWNpdHk9IjAuMCINCiAgICAgaW5rc2NhcGU6cGFnZXNoYWRvdz0iMiINCiAgICAgaW5rc2NhcGU6em9vbT0iMi4yNDI5NDI3Ig0KICAgICBpbmtzY2FwZTpjeD0iMTIxLjk3NjQ4Ig0KICAgICBpbmtzY2FwZTpjeT0iMTIyLjQ0MTk4Ig0KICAgICBpbmtzY2FwZTpkb2N1bWVudC11bml0cz0icHgiDQogICAgIGlua3NjYXBlOmN1cnJlbnQtbGF5ZXI9ImxheWVyMSINCiAgICAgc2hvd2dyaWQ9ImZhbHNlIg0KICAgICBpbmtzY2FwZTp3aW5kb3ctd2lkdGg9IjE2NjQiDQogICAgIGlua3NjYXBlOndpbmRvdy1oZWlnaHQ9Ijg0NCINCiAgICAgaW5rc2NhcGU6d2luZG93LXg9Ii0zIg0KICAgICBpbmtzY2FwZTp3aW5kb3cteT0iLTE4IiAvPg0KICA8bWV0YWRhdGENCiAgICAgaWQ9Im1ldGFkYXRhMzMyNCI+DQogICAgPHJkZjpSREY+DQogICAgICA8Y2M6V29yaw0KICAgICAgICAgcmRmOmFib3V0PSIiPg0KICAgICAgICA8ZGM6Zm9ybWF0PmltYWdlL3N2Zyt4bWw8L2RjOmZvcm1hdD4NCiAgICAgICAgPGRjOnR5cGUNCiAgICAgICAgICAgcmRmOnJlc291cmNlPSJodHRwOi8vcHVybC5vcmcvZGMvZGNtaXR5cGUvU3RpbGxJbWFnZSIgLz4NCiAgICAgICAgPGRjOnRpdGxlPkZvdG9ncmFmaWVydmVyYm90PC9kYzp0aXRsZT4NCiAgICAgICAgPGRjOmRhdGU+MjAwOC0wNi0yOTwvZGM6ZGF0ZT4NCiAgICAgICAgPGRjOmNyZWF0b3I+DQogICAgICAgICAgPGNjOkFnZW50Pg0KICAgICAgICAgICAgPGRjOnRpdGxlPlRvcnJzdGVuIFNrb21wPC9kYzp0aXRsZT4NCiAgICAgICAgICA8L2NjOkFnZW50Pg0KICAgICAgICA8L2RjOmNyZWF0b3I+DQogICAgICAgIDxkYzpyaWdodHM+DQogICAgICAgICAgPGNjOkFnZW50Pg0KICAgICAgICAgICAgPGRjOnRpdGxlPlRvcnN0ZW4gU2tvbXA8L2RjOnRpdGxlPg0KICAgICAgICAgIDwvY2M6QWdlbnQ+DQogICAgICAgIDwvZGM6cmlnaHRzPg0KICAgICAgICA8ZGM6cHVibGlzaGVyPg0KICAgICAgICAgIDxjYzpBZ2VudD4NCiAgICAgICAgICAgIDxkYzp0aXRsZT5Ub3JzdGVuIFNrb21wPC9kYzp0aXRsZT4NCiAgICAgICAgICA8L2NjOkFnZW50Pg0KICAgICAgICA8L2RjOnB1Ymxpc2hlcj4NCiAgICAgICAgPGRjOmxhbmd1YWdlPmRlX0RFPC9kYzpsYW5ndWFnZT4NCiAgICAgICAgPGRjOnN1YmplY3Q+DQogICAgICAgICAgPHJkZjpCYWc+DQogICAgICAgICAgICA8cmRmOmxpPlBpa3RvZ3JhbW07IEZvdG9ncmFmaWVydmVyYm90PC9yZGY6bGk+DQogICAgICAgICAgPC9yZGY6QmFnPg0KICAgICAgICA8L2RjOnN1YmplY3Q+DQogICAgICAgIDxkYzpkZXNjcmlwdGlvbj5Gb3RvZ3JhZmllcnZlcmJvdCBhbHMgUGlrdG9ncmFtbSA8L2RjOmRlc2NyaXB0aW9uPg0KICAgICAgICA8Y2M6bGljZW5zZQ0KICAgICAgICAgICByZGY6cmVzb3VyY2U9Imh0dHA6Ly9jcmVhdGl2ZWNvbW1vbnMub3JnL2xpY2Vuc2VzL3B1YmxpY2RvbWFpbi8iIC8+DQogICAgICA8L2NjOldvcms+DQogICAgICA8Y2M6TGljZW5zZQ0KICAgICAgICAgcmRmOmFib3V0PSJodHRwOi8vY3JlYXRpdmVjb21tb25zLm9yZy9saWNlbnNlcy9wdWJsaWNkb21haW4vIj4NCiAgICAgICAgPGNjOnBlcm1pdHMNCiAgICAgICAgICAgcmRmOnJlc291cmNlPSJodHRwOi8vY3JlYXRpdmVjb21tb25zLm9yZy9ucyNSZXByb2R1Y3Rpb24iIC8+DQogICAgICAgIDxjYzpwZXJtaXRzDQogICAgICAgICAgIHJkZjpyZXNvdXJjZT0iaHR0cDovL2NyZWF0aXZlY29tbW9ucy5vcmcvbnMjRGlzdHJpYnV0aW9uIiAvPg0KICAgICAgICA8Y2M6cGVybWl0cw0KICAgICAgICAgICByZGY6cmVzb3VyY2U9Imh0dHA6Ly9jcmVhdGl2ZWNvbW1vbnMub3JnL25zI0Rlcml2YXRpdmVXb3JrcyIgLz4NCiAgICAgIDwvY2M6TGljZW5zZT4NCiAgICA8L3JkZjpSREY+DQogIDwvbWV0YWRhdGE+DQogIDxnDQogICAgIGlua3NjYXBlOmxhYmVsPSJFYmVuZSAxIg0KICAgICBpbmtzY2FwZTpncm91cG1vZGU9ImxheWVyIg0KICAgICBpZD0ibGF5ZXIxIj4NCiAgICA8cGF0aA0KICAgICAgIHN0eWxlPSJmaWxsOiMwMDAwMDA7ZmlsbC1vcGFjaXR5OjEiDQogICAgICAgZD0iTSAxNjQuNTMxMjUgNjIuNjg3NSBDIDE2Mi43OTExNSA2Mi42ODc1MDEgMTYxLjM3NSA2NC4wNzI0MTYgMTYxLjM3NSA2NS44MTI1IEwgMTYxLjM3NSA2OC43NSBMIDM4LjM3NSA2OC43NSBDIDM1LjA5MjI5OCA2OC43NDk5OTkgMzIuNDY4NzUgNzEuMzczNTQ4IDMyLjQ2ODc1IDc0LjY1NjI1IEwgMzIuNDY4NzUgMTgxLjM3NSBDIDMyLjQ2ODc1IDE4NC42NTc3IDM1LjA5MjMwNyAxODcuMzEyNTEgMzguMzc1IDE4Ny4zMTI1IEwgMjExLjYyNSAxODcuMzEyNSBDIDIxNC45MDc2OSAxODcuMzEyNSAyMTcuNTMxMjcgMTg0LjY1NzcgMjE3LjUzMTI1IDE4MS4zNzUgTCAyMTcuNTMxMjUgNzQuNjU2MjUgQyAyMTcuNTMxMjUgNzEuMzczNTUxIDIxNC45MDc2OCA2OC43NSAyMTEuNjI1IDY4Ljc1IEwgMjAyLjA2MjUgNjguNzUgTCAyMDIuMDYyNSA2NS44MTI1IEMgMjAyLjA2MjUgNjQuMDcyNDEgMjAwLjY0NjM1IDYyLjY4NzUgMTk4LjkwNjI1IDYyLjY4NzUgTCAxNjQuNTMxMjUgNjIuNjg3NSB6IE0gNDYuODEyNSA3OCBMIDg4LjY1NjI1IDc4IEMgOTAuMzk2MzQyIDc4IDkxLjgxMjUgNzkuMzg0OTA3IDkxLjgxMjUgODEuMTI1IEwgOTEuODEyNSA5Ni4zMTI1IEMgOTEuODEyNSA5OC4wNTI1OTIgOTAuMzk2MzQzIDk5LjQzNzUgODguNjU2MjUgOTkuNDM3NSBMIDQ2LjgxMjUgOTkuNDM3NSBDIDQ1LjA3MjQwOCA5OS40Mzc1IDQzLjY4NzUgOTguMDUyNTkzIDQzLjY4NzUgOTYuMzEyNSBMIDQzLjY4NzUgODEuMTI1IEMgNDMuNjg3NSA3OS4zODQ5MDggNDUuMDcyNDA3IDc4IDQ2LjgxMjUgNzggeiBNIDE0NiA4OC4yMTg3NSBDIDE2Ny43MzQ3NSA4OC4yMTg3NTMgMTg1LjM3NSAxMDYuMTUwNzEgMTg1LjM3NSAxMjguMjUgQyAxODUuMzc0OTkgMTUwLjM0OTI4IDE2Ny43MzQ3NCAxNjguMjgxMjUgMTQ2IDE2OC4yODEyNSBDIDEyNC4yNjUyNyAxNjguMjgxMjYgMTA2LjYyNSAxNTAuMzQ5MjkgMTA2LjYyNSAxMjguMjUgQyAxMDYuNjI1IDEwNi4xNTA3MSAxMjQuMjY1MjYgODguMjE4NzUgMTQ2IDg4LjIxODc1IHogTSAxNDYgOTEuNzE4NzUgQyAxMjYuMTY1NTcgOTEuNzE4NzUgMTEwLjA2MjUgMTA4LjA4Mjg5IDExMC4wNjI1IDEyOC4yNSBDIDExMC4wNjI1IDE0OC40MTcxMSAxMjYuMTY1NTcgMTY0Ljc4MTI2IDE0NiAxNjQuNzgxMjUgQyAxNjUuODM0NDMgMTY0Ljc4MTI1IDE4MS45Mzc1IDE0OC40MTcxIDE4MS45Mzc1IDEyOC4yNSBDIDE4MS45Mzc1IDEwOC4wODI4OSAxNjUuODM0NDMgOTEuNzE4NzUgMTQ2IDkxLjcxODc1IHogTSAxNDYgOTYuNTkzNzUgQyAxNjMuMTc3NjggOTYuNTkzNzUyIDE3Ny4xMjUgMTEwLjc4NDIgMTc3LjEyNSAxMjguMjUgQyAxNzcuMTI0OTkgMTQ1LjcxNTggMTYzLjE3NzY5IDE1OS44NzUgMTQ2IDE1OS44NzUgQyAxMjguODIyMzEgMTU5Ljg3NSAxMTQuODc1IDE0NS43MTU4IDExNC44NzUgMTI4LjI1IEMgMTE0Ljg3NSAxMTAuNzg0MTkgMTI4LjgyMjMxIDk2LjU5Mzc1IDE0NiA5Ni41OTM3NSB6IE0gMTc2LjUgMTcyLjcxODc1IEwgMjA2LjE4NzUgMTcyLjcxODc1IEMgMjA3LjQyMTM4IDE3Mi43MTg3NSAyMDguNDA2MjUgMTczLjEyNzgzIDIwOC40MDYyNSAxNzMuNjI1IEwgMjA4LjQwNjI1IDE3Ny45Njg3NSBDIDIwOC40MDYyNSAxNzguNDY1OTIgMjA3LjQyMTM4IDE3OC44NDM3NSAyMDYuMTg3NSAxNzguODQzNzUgTCAxNzYuNSAxNzguODQzNzUgQyAxNzUuMjY2MTEgMTc4Ljg0Mzc1IDE3NC4yODEyNSAxNzguNDY1OTIgMTc0LjI4MTI1IDE3Ny45Njg3NSBMIDE3NC4yODEyNSAxNzMuNjI1IEMgMTc0LjI4MTI1IDE3My4xMjc4MyAxNzUuMjY2MTIgMTcyLjcxODc1IDE3Ni41IDE3Mi43MTg3NSB6ICINCiAgICAgICBpZD0icmVjdDMyMDkiIC8+DQogICAgPHBhdGgNCiAgICAgICBzdHlsZT0iZmlsbDojYzQyNjFkO2ZpbGwtb3BhY2l0eToxIg0KICAgICAgIGQ9Ik0gMjAgMCBDIDE4LjU1OTkzOCAwIDE3LjE2NDc0NyAwLjE1MDk4NjY2IDE1LjgxMjUgMC40Mzc1IEMgMTUuMjEwMjkxIDAuNTY1MTk1NzggMTQuNjExOTEzIDAuNzI2MjExMjYgMTQuMDMxMjUgMC45MDYyNSBDIDEzLjU1NDc3MyAxLjA1Mzk4NTIgMTMuMDg1MzQ5IDEuMjI0ODUzNiAxMi42MjUgMS40MDYyNSBDIDEyLjMyODc2NiAxLjUyMzA3MzkgMTIuMDM5MDMzIDEuNjUwOTE4MiAxMS43NSAxLjc4MTI1IEMgMTEuMzQ3Mjc4IDEuOTYyMzU5OCAxMC45NTA0MDYgMi4xMzc0MTY1IDEwLjU2MjUgMi4zNDM3NSBDIDEwLjUyMTU1NSAyLjM2NTU2ODggMTAuNDc4MjczIDIuMzg0MTU1NSAxMC40Mzc1IDIuNDA2MjUgQyAxMC40MTY5MzQgMi40MTczNzU0IDEwLjM5NTUyMiAyLjQyNjMwNDkgMTAuMzc1IDIuNDM3NSBDIDkuODMyNjg2MSAyLjczMzM0NDYgOS4zMjI2NDQ4IDMuMDYzMjQ1MiA4LjgxMjUgMy40MDYyNSBDIDguMjgzMTIyMSAzLjc2MjE4NjUgNy43NzI3NzI4IDQuMTU4OTIwOSA3LjI4MTI1IDQuNTYyNSBDIDcuMjc1MDU1IDQuNTY3NTg2NiA3LjI1NjE4ODggNC41NTc0MDYxIDcuMjUgNC41NjI1IEMgNy4yMzg1NDc5IDQuNTcxOTQzNCA3LjIzMDE4MDYgNC41ODQyODE2IDcuMjE4NzUgNC41OTM3NSBDIDcuMTA0NzM1MiA0LjY4ODAxNTkgNi45ODY4NTA3IDQuNzc4MjY4NyA2Ljg3NSA0Ljg3NSBDIDYuNTE1NzAyMSA1LjE4NjQyNjQgNi4xNzk3OTA5IDUuNTA3NzA5MSA1Ljg0Mzc1IDUuODQzNzUgQyA1LjQwNDQwMjUgNi4yODE4MDc4IDQuOTkwNzQ0OSA2Ljc0MTM1NTQgNC41OTM3NSA3LjIxODc1IEMgNC41NzkwMDg2IDcuMjM2NTQ2MiA0LjU3NzE4MDYgNy4yNjM0MDE1IDQuNTYyNSA3LjI4MTI1IEMgMy43Njc0ODk4IDguMjQzOTE4MSAzLjA0MjI3MjEgOS4yNzE4NzA1IDIuNDM3NSAxMC4zNzUgQyAyLjQyNjIyMzIgMTAuMzk1NjM1IDIuNDE3NDU2MSAxMC40MTY4MiAyLjQwNjI1IDEwLjQzNzUgQyAyLjEwODM5MDggMTAuOTg1MzQ4IDEuODQwMjIzMyAxMS41NDcyMTQgMS41OTM3NSAxMi4xMjUgQyAxLjU3NTU4NjUgMTIuMTY3NjY1IDEuNTQ5MTI1NSAxMi4yMDcxODIgMS41MzEyNSAxMi4yNSBDIDEuMjg3NzEzMSAxMi44MzI0MzMgMS4wOTQ2NzU0IDEzLjQyMTgyMiAwLjkwNjI1IDE0LjAzMTI1IEMgMC43Mjk2MzAxNCAxNC42MDI0OTUgMC41NjMwOTYzNCAxNS4xODg4MjggMC40Mzc1IDE1Ljc4MTI1IEMgMC4xNDY5MTQwNCAxNy4xNDI1NzggLTQuMzkwNjEzM2UtMTggMTguNTQ5NDY2IDAgMjAgTCAwIDIzMCBDIDAgMjQxLjA4IDguOTIgMjUwIDIwIDI1MCBMIDIzMCAyNTAgQyAyMzEuNDQwMDYgMjUwIDIzMi44MzUyNSAyNDkuODQ5MDEgMjM0LjE4NzUgMjQ5LjU2MjUgQyAyMzQuNzg5MDMgMjQ5LjQzNDk3IDIzNS4zODg2NiAyNDkuMjczODEgMjM1Ljk2ODc1IDI0OS4wOTM3NSBDIDIzNi40NDQ3NiAyNDguOTQ2IDIzNi45MTUwNSAyNDguNzc1MjYgMjM3LjM3NSAyNDguNTkzNzUgQyAyMzcuNjcxMjMgMjQ4LjQ3NjkzIDIzNy45NjA5NyAyNDguMzQ5MDggMjM4LjI1IDI0OC4yMTg3NSBDIDIzOC4yNzk4MSAyNDguMjA1MzEgMjM4LjMxNDAyIDI0OC4yMDEwOSAyMzguMzQzNzUgMjQ4LjE4NzUgQyAyMzguNzU4MzYgMjQ3Ljk5ODMgMjM5LjE2Mzc0IDI0Ny44MDk4MSAyMzkuNTYyNSAyNDcuNTkzNzUgQyAyMzkuNTgzMTggMjQ3LjU4MjU0IDIzOS42MDQzNiAyNDcuNTczNzggMjM5LjYyNSAyNDcuNTYyNSBDIDI0MC4xNjkyNSAyNDcuMjY1MTIgMjQwLjY3NTU4IDI0Ni45Mzg3MyAyNDEuMTg3NSAyNDYuNTkzNzUgQyAyNDEuNjY4NzggMjQ2LjI2OTQxIDI0Mi4xNDM1OSAyNDUuOTI2MzkgMjQyLjU5Mzc1IDI0NS41NjI1IEMgMjQyLjY0NDc0IDI0NS41MjEyOCAyNDIuNjk5NDMgMjQ1LjQ3OTIxIDI0Mi43NSAyNDUuNDM3NSBDIDI0Mi44NzY1MSAyNDUuMzMzMTggMjQzLjAwMTE1IDI0NS4yMzIzNSAyNDMuMTI1IDI0NS4xMjUgQyAyNDMuNDgyNjUgMjQ0LjgxNTM4IDI0My44MjE1NSAyNDQuNDkwMTkgMjQ0LjE1NjI1IDI0NC4xNTYyNSBDIDI0NC40OTIyOSAyNDMuODIwMjEgMjQ0LjgxMzU3IDI0My40ODQzIDI0NS4xMjUgMjQzLjEyNSBDIDI0NS4yMzE2NyAyNDMuMDAyMzQgMjQ1LjMzMzgxIDI0Mi44NzUyNyAyNDUuNDM3NSAyNDIuNzUgQyAyNDUuNDQyNzYgMjQyLjc0MzYyIDI0NS40MzIyNSAyNDIuNzI1MTMgMjQ1LjQzNzUgMjQyLjcxODc1IEMgMjQ1Ljg0MjQ5IDI0Mi4yMjgzIDI0Ni4yMzY0IDI0MS43MTU3NiAyNDYuNTkzNzUgMjQxLjE4NzUgQyAyNDYuOTM4MTIgMjQwLjY3ODQzIDI0Ny4yNjUzNiAyNDAuMTY2MjIgMjQ3LjU2MjUgMjM5LjYyNSBDIDI0Ny41NzM2MyAyMzkuNjA0NzIgMjQ3LjU4MjY4IDIzOS41ODI4MiAyNDcuNTkzNzUgMjM5LjU2MjUgQyAyNDcuODkxOTcgMjM5LjAxNDggMjQ4LjE1OTMxIDIzOC40NTIzOSAyNDguNDA2MjUgMjM3Ljg3NSBDIDI0OC40MTU1NCAyMzcuODUzMjggMjQ4LjQyODI5IDIzNy44MzQyNiAyNDguNDM3NSAyMzcuODEyNSBDIDI0OC40NDY0NCAyMzcuNzkxMjkgMjQ4LjQ1OTg4IDIzNy43NzEyNSAyNDguNDY4NzUgMjM3Ljc1IEMgMjQ4LjcwOTkyIDIzNy4xNzQ3NiAyNDguOTA2MjggMjM2LjU3MDA4IDI0OS4wOTM3NSAyMzUuOTY4NzUgQyAyNDkuMjczNzUgMjM1LjM5MTM3IDI0OS40MzQ2OCAyMzQuODE3NTQgMjQ5LjU2MjUgMjM0LjIxODc1IEMgMjQ5Ljg1MzA5IDIzMi44NTc0MiAyNTAgMjMxLjQ1MDUzIDI1MCAyMzAgTCAyNTAgMjAgQyAyNTAgOC45MiAyNDEuMDggLTMuMzUzNzk4N2UtMTcgMjMwIDAgTCAyMCAwIHogTSAzNC43ODEyNSAxOS40MDYyNSBMIDIyNS40Njg3NSAxOS40MDYyNSBDIDIyOC4zMDk0NiAxOS40MDYyNSAyMzAuNTkzNzUgMjEuNjkwNTQ0IDIzMC41OTM3NSAyNC41MzEyNSBMIDIzMC41OTM3NSAyMTUuMjUgTCAzNC43ODEyNSAxOS40MDYyNSB6IE0gMTkuNDA2MjUgMzQuNzUgTCAyMTUuMjE4NzUgMjMwLjU5Mzc1IEwgMjQuNTMxMjUgMjMwLjU5Mzc1IEMgMjEuNjkwNTQ0IDIzMC41OTM3NiAxOS40MDYyNSAyMjguMzA5NDYgMTkuNDA2MjUgMjI1LjQ2ODc1IEwgMTkuNDA2MjUgMzQuNzUgeiAiDQogICAgICAgaWQ9InBhdGgzMTk2IiAvPg0KICA8L2c+DQo8L3N2Zz4NCg==;strokeColor=none;points=[[0.43,1,0]];labelBackgroundColor=none;rounded=0;html=1;whiteSpace=wrap;" parent="1" vertex="1">
            <mxGeometry x="663" y="766" width="102" height="49" as="geometry" />
          </mxCell>
        </UserObject>
        <mxCell id="8" value="&lt;div style=&quot;font-size: 1px&quot;&gt;&lt;p style=&quot;text-align:center;margin-left:0;margin-right:0;margin-top:0px;margin-bottom:0px;text-indent:0;vertical-align:top;direction:ltr;&quot;&gt;&lt;font style=&quot;font-size:14.11px;font-family:Arial;color:#000000;direction:ltr;letter-spacing:0px;line-height:120%;opacity:1&quot;&gt;BL-21&lt;br/&gt;&lt;/font&gt;&lt;/p&gt;&lt;/div&gt;" style="text;vsdxID=8;fillColor=none;gradientColor=none;aspect=fixed;strokeColor=none;points=[[0.43,1,0]];labelBackgroundColor=none;rounded=0;html=1;whiteSpace=wrap;verticalAlign=top;align=center;;html=1;" parent="7" vertex="1">
          <mxGeometry x="-41.02" y="49" width="179.46" as="geometry" />
        </mxCell>
        <UserObject label="&lt;div style=&quot;font-size: 1px&quot;&gt;&lt;font style=&quot;font-size:11.29px;font-family:Calibri;color:#000000;direction:ltr;letter-spacing:0px;line-height:120%;opacity:1&quot;&gt;Vlan 100&lt;br/&gt;Anycast gw 10.0.0.1/29&lt;br/&gt;&lt;/font&gt;&lt;/div&gt;" tags="Соединительная_линия" id="98">
          <mxCell style="vsdxID=20;edgeStyle=none;startArrow=none;endArrow=none;startSize=5;endSize=5;strokeWidth=2;strokeColor=#00b0f0;spacingTop=0;spacingBottom=0;spacingLeft=0;spacingRight=0;verticalAlign=middle;html=1;labelBackgroundColor=#FFFFFF;rounded=0;align=center;" parent="1" edge="1">
            <mxGeometry relative="1" as="geometry">
              <mxPoint x="7" y="-1" as="offset" />
              <Array as="points" />
              <mxPoint x="374" y="648" as="sourcePoint" />
              <mxPoint x="727" y="648" as="targetPoint" />
            </mxGeometry>
          </mxCell>
        </UserObject>
        <UserObject label="" tags="Фон" id="9">
          <mxCell style="vsdxID=9;fillColor=none;gradientColor=none;dashed=1;dashPattern=12.00 6.00;strokeColor=none;points=[[0.5,0.5,0]];labelBackgroundColor=#FFFFFF;rounded=0;html=1;whiteSpace=wrap;" parent="1" vertex="1">
            <mxGeometry x="415" y="460" width="42" height="71" as="geometry" />
          </mxCell>
        </UserObject>
        <mxCell id="10" style="vsdxID=10;fillColor=#FF00FF;gradientColor=#FF00FF;fillOpacity=0;strokeOpacity=0;shape=stencil(jZHdDsIgDIWfprcE2zn0es73WDImRISF4d/bC5LFucS5u9P2a3NyClQNquklIB+Cd2d5121QQAdA1FZJr0NUQDVQ1TkvT95dbZvrvklkUhd3SxceeU8QI0pbyJ+5s+H8XR8zbrSd4ONwhPec7dbTuGXFbxpLVoovfsHIzAbDtagoljz8jSOKT5SdNiZ/YjqfRx9b+W1UvwA=);points=[[0.5,0.5,0]];labelBackgroundColor=#FFFFFF;rounded=0;html=1;whiteSpace=wrap;" parent="9" vertex="1">
          <mxGeometry width="42" height="71" as="geometry" />
        </mxCell>
        <mxCell id="11" value="&lt;div style=&quot;font-size: 1px&quot;&gt;&lt;/div&gt;" style="verticalAlign=middle;align=center;overflow=width;vsdxID=11;fillColor=#e7e4cd;gradientColor=#ff6600;shape=stencil(UzV2Ls5ILEhVNTIoLinKz04tz0wpyVA1dlE1MsrMy0gtyiwBslSNXVWNndPyi1LTi/JL81Ig/IJEkEoQKze/DGRCBUSfAUiHkUElhGdopGcGFnCDqM3JzMOt1sAAt1KYJEyxhbmemTnxyvGYjN/BQAbCp2mZOTnIMuhhAhSChKexKwA=);strokeColor=#ffffff;points=[[0.5,0.5,0]];labelBackgroundColor=#FFFFFF;rounded=0;html=1;whiteSpace=wrap;" parent="9" vertex="1">
          <mxGeometry x="31" y="18" width="11" height="53" as="geometry" />
        </mxCell>
        <mxCell id="12" value="&lt;div style=&quot;font-size: 1px&quot;&gt;&lt;/div&gt;" style="verticalAlign=middle;align=center;overflow=width;vsdxID=12;fillColor=#e7e4cd;gradientColor=#ff6600;gradientDirection=north;shape=stencil(hZDdDoIwDIWfprfLbAkL14jvQcJgi3MjY6K+vRsLEUzQu9P2O/0DqifVjhKQT8G7q3zoLiigMyBqq6TXISqgBqjunZeDd3fb5XhsE5nUzc2pwzP7eHIgf+UIS1YUS+aSYaPtBhbEiHaGE+fH+FpcYYGsqo7xOLwUO8OP3n/2juJzca+N2Va+fxNT+a/UvAE=);strokeColor=#ffffff;points=[[0.5,0.5,0]];labelBackgroundColor=#FFFFFF;rounded=0;html=1;whiteSpace=wrap;" parent="9" vertex="1">
          <mxGeometry width="42" height="24" as="geometry" />
        </mxCell>
        <mxCell id="13" value="&lt;div style=&quot;font-size: 1px&quot;&gt;&lt;/div&gt;" style="verticalAlign=middle;align=center;overflow=width;vsdxID=13;fillColor=#e7e4cd;gradientColor=#ff6600;shape=stencil(UzV2Ls5ILEhVNTIoLinKz04tz0wpyVA1dlE1MsrMy0gtyiwBslSNXVWNndPyi1LTi/JL81Ig/IJEkEoQKze/DGRCBUSfAUiHkUElhGduqGdhCBZxgyjOycxDUmxogKocxidKsZGFnqElbuWoivGYS8DFQAbCr2mZOTnIMuihAhSChKixKwA=);strokeColor=#000000;points=[[0.5,0.5,0]];labelBackgroundColor=#FFFFFF;rounded=0;html=1;whiteSpace=wrap;" parent="9" vertex="1">
          <mxGeometry y="6" width="31" height="64" as="geometry" />
        </mxCell>
        <mxCell id="14" style="vsdxID=14;fillColor=#e7e4cd;gradientColor=#ff6600;shape=stencil(lVTNbsMgDH4arhbYGMi5696jUrMl2pZUabqtb1+iiI6UFcHNJN+PMbYF7c7d4dQKlOd5Gj/an/44d4JeBGI/dO3Uzz4StBe0exun9n0aL8NxPZ8OC3KJvsbvReF35cmFgfIan15X4Gc/REBroMENGC1Yfk5QcqutGjAYw7eJVOunhOD4r/5DMhjIhdpagrGl6sjgdI06E3BTqk4OrKlRNwZYlaozgqqqum2gOHXDIG2NeIPgMk3DJiR7zwYBM+mnBMegMg+rCNyWwBZ0pnVSgpVA9NyBdJiLu4OCjEGKNzrbPemdtQGtaorELlyqsEikIGOQ4rUfAF1TIz9ilBmClOCnBl3VOwNmDFK88usqxvvgb+mu+zr+97ig/ad1udP+Bg==);strokeColor=#e7e4cd;points=[[0.5,0.5,0]];labelBackgroundColor=#FFFFFF;rounded=0;html=1;whiteSpace=wrap;" parent="9" vertex="1">
          <mxGeometry x="2" y="8" width="37" height="59" as="geometry" />
        </mxCell>
        <mxCell id="15" value="&lt;div style=&quot;font-size: 1px&quot;&gt;&lt;/div&gt;" style="verticalAlign=middle;align=center;overflow=width;vsdxID=15;fillColor=#FFFFFF;gradientColor=none;shape=stencil(jZHdDoIwDIWfprdLbRH0GvE9SJhuUTcy5t/bu7kQYYmEu9P2a3NyClwPqu0lEA7e2Yt86s4r4AMQaaOk0z4o4Aa4Plknz87eTZfqvo1kVDf7iBdeaQ/jBuE7VVUhim/jmNirNhO2YsE84zeI//FxOMJ7FLv1NG2XrFApymrGLxjJbAhai+ZxBPHLMb1gOsszD630L24+);strokeColor=#7030a0;strokeWidth=2;points=[[0.5,0.5,0]];labelBackgroundColor=#FFFFFF;rounded=0;html=1;whiteSpace=wrap;" parent="9" vertex="1">
          <mxGeometry width="42" height="71" as="geometry" />
        </mxCell>
        <mxCell id="16" value="&lt;div style=&quot;font-size: 1px&quot;&gt;&lt;/div&gt;" style="text;vsdxID=9;fillColor=none;gradientColor=none;dashed=1;dashPattern=12.00 6.00;strokeColor=none;points=[[0.5,0.5,0]];labelBackgroundColor=#FFFFFF;rounded=0;html=1;whiteSpace=wrap;verticalAlign=middle;align=center;overflow=width;;html=1;" parent="9" vertex="1">
          <mxGeometry x="-85.02" y="29.35" width="11.29" height="24.84" as="geometry" />
        </mxCell>
        <UserObject label="" tags="Фон" id="17">
          <mxCell style="vsdxID=72;fillColor=none;gradientColor=none;image;aspect=fixed;image=data:image/svg+xml,PD94bWwgdmVyc2lvbj0iMS4wIiBlbmNvZGluZz0iVVRGLTgiIHN0YW5kYWxvbmU9Im5vIj8+DQo8IS0tIENyZWF0ZWQgd2l0aCBJbmtzY2FwZSAoaHR0cDovL3d3dy5pbmtzY2FwZS5vcmcvKSAtLT4NCjxzdmcNCiAgIHhtbG5zOmRjPSJodHRwOi8vcHVybC5vcmcvZGMvZWxlbWVudHMvMS4xLyINCiAgIHhtbG5zOmNjPSJodHRwOi8vY3JlYXRpdmVjb21tb25zLm9yZy9ucyMiDQogICB4bWxuczpyZGY9Imh0dHA6Ly93d3cudzMub3JnLzE5OTkvMDIvMjItcmRmLXN5bnRheC1ucyMiDQogICB4bWxuczpzdmc9Imh0dHA6Ly93d3cudzMub3JnLzIwMDAvc3ZnIg0KICAgeG1sbnM9Imh0dHA6Ly93d3cudzMub3JnLzIwMDAvc3ZnIg0KICAgeG1sbnM6c29kaXBvZGk9Imh0dHA6Ly9zb2RpcG9kaS5zb3VyY2Vmb3JnZS5uZXQvRFREL3NvZGlwb2RpLTAuZHRkIg0KICAgeG1sbnM6aW5rc2NhcGU9Imh0dHA6Ly93d3cuaW5rc2NhcGUub3JnL25hbWVzcGFjZXMvaW5rc2NhcGUiDQogICB3aWR0aD0iMjUwIg0KICAgaGVpZ2h0PSIyNTAiDQogICBpZD0ic3ZnMzMxOSINCiAgIHNvZGlwb2RpOnZlcnNpb249IjAuMzIiDQogICBpbmtzY2FwZTp2ZXJzaW9uPSIwLjQ2Ig0KICAgdmVyc2lvbj0iMS4wIg0KICAgc29kaXBvZGk6ZG9jbmFtZT0ibm9waG90b19pLnN2ZyINCiAgIGlua3NjYXBlOm91dHB1dF9leHRlbnNpb249Im9yZy5pbmtzY2FwZS5vdXRwdXQuc3ZnLmlua3NjYXBlIj4NCiAgPGRlZnMNCiAgICAgaWQ9ImRlZnMzMzIxIj4NCiAgICA8aW5rc2NhcGU6cGVyc3BlY3RpdmUNCiAgICAgICBzb2RpcG9kaTp0eXBlPSJpbmtzY2FwZTpwZXJzcDNkIg0KICAgICAgIGlua3NjYXBlOnZwX3g9IjAgOiA1MjYuMTgxMDkgOiAxIg0KICAgICAgIGlua3NjYXBlOnZwX3k9IjAgOiAxMDAwIDogMCINCiAgICAgICBpbmtzY2FwZTp2cF96PSI3NDQuMDk0NDggOiA1MjYuMTgxMDkgOiAxIg0KICAgICAgIGlua3NjYXBlOnBlcnNwM2Qtb3JpZ2luPSIzNzIuMDQ3MjQgOiAzNTAuNzg3MzkgOiAxIg0KICAgICAgIGlkPSJwZXJzcGVjdGl2ZTMzMjciIC8+DQogICAgPGlua3NjYXBlOnBlcnNwZWN0aXZlDQogICAgICAgaWQ9InBlcnNwZWN0aXZlMzM0MiINCiAgICAgICBpbmtzY2FwZTpwZXJzcDNkLW9yaWdpbj0iMzcyLjA0NzI0IDogMzUwLjc4NzM5IDogMSINCiAgICAgICBpbmtzY2FwZTp2cF96PSI3NDQuMDk0NDggOiA1MjYuMTgxMDkgOiAxIg0KICAgICAgIGlua3NjYXBlOnZwX3k9IjAgOiAxMDAwIDogMCINCiAgICAgICBpbmtzY2FwZTp2cF94PSIwIDogNTI2LjE4MTA5IDogMSINCiAgICAgICBzb2RpcG9kaTp0eXBlPSJpbmtzY2FwZTpwZXJzcDNkIiAvPg0KICA8L2RlZnM+DQogIDxzb2RpcG9kaTpuYW1lZHZpZXcNCiAgICAgaWQ9ImJhc2UiDQogICAgIHBhZ2Vjb2xvcj0iI2ZmZmZmZiINCiAgICAgYm9yZGVyY29sb3I9IiM2NjY2NjYiDQogICAgIGJvcmRlcm9wYWNpdHk9IjEuMCINCiAgICAgaW5rc2NhcGU6cGFnZW9wYWNpdHk9IjAuMCINCiAgICAgaW5rc2NhcGU6cGFnZXNoYWRvdz0iMiINCiAgICAgaW5rc2NhcGU6em9vbT0iMi4yNDI5NDI3Ig0KICAgICBpbmtzY2FwZTpjeD0iMTIxLjk3NjQ4Ig0KICAgICBpbmtzY2FwZTpjeT0iMTIyLjQ0MTk4Ig0KICAgICBpbmtzY2FwZTpkb2N1bWVudC11bml0cz0icHgiDQogICAgIGlua3NjYXBlOmN1cnJlbnQtbGF5ZXI9ImxheWVyMSINCiAgICAgc2hvd2dyaWQ9ImZhbHNlIg0KICAgICBpbmtzY2FwZTp3aW5kb3ctd2lkdGg9IjE2NjQiDQogICAgIGlua3NjYXBlOndpbmRvdy1oZWlnaHQ9Ijg0NCINCiAgICAgaW5rc2NhcGU6d2luZG93LXg9Ii0zIg0KICAgICBpbmtzY2FwZTp3aW5kb3cteT0iLTE4IiAvPg0KICA8bWV0YWRhdGENCiAgICAgaWQ9Im1ldGFkYXRhMzMyNCI+DQogICAgPHJkZjpSREY+DQogICAgICA8Y2M6V29yaw0KICAgICAgICAgcmRmOmFib3V0PSIiPg0KICAgICAgICA8ZGM6Zm9ybWF0PmltYWdlL3N2Zyt4bWw8L2RjOmZvcm1hdD4NCiAgICAgICAgPGRjOnR5cGUNCiAgICAgICAgICAgcmRmOnJlc291cmNlPSJodHRwOi8vcHVybC5vcmcvZGMvZGNtaXR5cGUvU3RpbGxJbWFnZSIgLz4NCiAgICAgICAgPGRjOnRpdGxlPkZvdG9ncmFmaWVydmVyYm90PC9kYzp0aXRsZT4NCiAgICAgICAgPGRjOmRhdGU+MjAwOC0wNi0yOTwvZGM6ZGF0ZT4NCiAgICAgICAgPGRjOmNyZWF0b3I+DQogICAgICAgICAgPGNjOkFnZW50Pg0KICAgICAgICAgICAgPGRjOnRpdGxlPlRvcnJzdGVuIFNrb21wPC9kYzp0aXRsZT4NCiAgICAgICAgICA8L2NjOkFnZW50Pg0KICAgICAgICA8L2RjOmNyZWF0b3I+DQogICAgICAgIDxkYzpyaWdodHM+DQogICAgICAgICAgPGNjOkFnZW50Pg0KICAgICAgICAgICAgPGRjOnRpdGxlPlRvcnN0ZW4gU2tvbXA8L2RjOnRpdGxlPg0KICAgICAgICAgIDwvY2M6QWdlbnQ+DQogICAgICAgIDwvZGM6cmlnaHRzPg0KICAgICAgICA8ZGM6cHVibGlzaGVyPg0KICAgICAgICAgIDxjYzpBZ2VudD4NCiAgICAgICAgICAgIDxkYzp0aXRsZT5Ub3JzdGVuIFNrb21wPC9kYzp0aXRsZT4NCiAgICAgICAgICA8L2NjOkFnZW50Pg0KICAgICAgICA8L2RjOnB1Ymxpc2hlcj4NCiAgICAgICAgPGRjOmxhbmd1YWdlPmRlX0RFPC9kYzpsYW5ndWFnZT4NCiAgICAgICAgPGRjOnN1YmplY3Q+DQogICAgICAgICAgPHJkZjpCYWc+DQogICAgICAgICAgICA8cmRmOmxpPlBpa3RvZ3JhbW07IEZvdG9ncmFmaWVydmVyYm90PC9yZGY6bGk+DQogICAgICAgICAgPC9yZGY6QmFnPg0KICAgICAgICA8L2RjOnN1YmplY3Q+DQogICAgICAgIDxkYzpkZXNjcmlwdGlvbj5Gb3RvZ3JhZmllcnZlcmJvdCBhbHMgUGlrdG9ncmFtbSA8L2RjOmRlc2NyaXB0aW9uPg0KICAgICAgICA8Y2M6bGljZW5zZQ0KICAgICAgICAgICByZGY6cmVzb3VyY2U9Imh0dHA6Ly9jcmVhdGl2ZWNvbW1vbnMub3JnL2xpY2Vuc2VzL3B1YmxpY2RvbWFpbi8iIC8+DQogICAgICA8L2NjOldvcms+DQogICAgICA8Y2M6TGljZW5zZQ0KICAgICAgICAgcmRmOmFib3V0PSJodHRwOi8vY3JlYXRpdmVjb21tb25zLm9yZy9saWNlbnNlcy9wdWJsaWNkb21haW4vIj4NCiAgICAgICAgPGNjOnBlcm1pdHMNCiAgICAgICAgICAgcmRmOnJlc291cmNlPSJodHRwOi8vY3JlYXRpdmVjb21tb25zLm9yZy9ucyNSZXByb2R1Y3Rpb24iIC8+DQogICAgICAgIDxjYzpwZXJtaXRzDQogICAgICAgICAgIHJkZjpyZXNvdXJjZT0iaHR0cDovL2NyZWF0aXZlY29tbW9ucy5vcmcvbnMjRGlzdHJpYnV0aW9uIiAvPg0KICAgICAgICA8Y2M6cGVybWl0cw0KICAgICAgICAgICByZGY6cmVzb3VyY2U9Imh0dHA6Ly9jcmVhdGl2ZWNvbW1vbnMub3JnL25zI0Rlcml2YXRpdmVXb3JrcyIgLz4NCiAgICAgIDwvY2M6TGljZW5zZT4NCiAgICA8L3JkZjpSREY+DQogIDwvbWV0YWRhdGE+DQogIDxnDQogICAgIGlua3NjYXBlOmxhYmVsPSJFYmVuZSAxIg0KICAgICBpbmtzY2FwZTpncm91cG1vZGU9ImxheWVyIg0KICAgICBpZD0ibGF5ZXIxIj4NCiAgICA8cGF0aA0KICAgICAgIHN0eWxlPSJmaWxsOiMwMDAwMDA7ZmlsbC1vcGFjaXR5OjEiDQogICAgICAgZD0iTSAxNjQuNTMxMjUgNjIuNjg3NSBDIDE2Mi43OTExNSA2Mi42ODc1MDEgMTYxLjM3NSA2NC4wNzI0MTYgMTYxLjM3NSA2NS44MTI1IEwgMTYxLjM3NSA2OC43NSBMIDM4LjM3NSA2OC43NSBDIDM1LjA5MjI5OCA2OC43NDk5OTkgMzIuNDY4NzUgNzEuMzczNTQ4IDMyLjQ2ODc1IDc0LjY1NjI1IEwgMzIuNDY4NzUgMTgxLjM3NSBDIDMyLjQ2ODc1IDE4NC42NTc3IDM1LjA5MjMwNyAxODcuMzEyNTEgMzguMzc1IDE4Ny4zMTI1IEwgMjExLjYyNSAxODcuMzEyNSBDIDIxNC45MDc2OSAxODcuMzEyNSAyMTcuNTMxMjcgMTg0LjY1NzcgMjE3LjUzMTI1IDE4MS4zNzUgTCAyMTcuNTMxMjUgNzQuNjU2MjUgQyAyMTcuNTMxMjUgNzEuMzczNTUxIDIxNC45MDc2OCA2OC43NSAyMTEuNjI1IDY4Ljc1IEwgMjAyLjA2MjUgNjguNzUgTCAyMDIuMDYyNSA2NS44MTI1IEMgMjAyLjA2MjUgNjQuMDcyNDEgMjAwLjY0NjM1IDYyLjY4NzUgMTk4LjkwNjI1IDYyLjY4NzUgTCAxNjQuNTMxMjUgNjIuNjg3NSB6IE0gNDYuODEyNSA3OCBMIDg4LjY1NjI1IDc4IEMgOTAuMzk2MzQyIDc4IDkxLjgxMjUgNzkuMzg0OTA3IDkxLjgxMjUgODEuMTI1IEwgOTEuODEyNSA5Ni4zMTI1IEMgOTEuODEyNSA5OC4wNTI1OTIgOTAuMzk2MzQzIDk5LjQzNzUgODguNjU2MjUgOTkuNDM3NSBMIDQ2LjgxMjUgOTkuNDM3NSBDIDQ1LjA3MjQwOCA5OS40Mzc1IDQzLjY4NzUgOTguMDUyNTkzIDQzLjY4NzUgOTYuMzEyNSBMIDQzLjY4NzUgODEuMTI1IEMgNDMuNjg3NSA3OS4zODQ5MDggNDUuMDcyNDA3IDc4IDQ2LjgxMjUgNzggeiBNIDE0NiA4OC4yMTg3NSBDIDE2Ny43MzQ3NSA4OC4yMTg3NTMgMTg1LjM3NSAxMDYuMTUwNzEgMTg1LjM3NSAxMjguMjUgQyAxODUuMzc0OTkgMTUwLjM0OTI4IDE2Ny43MzQ3NCAxNjguMjgxMjUgMTQ2IDE2OC4yODEyNSBDIDEyNC4yNjUyNyAxNjguMjgxMjYgMTA2LjYyNSAxNTAuMzQ5MjkgMTA2LjYyNSAxMjguMjUgQyAxMDYuNjI1IDEwNi4xNTA3MSAxMjQuMjY1MjYgODguMjE4NzUgMTQ2IDg4LjIxODc1IHogTSAxNDYgOTEuNzE4NzUgQyAxMjYuMTY1NTcgOTEuNzE4NzUgMTEwLjA2MjUgMTA4LjA4Mjg5IDExMC4wNjI1IDEyOC4yNSBDIDExMC4wNjI1IDE0OC40MTcxMSAxMjYuMTY1NTcgMTY0Ljc4MTI2IDE0NiAxNjQuNzgxMjUgQyAxNjUuODM0NDMgMTY0Ljc4MTI1IDE4MS45Mzc1IDE0OC40MTcxIDE4MS45Mzc1IDEyOC4yNSBDIDE4MS45Mzc1IDEwOC4wODI4OSAxNjUuODM0NDMgOTEuNzE4NzUgMTQ2IDkxLjcxODc1IHogTSAxNDYgOTYuNTkzNzUgQyAxNjMuMTc3NjggOTYuNTkzNzUyIDE3Ny4xMjUgMTEwLjc4NDIgMTc3LjEyNSAxMjguMjUgQyAxNzcuMTI0OTkgMTQ1LjcxNTggMTYzLjE3NzY5IDE1OS44NzUgMTQ2IDE1OS44NzUgQyAxMjguODIyMzEgMTU5Ljg3NSAxMTQuODc1IDE0NS43MTU4IDExNC44NzUgMTI4LjI1IEMgMTE0Ljg3NSAxMTAuNzg0MTkgMTI4LjgyMjMxIDk2LjU5Mzc1IDE0NiA5Ni41OTM3NSB6IE0gMTc2LjUgMTcyLjcxODc1IEwgMjA2LjE4NzUgMTcyLjcxODc1IEMgMjA3LjQyMTM4IDE3Mi43MTg3NSAyMDguNDA2MjUgMTczLjEyNzgzIDIwOC40MDYyNSAxNzMuNjI1IEwgMjA4LjQwNjI1IDE3Ny45Njg3NSBDIDIwOC40MDYyNSAxNzguNDY1OTIgMjA3LjQyMTM4IDE3OC44NDM3NSAyMDYuMTg3NSAxNzguODQzNzUgTCAxNzYuNSAxNzguODQzNzUgQyAxNzUuMjY2MTEgMTc4Ljg0Mzc1IDE3NC4yODEyNSAxNzguNDY1OTIgMTc0LjI4MTI1IDE3Ny45Njg3NSBMIDE3NC4yODEyNSAxNzMuNjI1IEMgMTc0LjI4MTI1IDE3My4xMjc4MyAxNzUuMjY2MTIgMTcyLjcxODc1IDE3Ni41IDE3Mi43MTg3NSB6ICINCiAgICAgICBpZD0icmVjdDMyMDkiIC8+DQogICAgPHBhdGgNCiAgICAgICBzdHlsZT0iZmlsbDojYzQyNjFkO2ZpbGwtb3BhY2l0eToxIg0KICAgICAgIGQ9Ik0gMjAgMCBDIDE4LjU1OTkzOCAwIDE3LjE2NDc0NyAwLjE1MDk4NjY2IDE1LjgxMjUgMC40Mzc1IEMgMTUuMjEwMjkxIDAuNTY1MTk1NzggMTQuNjExOTEzIDAuNzI2MjExMjYgMTQuMDMxMjUgMC45MDYyNSBDIDEzLjU1NDc3MyAxLjA1Mzk4NTIgMTMuMDg1MzQ5IDEuMjI0ODUzNiAxMi42MjUgMS40MDYyNSBDIDEyLjMyODc2NiAxLjUyMzA3MzkgMTIuMDM5MDMzIDEuNjUwOTE4MiAxMS43NSAxLjc4MTI1IEMgMTEuMzQ3Mjc4IDEuOTYyMzU5OCAxMC45NTA0MDYgMi4xMzc0MTY1IDEwLjU2MjUgMi4zNDM3NSBDIDEwLjUyMTU1NSAyLjM2NTU2ODggMTAuNDc4MjczIDIuMzg0MTU1NSAxMC40Mzc1IDIuNDA2MjUgQyAxMC40MTY5MzQgMi40MTczNzU0IDEwLjM5NTUyMiAyLjQyNjMwNDkgMTAuMzc1IDIuNDM3NSBDIDkuODMyNjg2MSAyLjczMzM0NDYgOS4zMjI2NDQ4IDMuMDYzMjQ1MiA4LjgxMjUgMy40MDYyNSBDIDguMjgzMTIyMSAzLjc2MjE4NjUgNy43NzI3NzI4IDQuMTU4OTIwOSA3LjI4MTI1IDQuNTYyNSBDIDcuMjc1MDU1IDQuNTY3NTg2NiA3LjI1NjE4ODggNC41NTc0MDYxIDcuMjUgNC41NjI1IEMgNy4yMzg1NDc5IDQuNTcxOTQzNCA3LjIzMDE4MDYgNC41ODQyODE2IDcuMjE4NzUgNC41OTM3NSBDIDcuMTA0NzM1MiA0LjY4ODAxNTkgNi45ODY4NTA3IDQuNzc4MjY4NyA2Ljg3NSA0Ljg3NSBDIDYuNTE1NzAyMSA1LjE4NjQyNjQgNi4xNzk3OTA5IDUuNTA3NzA5MSA1Ljg0Mzc1IDUuODQzNzUgQyA1LjQwNDQwMjUgNi4yODE4MDc4IDQuOTkwNzQ0OSA2Ljc0MTM1NTQgNC41OTM3NSA3LjIxODc1IEMgNC41NzkwMDg2IDcuMjM2NTQ2MiA0LjU3NzE4MDYgNy4yNjM0MDE1IDQuNTYyNSA3LjI4MTI1IEMgMy43Njc0ODk4IDguMjQzOTE4MSAzLjA0MjI3MjEgOS4yNzE4NzA1IDIuNDM3NSAxMC4zNzUgQyAyLjQyNjIyMzIgMTAuMzk1NjM1IDIuNDE3NDU2MSAxMC40MTY4MiAyLjQwNjI1IDEwLjQzNzUgQyAyLjEwODM5MDggMTAuOTg1MzQ4IDEuODQwMjIzMyAxMS41NDcyMTQgMS41OTM3NSAxMi4xMjUgQyAxLjU3NTU4NjUgMTIuMTY3NjY1IDEuNTQ5MTI1NSAxMi4yMDcxODIgMS41MzEyNSAxMi4yNSBDIDEuMjg3NzEzMSAxMi44MzI0MzMgMS4wOTQ2NzU0IDEzLjQyMTgyMiAwLjkwNjI1IDE0LjAzMTI1IEMgMC43Mjk2MzAxNCAxNC42MDI0OTUgMC41NjMwOTYzNCAxNS4xODg4MjggMC40Mzc1IDE1Ljc4MTI1IEMgMC4xNDY5MTQwNCAxNy4xNDI1NzggLTQuMzkwNjEzM2UtMTggMTguNTQ5NDY2IDAgMjAgTCAwIDIzMCBDIDAgMjQxLjA4IDguOTIgMjUwIDIwIDI1MCBMIDIzMCAyNTAgQyAyMzEuNDQwMDYgMjUwIDIzMi44MzUyNSAyNDkuODQ5MDEgMjM0LjE4NzUgMjQ5LjU2MjUgQyAyMzQuNzg5MDMgMjQ5LjQzNDk3IDIzNS4zODg2NiAyNDkuMjczODEgMjM1Ljk2ODc1IDI0OS4wOTM3NSBDIDIzNi40NDQ3NiAyNDguOTQ2IDIzNi45MTUwNSAyNDguNzc1MjYgMjM3LjM3NSAyNDguNTkzNzUgQyAyMzcuNjcxMjMgMjQ4LjQ3NjkzIDIzNy45NjA5NyAyNDguMzQ5MDggMjM4LjI1IDI0OC4yMTg3NSBDIDIzOC4yNzk4MSAyNDguMjA1MzEgMjM4LjMxNDAyIDI0OC4yMDEwOSAyMzguMzQzNzUgMjQ4LjE4NzUgQyAyMzguNzU4MzYgMjQ3Ljk5ODMgMjM5LjE2Mzc0IDI0Ny44MDk4MSAyMzkuNTYyNSAyNDcuNTkzNzUgQyAyMzkuNTgzMTggMjQ3LjU4MjU0IDIzOS42MDQzNiAyNDcuNTczNzggMjM5LjYyNSAyNDcuNTYyNSBDIDI0MC4xNjkyNSAyNDcuMjY1MTIgMjQwLjY3NTU4IDI0Ni45Mzg3MyAyNDEuMTg3NSAyNDYuNTkzNzUgQyAyNDEuNjY4NzggMjQ2LjI2OTQxIDI0Mi4xNDM1OSAyNDUuOTI2MzkgMjQyLjU5Mzc1IDI0NS41NjI1IEMgMjQyLjY0NDc0IDI0NS41MjEyOCAyNDIuNjk5NDMgMjQ1LjQ3OTIxIDI0Mi43NSAyNDUuNDM3NSBDIDI0Mi44NzY1MSAyNDUuMzMzMTggMjQzLjAwMTE1IDI0NS4yMzIzNSAyNDMuMTI1IDI0NS4xMjUgQyAyNDMuNDgyNjUgMjQ0LjgxNTM4IDI0My44MjE1NSAyNDQuNDkwMTkgMjQ0LjE1NjI1IDI0NC4xNTYyNSBDIDI0NC40OTIyOSAyNDMuODIwMjEgMjQ0LjgxMzU3IDI0My40ODQzIDI0NS4xMjUgMjQzLjEyNSBDIDI0NS4yMzE2NyAyNDMuMDAyMzQgMjQ1LjMzMzgxIDI0Mi44NzUyNyAyNDUuNDM3NSAyNDIuNzUgQyAyNDUuNDQyNzYgMjQyLjc0MzYyIDI0NS40MzIyNSAyNDIuNzI1MTMgMjQ1LjQzNzUgMjQyLjcxODc1IEMgMjQ1Ljg0MjQ5IDI0Mi4yMjgzIDI0Ni4yMzY0IDI0MS43MTU3NiAyNDYuNTkzNzUgMjQxLjE4NzUgQyAyNDYuOTM4MTIgMjQwLjY3ODQzIDI0Ny4yNjUzNiAyNDAuMTY2MjIgMjQ3LjU2MjUgMjM5LjYyNSBDIDI0Ny41NzM2MyAyMzkuNjA0NzIgMjQ3LjU4MjY4IDIzOS41ODI4MiAyNDcuNTkzNzUgMjM5LjU2MjUgQyAyNDcuODkxOTcgMjM5LjAxNDggMjQ4LjE1OTMxIDIzOC40NTIzOSAyNDguNDA2MjUgMjM3Ljg3NSBDIDI0OC40MTU1NCAyMzcuODUzMjggMjQ4LjQyODI5IDIzNy44MzQyNiAyNDguNDM3NSAyMzcuODEyNSBDIDI0OC40NDY0NCAyMzcuNzkxMjkgMjQ4LjQ1OTg4IDIzNy43NzEyNSAyNDguNDY4NzUgMjM3Ljc1IEMgMjQ4LjcwOTkyIDIzNy4xNzQ3NiAyNDguOTA2MjggMjM2LjU3MDA4IDI0OS4wOTM3NSAyMzUuOTY4NzUgQyAyNDkuMjczNzUgMjM1LjM5MTM3IDI0OS40MzQ2OCAyMzQuODE3NTQgMjQ5LjU2MjUgMjM0LjIxODc1IEMgMjQ5Ljg1MzA5IDIzMi44NTc0MiAyNTAgMjMxLjQ1MDUzIDI1MCAyMzAgTCAyNTAgMjAgQyAyNTAgOC45MiAyNDEuMDggLTMuMzUzNzk4N2UtMTcgMjMwIDAgTCAyMCAwIHogTSAzNC43ODEyNSAxOS40MDYyNSBMIDIyNS40Njg3NSAxOS40MDYyNSBDIDIyOC4zMDk0NiAxOS40MDYyNSAyMzAuNTkzNzUgMjEuNjkwNTQ0IDIzMC41OTM3NSAyNC41MzEyNSBMIDIzMC41OTM3NSAyMTUuMjUgTCAzNC43ODEyNSAxOS40MDYyNSB6IE0gMTkuNDA2MjUgMzQuNzUgTCAyMTUuMjE4NzUgMjMwLjU5Mzc1IEwgMjQuNTMxMjUgMjMwLjU5Mzc1IEMgMjEuNjkwNTQ0IDIzMC41OTM3NiAxOS40MDYyNSAyMjguMzA5NDYgMTkuNDA2MjUgMjI1LjQ2ODc1IEwgMTkuNDA2MjUgMzQuNzUgeiAiDQogICAgICAgaWQ9InBhdGgzMTk2IiAvPg0KICA8L2c+DQo8L3N2Zz4NCg==;strokeColor=none;points=[[0.44,1,0]];labelBackgroundColor=none;rounded=0;html=1;whiteSpace=wrap;" parent="1" vertex="1">
            <mxGeometry x="384" y="312" width="102" height="49" as="geometry" />
          </mxCell>
        </UserObject>
        <mxCell id="18" value="&lt;div style=&quot;font-size: 1px&quot;&gt;&lt;font style=&quot;font-size:14.11px;font-family:Calibri;color:#000000;direction:ltr;letter-spacing:0px;line-height:120%;opacity:1&quot;&gt;WAN-11&lt;br/&gt;&lt;/font&gt;&lt;/div&gt;" style="text;vsdxID=72;fillColor=none;gradientColor=none;aspect=fixed;strokeColor=none;points=[[0.44,1,0]];labelBackgroundColor=none;rounded=0;html=1;whiteSpace=wrap;verticalAlign=top;align=center;;html=1;" parent="17" vertex="1">
          <mxGeometry x="-41.02" y="-27.2" width="193.42" as="geometry" />
        </mxCell>
        <UserObject label="" tags="Фон" id="19">
          <mxCell style="vsdxID=73;fillColor=none;gradientColor=none;image;aspect=fixed;image=data:image/svg+xml,PD94bWwgdmVyc2lvbj0iMS4wIiBlbmNvZGluZz0iVVRGLTgiIHN0YW5kYWxvbmU9Im5vIj8+DQo8IS0tIENyZWF0ZWQgd2l0aCBJbmtzY2FwZSAoaHR0cDovL3d3dy5pbmtzY2FwZS5vcmcvKSAtLT4NCjxzdmcNCiAgIHhtbG5zOmRjPSJodHRwOi8vcHVybC5vcmcvZGMvZWxlbWVudHMvMS4xLyINCiAgIHhtbG5zOmNjPSJodHRwOi8vY3JlYXRpdmVjb21tb25zLm9yZy9ucyMiDQogICB4bWxuczpyZGY9Imh0dHA6Ly93d3cudzMub3JnLzE5OTkvMDIvMjItcmRmLXN5bnRheC1ucyMiDQogICB4bWxuczpzdmc9Imh0dHA6Ly93d3cudzMub3JnLzIwMDAvc3ZnIg0KICAgeG1sbnM9Imh0dHA6Ly93d3cudzMub3JnLzIwMDAvc3ZnIg0KICAgeG1sbnM6c29kaXBvZGk9Imh0dHA6Ly9zb2RpcG9kaS5zb3VyY2Vmb3JnZS5uZXQvRFREL3NvZGlwb2RpLTAuZHRkIg0KICAgeG1sbnM6aW5rc2NhcGU9Imh0dHA6Ly93d3cuaW5rc2NhcGUub3JnL25hbWVzcGFjZXMvaW5rc2NhcGUiDQogICB3aWR0aD0iMjUwIg0KICAgaGVpZ2h0PSIyNTAiDQogICBpZD0ic3ZnMzMxOSINCiAgIHNvZGlwb2RpOnZlcnNpb249IjAuMzIiDQogICBpbmtzY2FwZTp2ZXJzaW9uPSIwLjQ2Ig0KICAgdmVyc2lvbj0iMS4wIg0KICAgc29kaXBvZGk6ZG9jbmFtZT0ibm9waG90b19pLnN2ZyINCiAgIGlua3NjYXBlOm91dHB1dF9leHRlbnNpb249Im9yZy5pbmtzY2FwZS5vdXRwdXQuc3ZnLmlua3NjYXBlIj4NCiAgPGRlZnMNCiAgICAgaWQ9ImRlZnMzMzIxIj4NCiAgICA8aW5rc2NhcGU6cGVyc3BlY3RpdmUNCiAgICAgICBzb2RpcG9kaTp0eXBlPSJpbmtzY2FwZTpwZXJzcDNkIg0KICAgICAgIGlua3NjYXBlOnZwX3g9IjAgOiA1MjYuMTgxMDkgOiAxIg0KICAgICAgIGlua3NjYXBlOnZwX3k9IjAgOiAxMDAwIDogMCINCiAgICAgICBpbmtzY2FwZTp2cF96PSI3NDQuMDk0NDggOiA1MjYuMTgxMDkgOiAxIg0KICAgICAgIGlua3NjYXBlOnBlcnNwM2Qtb3JpZ2luPSIzNzIuMDQ3MjQgOiAzNTAuNzg3MzkgOiAxIg0KICAgICAgIGlkPSJwZXJzcGVjdGl2ZTMzMjciIC8+DQogICAgPGlua3NjYXBlOnBlcnNwZWN0aXZlDQogICAgICAgaWQ9InBlcnNwZWN0aXZlMzM0MiINCiAgICAgICBpbmtzY2FwZTpwZXJzcDNkLW9yaWdpbj0iMzcyLjA0NzI0IDogMzUwLjc4NzM5IDogMSINCiAgICAgICBpbmtzY2FwZTp2cF96PSI3NDQuMDk0NDggOiA1MjYuMTgxMDkgOiAxIg0KICAgICAgIGlua3NjYXBlOnZwX3k9IjAgOiAxMDAwIDogMCINCiAgICAgICBpbmtzY2FwZTp2cF94PSIwIDogNTI2LjE4MTA5IDogMSINCiAgICAgICBzb2RpcG9kaTp0eXBlPSJpbmtzY2FwZTpwZXJzcDNkIiAvPg0KICA8L2RlZnM+DQogIDxzb2RpcG9kaTpuYW1lZHZpZXcNCiAgICAgaWQ9ImJhc2UiDQogICAgIHBhZ2Vjb2xvcj0iI2ZmZmZmZiINCiAgICAgYm9yZGVyY29sb3I9IiM2NjY2NjYiDQogICAgIGJvcmRlcm9wYWNpdHk9IjEuMCINCiAgICAgaW5rc2NhcGU6cGFnZW9wYWNpdHk9IjAuMCINCiAgICAgaW5rc2NhcGU6cGFnZXNoYWRvdz0iMiINCiAgICAgaW5rc2NhcGU6em9vbT0iMi4yNDI5NDI3Ig0KICAgICBpbmtzY2FwZTpjeD0iMTIxLjk3NjQ4Ig0KICAgICBpbmtzY2FwZTpjeT0iMTIyLjQ0MTk4Ig0KICAgICBpbmtzY2FwZTpkb2N1bWVudC11bml0cz0icHgiDQogICAgIGlua3NjYXBlOmN1cnJlbnQtbGF5ZXI9ImxheWVyMSINCiAgICAgc2hvd2dyaWQ9ImZhbHNlIg0KICAgICBpbmtzY2FwZTp3aW5kb3ctd2lkdGg9IjE2NjQiDQogICAgIGlua3NjYXBlOndpbmRvdy1oZWlnaHQ9Ijg0NCINCiAgICAgaW5rc2NhcGU6d2luZG93LXg9Ii0zIg0KICAgICBpbmtzY2FwZTp3aW5kb3cteT0iLTE4IiAvPg0KICA8bWV0YWRhdGENCiAgICAgaWQ9Im1ldGFkYXRhMzMyNCI+DQogICAgPHJkZjpSREY+DQogICAgICA8Y2M6V29yaw0KICAgICAgICAgcmRmOmFib3V0PSIiPg0KICAgICAgICA8ZGM6Zm9ybWF0PmltYWdlL3N2Zyt4bWw8L2RjOmZvcm1hdD4NCiAgICAgICAgPGRjOnR5cGUNCiAgICAgICAgICAgcmRmOnJlc291cmNlPSJodHRwOi8vcHVybC5vcmcvZGMvZGNtaXR5cGUvU3RpbGxJbWFnZSIgLz4NCiAgICAgICAgPGRjOnRpdGxlPkZvdG9ncmFmaWVydmVyYm90PC9kYzp0aXRsZT4NCiAgICAgICAgPGRjOmRhdGU+MjAwOC0wNi0yOTwvZGM6ZGF0ZT4NCiAgICAgICAgPGRjOmNyZWF0b3I+DQogICAgICAgICAgPGNjOkFnZW50Pg0KICAgICAgICAgICAgPGRjOnRpdGxlPlRvcnJzdGVuIFNrb21wPC9kYzp0aXRsZT4NCiAgICAgICAgICA8L2NjOkFnZW50Pg0KICAgICAgICA8L2RjOmNyZWF0b3I+DQogICAgICAgIDxkYzpyaWdodHM+DQogICAgICAgICAgPGNjOkFnZW50Pg0KICAgICAgICAgICAgPGRjOnRpdGxlPlRvcnN0ZW4gU2tvbXA8L2RjOnRpdGxlPg0KICAgICAgICAgIDwvY2M6QWdlbnQ+DQogICAgICAgIDwvZGM6cmlnaHRzPg0KICAgICAgICA8ZGM6cHVibGlzaGVyPg0KICAgICAgICAgIDxjYzpBZ2VudD4NCiAgICAgICAgICAgIDxkYzp0aXRsZT5Ub3JzdGVuIFNrb21wPC9kYzp0aXRsZT4NCiAgICAgICAgICA8L2NjOkFnZW50Pg0KICAgICAgICA8L2RjOnB1Ymxpc2hlcj4NCiAgICAgICAgPGRjOmxhbmd1YWdlPmRlX0RFPC9kYzpsYW5ndWFnZT4NCiAgICAgICAgPGRjOnN1YmplY3Q+DQogICAgICAgICAgPHJkZjpCYWc+DQogICAgICAgICAgICA8cmRmOmxpPlBpa3RvZ3JhbW07IEZvdG9ncmFmaWVydmVyYm90PC9yZGY6bGk+DQogICAgICAgICAgPC9yZGY6QmFnPg0KICAgICAgICA8L2RjOnN1YmplY3Q+DQogICAgICAgIDxkYzpkZXNjcmlwdGlvbj5Gb3RvZ3JhZmllcnZlcmJvdCBhbHMgUGlrdG9ncmFtbSA8L2RjOmRlc2NyaXB0aW9uPg0KICAgICAgICA8Y2M6bGljZW5zZQ0KICAgICAgICAgICByZGY6cmVzb3VyY2U9Imh0dHA6Ly9jcmVhdGl2ZWNvbW1vbnMub3JnL2xpY2Vuc2VzL3B1YmxpY2RvbWFpbi8iIC8+DQogICAgICA8L2NjOldvcms+DQogICAgICA8Y2M6TGljZW5zZQ0KICAgICAgICAgcmRmOmFib3V0PSJodHRwOi8vY3JlYXRpdmVjb21tb25zLm9yZy9saWNlbnNlcy9wdWJsaWNkb21haW4vIj4NCiAgICAgICAgPGNjOnBlcm1pdHMNCiAgICAgICAgICAgcmRmOnJlc291cmNlPSJodHRwOi8vY3JlYXRpdmVjb21tb25zLm9yZy9ucyNSZXByb2R1Y3Rpb24iIC8+DQogICAgICAgIDxjYzpwZXJtaXRzDQogICAgICAgICAgIHJkZjpyZXNvdXJjZT0iaHR0cDovL2NyZWF0aXZlY29tbW9ucy5vcmcvbnMjRGlzdHJpYnV0aW9uIiAvPg0KICAgICAgICA8Y2M6cGVybWl0cw0KICAgICAgICAgICByZGY6cmVzb3VyY2U9Imh0dHA6Ly9jcmVhdGl2ZWNvbW1vbnMub3JnL25zI0Rlcml2YXRpdmVXb3JrcyIgLz4NCiAgICAgIDwvY2M6TGljZW5zZT4NCiAgICA8L3JkZjpSREY+DQogIDwvbWV0YWRhdGE+DQogIDxnDQogICAgIGlua3NjYXBlOmxhYmVsPSJFYmVuZSAxIg0KICAgICBpbmtzY2FwZTpncm91cG1vZGU9ImxheWVyIg0KICAgICBpZD0ibGF5ZXIxIj4NCiAgICA8cGF0aA0KICAgICAgIHN0eWxlPSJmaWxsOiMwMDAwMDA7ZmlsbC1vcGFjaXR5OjEiDQogICAgICAgZD0iTSAxNjQuNTMxMjUgNjIuNjg3NSBDIDE2Mi43OTExNSA2Mi42ODc1MDEgMTYxLjM3NSA2NC4wNzI0MTYgMTYxLjM3NSA2NS44MTI1IEwgMTYxLjM3NSA2OC43NSBMIDM4LjM3NSA2OC43NSBDIDM1LjA5MjI5OCA2OC43NDk5OTkgMzIuNDY4NzUgNzEuMzczNTQ4IDMyLjQ2ODc1IDc0LjY1NjI1IEwgMzIuNDY4NzUgMTgxLjM3NSBDIDMyLjQ2ODc1IDE4NC42NTc3IDM1LjA5MjMwNyAxODcuMzEyNTEgMzguMzc1IDE4Ny4zMTI1IEwgMjExLjYyNSAxODcuMzEyNSBDIDIxNC45MDc2OSAxODcuMzEyNSAyMTcuNTMxMjcgMTg0LjY1NzcgMjE3LjUzMTI1IDE4MS4zNzUgTCAyMTcuNTMxMjUgNzQuNjU2MjUgQyAyMTcuNTMxMjUgNzEuMzczNTUxIDIxNC45MDc2OCA2OC43NSAyMTEuNjI1IDY4Ljc1IEwgMjAyLjA2MjUgNjguNzUgTCAyMDIuMDYyNSA2NS44MTI1IEMgMjAyLjA2MjUgNjQuMDcyNDEgMjAwLjY0NjM1IDYyLjY4NzUgMTk4LjkwNjI1IDYyLjY4NzUgTCAxNjQuNTMxMjUgNjIuNjg3NSB6IE0gNDYuODEyNSA3OCBMIDg4LjY1NjI1IDc4IEMgOTAuMzk2MzQyIDc4IDkxLjgxMjUgNzkuMzg0OTA3IDkxLjgxMjUgODEuMTI1IEwgOTEuODEyNSA5Ni4zMTI1IEMgOTEuODEyNSA5OC4wNTI1OTIgOTAuMzk2MzQzIDk5LjQzNzUgODguNjU2MjUgOTkuNDM3NSBMIDQ2LjgxMjUgOTkuNDM3NSBDIDQ1LjA3MjQwOCA5OS40Mzc1IDQzLjY4NzUgOTguMDUyNTkzIDQzLjY4NzUgOTYuMzEyNSBMIDQzLjY4NzUgODEuMTI1IEMgNDMuNjg3NSA3OS4zODQ5MDggNDUuMDcyNDA3IDc4IDQ2LjgxMjUgNzggeiBNIDE0NiA4OC4yMTg3NSBDIDE2Ny43MzQ3NSA4OC4yMTg3NTMgMTg1LjM3NSAxMDYuMTUwNzEgMTg1LjM3NSAxMjguMjUgQyAxODUuMzc0OTkgMTUwLjM0OTI4IDE2Ny43MzQ3NCAxNjguMjgxMjUgMTQ2IDE2OC4yODEyNSBDIDEyNC4yNjUyNyAxNjguMjgxMjYgMTA2LjYyNSAxNTAuMzQ5MjkgMTA2LjYyNSAxMjguMjUgQyAxMDYuNjI1IDEwNi4xNTA3MSAxMjQuMjY1MjYgODguMjE4NzUgMTQ2IDg4LjIxODc1IHogTSAxNDYgOTEuNzE4NzUgQyAxMjYuMTY1NTcgOTEuNzE4NzUgMTEwLjA2MjUgMTA4LjA4Mjg5IDExMC4wNjI1IDEyOC4yNSBDIDExMC4wNjI1IDE0OC40MTcxMSAxMjYuMTY1NTcgMTY0Ljc4MTI2IDE0NiAxNjQuNzgxMjUgQyAxNjUuODM0NDMgMTY0Ljc4MTI1IDE4MS45Mzc1IDE0OC40MTcxIDE4MS45Mzc1IDEyOC4yNSBDIDE4MS45Mzc1IDEwOC4wODI4OSAxNjUuODM0NDMgOTEuNzE4NzUgMTQ2IDkxLjcxODc1IHogTSAxNDYgOTYuNTkzNzUgQyAxNjMuMTc3NjggOTYuNTkzNzUyIDE3Ny4xMjUgMTEwLjc4NDIgMTc3LjEyNSAxMjguMjUgQyAxNzcuMTI0OTkgMTQ1LjcxNTggMTYzLjE3NzY5IDE1OS44NzUgMTQ2IDE1OS44NzUgQyAxMjguODIyMzEgMTU5Ljg3NSAxMTQuODc1IDE0NS43MTU4IDExNC44NzUgMTI4LjI1IEMgMTE0Ljg3NSAxMTAuNzg0MTkgMTI4LjgyMjMxIDk2LjU5Mzc1IDE0NiA5Ni41OTM3NSB6IE0gMTc2LjUgMTcyLjcxODc1IEwgMjA2LjE4NzUgMTcyLjcxODc1IEMgMjA3LjQyMTM4IDE3Mi43MTg3NSAyMDguNDA2MjUgMTczLjEyNzgzIDIwOC40MDYyNSAxNzMuNjI1IEwgMjA4LjQwNjI1IDE3Ny45Njg3NSBDIDIwOC40MDYyNSAxNzguNDY1OTIgMjA3LjQyMTM4IDE3OC44NDM3NSAyMDYuMTg3NSAxNzguODQzNzUgTCAxNzYuNSAxNzguODQzNzUgQyAxNzUuMjY2MTEgMTc4Ljg0Mzc1IDE3NC4yODEyNSAxNzguNDY1OTIgMTc0LjI4MTI1IDE3Ny45Njg3NSBMIDE3NC4yODEyNSAxNzMuNjI1IEMgMTc0LjI4MTI1IDE3My4xMjc4MyAxNzUuMjY2MTIgMTcyLjcxODc1IDE3Ni41IDE3Mi43MTg3NSB6ICINCiAgICAgICBpZD0icmVjdDMyMDkiIC8+DQogICAgPHBhdGgNCiAgICAgICBzdHlsZT0iZmlsbDojYzQyNjFkO2ZpbGwtb3BhY2l0eToxIg0KICAgICAgIGQ9Ik0gMjAgMCBDIDE4LjU1OTkzOCAwIDE3LjE2NDc0NyAwLjE1MDk4NjY2IDE1LjgxMjUgMC40Mzc1IEMgMTUuMjEwMjkxIDAuNTY1MTk1NzggMTQuNjExOTEzIDAuNzI2MjExMjYgMTQuMDMxMjUgMC45MDYyNSBDIDEzLjU1NDc3MyAxLjA1Mzk4NTIgMTMuMDg1MzQ5IDEuMjI0ODUzNiAxMi42MjUgMS40MDYyNSBDIDEyLjMyODc2NiAxLjUyMzA3MzkgMTIuMDM5MDMzIDEuNjUwOTE4MiAxMS43NSAxLjc4MTI1IEMgMTEuMzQ3Mjc4IDEuOTYyMzU5OCAxMC45NTA0MDYgMi4xMzc0MTY1IDEwLjU2MjUgMi4zNDM3NSBDIDEwLjUyMTU1NSAyLjM2NTU2ODggMTAuNDc4MjczIDIuMzg0MTU1NSAxMC40Mzc1IDIuNDA2MjUgQyAxMC40MTY5MzQgMi40MTczNzU0IDEwLjM5NTUyMiAyLjQyNjMwNDkgMTAuMzc1IDIuNDM3NSBDIDkuODMyNjg2MSAyLjczMzM0NDYgOS4zMjI2NDQ4IDMuMDYzMjQ1MiA4LjgxMjUgMy40MDYyNSBDIDguMjgzMTIyMSAzLjc2MjE4NjUgNy43NzI3NzI4IDQuMTU4OTIwOSA3LjI4MTI1IDQuNTYyNSBDIDcuMjc1MDU1IDQuNTY3NTg2NiA3LjI1NjE4ODggNC41NTc0MDYxIDcuMjUgNC41NjI1IEMgNy4yMzg1NDc5IDQuNTcxOTQzNCA3LjIzMDE4MDYgNC41ODQyODE2IDcuMjE4NzUgNC41OTM3NSBDIDcuMTA0NzM1MiA0LjY4ODAxNTkgNi45ODY4NTA3IDQuNzc4MjY4NyA2Ljg3NSA0Ljg3NSBDIDYuNTE1NzAyMSA1LjE4NjQyNjQgNi4xNzk3OTA5IDUuNTA3NzA5MSA1Ljg0Mzc1IDUuODQzNzUgQyA1LjQwNDQwMjUgNi4yODE4MDc4IDQuOTkwNzQ0OSA2Ljc0MTM1NTQgNC41OTM3NSA3LjIxODc1IEMgNC41NzkwMDg2IDcuMjM2NTQ2MiA0LjU3NzE4MDYgNy4yNjM0MDE1IDQuNTYyNSA3LjI4MTI1IEMgMy43Njc0ODk4IDguMjQzOTE4MSAzLjA0MjI3MjEgOS4yNzE4NzA1IDIuNDM3NSAxMC4zNzUgQyAyLjQyNjIyMzIgMTAuMzk1NjM1IDIuNDE3NDU2MSAxMC40MTY4MiAyLjQwNjI1IDEwLjQzNzUgQyAyLjEwODM5MDggMTAuOTg1MzQ4IDEuODQwMjIzMyAxMS41NDcyMTQgMS41OTM3NSAxMi4xMjUgQyAxLjU3NTU4NjUgMTIuMTY3NjY1IDEuNTQ5MTI1NSAxMi4yMDcxODIgMS41MzEyNSAxMi4yNSBDIDEuMjg3NzEzMSAxMi44MzI0MzMgMS4wOTQ2NzU0IDEzLjQyMTgyMiAwLjkwNjI1IDE0LjAzMTI1IEMgMC43Mjk2MzAxNCAxNC42MDI0OTUgMC41NjMwOTYzNCAxNS4xODg4MjggMC40Mzc1IDE1Ljc4MTI1IEMgMC4xNDY5MTQwNCAxNy4xNDI1NzggLTQuMzkwNjEzM2UtMTggMTguNTQ5NDY2IDAgMjAgTCAwIDIzMCBDIDAgMjQxLjA4IDguOTIgMjUwIDIwIDI1MCBMIDIzMCAyNTAgQyAyMzEuNDQwMDYgMjUwIDIzMi44MzUyNSAyNDkuODQ5MDEgMjM0LjE4NzUgMjQ5LjU2MjUgQyAyMzQuNzg5MDMgMjQ5LjQzNDk3IDIzNS4zODg2NiAyNDkuMjczODEgMjM1Ljk2ODc1IDI0OS4wOTM3NSBDIDIzNi40NDQ3NiAyNDguOTQ2IDIzNi45MTUwNSAyNDguNzc1MjYgMjM3LjM3NSAyNDguNTkzNzUgQyAyMzcuNjcxMjMgMjQ4LjQ3NjkzIDIzNy45NjA5NyAyNDguMzQ5MDggMjM4LjI1IDI0OC4yMTg3NSBDIDIzOC4yNzk4MSAyNDguMjA1MzEgMjM4LjMxNDAyIDI0OC4yMDEwOSAyMzguMzQzNzUgMjQ4LjE4NzUgQyAyMzguNzU4MzYgMjQ3Ljk5ODMgMjM5LjE2Mzc0IDI0Ny44MDk4MSAyMzkuNTYyNSAyNDcuNTkzNzUgQyAyMzkuNTgzMTggMjQ3LjU4MjU0IDIzOS42MDQzNiAyNDcuNTczNzggMjM5LjYyNSAyNDcuNTYyNSBDIDI0MC4xNjkyNSAyNDcuMjY1MTIgMjQwLjY3NTU4IDI0Ni45Mzg3MyAyNDEuMTg3NSAyNDYuNTkzNzUgQyAyNDEuNjY4NzggMjQ2LjI2OTQxIDI0Mi4xNDM1OSAyNDUuOTI2MzkgMjQyLjU5Mzc1IDI0NS41NjI1IEMgMjQyLjY0NDc0IDI0NS41MjEyOCAyNDIuNjk5NDMgMjQ1LjQ3OTIxIDI0Mi43NSAyNDUuNDM3NSBDIDI0Mi44NzY1MSAyNDUuMzMzMTggMjQzLjAwMTE1IDI0NS4yMzIzNSAyNDMuMTI1IDI0NS4xMjUgQyAyNDMuNDgyNjUgMjQ0LjgxNTM4IDI0My44MjE1NSAyNDQuNDkwMTkgMjQ0LjE1NjI1IDI0NC4xNTYyNSBDIDI0NC40OTIyOSAyNDMuODIwMjEgMjQ0LjgxMzU3IDI0My40ODQzIDI0NS4xMjUgMjQzLjEyNSBDIDI0NS4yMzE2NyAyNDMuMDAyMzQgMjQ1LjMzMzgxIDI0Mi44NzUyNyAyNDUuNDM3NSAyNDIuNzUgQyAyNDUuNDQyNzYgMjQyLjc0MzYyIDI0NS40MzIyNSAyNDIuNzI1MTMgMjQ1LjQzNzUgMjQyLjcxODc1IEMgMjQ1Ljg0MjQ5IDI0Mi4yMjgzIDI0Ni4yMzY0IDI0MS43MTU3NiAyNDYuNTkzNzUgMjQxLjE4NzUgQyAyNDYuOTM4MTIgMjQwLjY3ODQzIDI0Ny4yNjUzNiAyNDAuMTY2MjIgMjQ3LjU2MjUgMjM5LjYyNSBDIDI0Ny41NzM2MyAyMzkuNjA0NzIgMjQ3LjU4MjY4IDIzOS41ODI4MiAyNDcuNTkzNzUgMjM5LjU2MjUgQyAyNDcuODkxOTcgMjM5LjAxNDggMjQ4LjE1OTMxIDIzOC40NTIzOSAyNDguNDA2MjUgMjM3Ljg3NSBDIDI0OC40MTU1NCAyMzcuODUzMjggMjQ4LjQyODI5IDIzNy44MzQyNiAyNDguNDM3NSAyMzcuODEyNSBDIDI0OC40NDY0NCAyMzcuNzkxMjkgMjQ4LjQ1OTg4IDIzNy43NzEyNSAyNDguNDY4NzUgMjM3Ljc1IEMgMjQ4LjcwOTkyIDIzNy4xNzQ3NiAyNDguOTA2MjggMjM2LjU3MDA4IDI0OS4wOTM3NSAyMzUuOTY4NzUgQyAyNDkuMjczNzUgMjM1LjM5MTM3IDI0OS40MzQ2OCAyMzQuODE3NTQgMjQ5LjU2MjUgMjM0LjIxODc1IEMgMjQ5Ljg1MzA5IDIzMi44NTc0MiAyNTAgMjMxLjQ1MDUzIDI1MCAyMzAgTCAyNTAgMjAgQyAyNTAgOC45MiAyNDEuMDggLTMuMzUzNzk4N2UtMTcgMjMwIDAgTCAyMCAwIHogTSAzNC43ODEyNSAxOS40MDYyNSBMIDIyNS40Njg3NSAxOS40MDYyNSBDIDIyOC4zMDk0NiAxOS40MDYyNSAyMzAuNTkzNzUgMjEuNjkwNTQ0IDIzMC41OTM3NSAyNC41MzEyNSBMIDIzMC41OTM3NSAyMTUuMjUgTCAzNC43ODEyNSAxOS40MDYyNSB6IE0gMTkuNDA2MjUgMzQuNzUgTCAyMTUuMjE4NzUgMjMwLjU5Mzc1IEwgMjQuNTMxMjUgMjMwLjU5Mzc1IEMgMjEuNjkwNTQ0IDIzMC41OTM3NiAxOS40MDYyNSAyMjguMzA5NDYgMTkuNDA2MjUgMjI1LjQ2ODc1IEwgMTkuNDA2MjUgMzQuNzUgeiAiDQogICAgICAgaWQ9InBhdGgzMTk2IiAvPg0KICA8L2c+DQo8L3N2Zz4NCg==;strokeColor=none;points=[[0.44,1,0]];labelBackgroundColor=none;rounded=0;html=1;whiteSpace=wrap;" parent="1" vertex="1">
            <mxGeometry x="615" y="311" width="102" height="49" as="geometry" />
          </mxCell>
        </UserObject>
        <mxCell id="20" value="&lt;div style=&quot;font-size: 1px&quot;&gt;&lt;font style=&quot;font-size:14.11px;font-family:Calibri;color:#000000;direction:ltr;letter-spacing:0px;line-height:120%;opacity:1&quot;&gt;WAN-21&lt;br/&gt;&lt;/font&gt;&lt;/div&gt;" style="text;vsdxID=73;fillColor=none;gradientColor=none;aspect=fixed;strokeColor=none;points=[[0.44,1,0]];labelBackgroundColor=none;rounded=0;html=1;whiteSpace=wrap;verticalAlign=top;align=center;;html=1;" parent="19" vertex="1">
          <mxGeometry x="-43.98" y="-26.22" width="200.25" as="geometry" />
        </mxCell>
        <UserObject label="" tags="Фон" id="21">
          <mxCell style="vsdxID=21;fillColor=none;gradientColor=none;strokeColor=none;points=[[0.5,0.5,0]];labelBackgroundColor=none;rounded=0;html=1;whiteSpace=wrap;" parent="1" vertex="1">
            <mxGeometry x="644" y="464" width="42" height="71" as="geometry" />
          </mxCell>
        </UserObject>
        <mxCell id="22" style="vsdxID=22;fillColor=#FF00FF;gradientColor=#FF00FF;fillOpacity=0;strokeOpacity=0;shape=stencil(jZHdDsIgDIWfprcE2zn0es73WDImRISF4d/bC5LFucS5u9P2a3NyClQNquklIB+Cd2d5121QQAdA1FZJr0NUQDVQ1TkvT95dbZvrvklkUhd3SxceeU8QI0pbyJ+5s+H8XR8zbrSd4ONwhPec7dbTuGXFbxpLVoovfsHIzAbDtagoljz8jSOKT5SdNiZ/YjqfRx9b+W1UvwA=);points=[[0.5,0.5,0]];labelBackgroundColor=none;rounded=0;html=1;whiteSpace=wrap;" parent="21" vertex="1">
          <mxGeometry width="42" height="71" as="geometry" />
        </mxCell>
        <mxCell id="23" value="&lt;div style=&quot;font-size: 1px&quot;&gt;&lt;/div&gt;" style="verticalAlign=middle;align=center;overflow=width;vsdxID=23;fillColor=#e7e4cd;gradientColor=#ff6600;shape=stencil(UzV2Ls5ILEhVNTIoLinKz04tz0wpyVA1dlE1MsrMy0gtyiwBslSNXVWNndPyi1LTi/JL81Ig/IJEkEoQKze/DGRCBUSfAUiHkUElhGdopGcGFnCDqM3JzMOt1sAAt1KYJEyxhbmemTnxyvGYjN/BQAbCp2mZOTnIMuhhAhSChKexKwA=);strokeColor=#ffffff;spacingTop=-3;spacingBottom=-3;spacingLeft=-3;spacingRight=-3;points=[[0.5,0.5,0]];labelBackgroundColor=none;rounded=0;html=1;whiteSpace=wrap;" parent="21" vertex="1">
          <mxGeometry x="31" y="18" width="11" height="53" as="geometry" />
        </mxCell>
        <mxCell id="24" value="&lt;div style=&quot;font-size: 1px&quot;&gt;&lt;/div&gt;" style="verticalAlign=middle;align=center;overflow=width;vsdxID=24;fillColor=#e7e4cd;gradientColor=#ff6600;gradientDirection=north;shape=stencil(hZDdDoIwDIWfprfLbAkL14jvQcJgi3MjY6K+vRsLEUzQu9P2O/0DqifVjhKQT8G7q3zoLiigMyBqq6TXISqgBqjunZeDd3fb5XhsE5nUzc2pwzP7eHIgf+UIS1YUS+aSYaPtBhbEiHaGE+fH+FpcYYGsqo7xOLwUO8OP3n/2juJzca+N2Va+fxNT+a/UvAE=);strokeColor=#ffffff;spacingTop=-3;spacingBottom=-3;spacingLeft=-3;spacingRight=-3;points=[[0.5,0.5,0]];labelBackgroundColor=none;rounded=0;html=1;whiteSpace=wrap;" parent="21" vertex="1">
          <mxGeometry width="42" height="24" as="geometry" />
        </mxCell>
        <mxCell id="25" value="&lt;div style=&quot;font-size: 1px&quot;&gt;&lt;/div&gt;" style="verticalAlign=middle;align=center;overflow=width;vsdxID=25;fillColor=#e7e4cd;gradientColor=#ff6600;shape=stencil(UzV2Ls5ILEhVNTIoLinKz04tz0wpyVA1dlE1MsrMy0gtyiwBslSNXVWNndPyi1LTi/JL81Ig/IJEkEoQKze/DGRCBUSfAUiHkUElhGduqGdhCBZxgyjOycxDUmxogKocxidKsZGFnqElbuWoivGYS8DFQAbCr2mZOTnIMuihAhSChKixKwA=);strokeColor=#000000;spacingTop=-3;spacingBottom=-3;spacingLeft=-3;spacingRight=-3;points=[[0.5,0.5,0]];labelBackgroundColor=none;rounded=0;html=1;whiteSpace=wrap;" parent="21" vertex="1">
          <mxGeometry y="6" width="31" height="64" as="geometry" />
        </mxCell>
        <mxCell id="26" style="vsdxID=26;fillColor=#e7e4cd;gradientColor=#ff6600;shape=stencil(lVTNbsMgDH4arhbYGMi5696jUrMl2pZUabqtb1+iiI6UFcHNJN+PMbYF7c7d4dQKlOd5Gj/an/44d4JeBGI/dO3Uzz4StBe0exun9n0aL8NxPZ8OC3KJvsbvReF35cmFgfIan15X4Gc/REBroMENGC1Yfk5QcqutGjAYw7eJVOunhOD4r/5DMhjIhdpagrGl6sjgdI06E3BTqk4OrKlRNwZYlaozgqqqum2gOHXDIG2NeIPgMk3DJiR7zwYBM+mnBMegMg+rCNyWwBZ0pnVSgpVA9NyBdJiLu4OCjEGKNzrbPemdtQGtaorELlyqsEikIGOQ4rUfAF1TIz9ilBmClOCnBl3VOwNmDFK88usqxvvgb+mu+zr+97ig/ad1udP+Bg==);strokeColor=#e7e4cd;points=[[0.5,0.5,0]];labelBackgroundColor=none;rounded=0;html=1;whiteSpace=wrap;" parent="21" vertex="1">
          <mxGeometry x="2" y="8" width="37" height="59" as="geometry" />
        </mxCell>
        <mxCell id="27" value="&lt;div style=&quot;font-size: 1px&quot;&gt;&lt;/div&gt;" style="verticalAlign=middle;align=center;overflow=width;vsdxID=27;fillColor=#000000;gradientColor=none;shape=stencil(jZHdDoIwDIWfprdLbRH0GvE9SJhuUTcy5t/bu7kQYYmEu9P2a3NyClwPqu0lEA7e2Yt86s4r4AMQaaOk0z4o4Aa4Plknz87eTZfqvo1kVDf7iBdeaQ/jBuE7VVUhim/jmNirNhO2YsE84zeI//FxOMJ7FLv1NG2XrFApymrGLxjJbAhai+ZxBPHLMb1gOsszD630L24+);strokeColor=#000000;strokeWidth=2;spacingTop=-3;spacingBottom=-3;spacingLeft=-3;spacingRight=-3;points=[[0.5,0.5,0]];labelBackgroundColor=none;rounded=0;html=1;whiteSpace=wrap;" parent="21" vertex="1">
          <mxGeometry width="42" height="71" as="geometry" />
        </mxCell>
        <mxCell id="28" value="&lt;div style=&quot;font-size: 1px&quot;&gt;&lt;/div&gt;" style="text;vsdxID=21;fillColor=none;gradientColor=none;strokeColor=none;points=[[0.5,0.5,0]];labelBackgroundColor=none;rounded=0;html=1;whiteSpace=wrap;verticalAlign=middle;align=center;overflow=width;;html=1;" parent="21" vertex="1">
          <mxGeometry x="-85.89" y="25.3" width="11.29" height="31.61" as="geometry" />
        </mxCell>
        <UserObject label="&lt;div style=&quot;font-size: 1px&quot;&gt;&lt;font style=&quot;font-size:11.29px;font-family:Calibri;color:#000000;direction:ltr;letter-spacing:0px;line-height:120%;opacity:1&quot;&gt;Vlan 101&lt;br/&gt;FHRP 10.0.0.9/29&lt;br/&gt;&lt;/font&gt;&lt;/div&gt;" tags="Соединительная_линия" id="99">
          <mxCell style="vsdxID=88;edgeStyle=none;startArrow=none;endArrow=none;startSize=5;endSize=5;strokeWidth=2;strokeColor=#00b0f0;spacingTop=0;spacingBottom=0;spacingLeft=0;spacingRight=0;verticalAlign=middle;html=1;labelBackgroundColor=#FFFFFF;rounded=0;align=center;" parent="1" edge="1">
            <mxGeometry relative="1" as="geometry">
              <mxPoint x="9" as="offset" />
              <Array as="points" />
              <mxPoint x="436" y="412" as="sourcePoint" />
              <mxPoint x="666" y="413" as="targetPoint" />
            </mxGeometry>
          </mxCell>
        </UserObject>
        <UserObject label="&lt;div style=&quot;font-size: 1px&quot;&gt;&lt;p style=&quot;text-align:left;margin-left:0;margin-right:0;margin-top:0px;margin-bottom:0px;text-indent:0;vertical-align:middle;direction:ltr;&quot;&gt;&lt;font style=&quot;font-size:14.11px;font-family:Calibri;color:#000000;direction:ltr;letter-spacing:0px;line-height:120%;opacity:1&quot;&gt;Lo&lt;br/&gt;&lt;/font&gt;&lt;/p&gt;&lt;p style=&quot;text-align:left;margin-left:0;margin-right:0;margin-top:0px;margin-bottom:0px;text-indent:0;vertical-align:middle;direction:ltr;&quot;&gt;&lt;font style=&quot;font-size:14.11px;font-family:Calibri;color:#000000;direction:ltr;letter-spacing:0px;line-height:120%;opacity:1&quot;&gt;?&lt;br/&gt;&lt;/font&gt;&lt;/p&gt;&lt;/div&gt;" tags="Фон" id="29">
          <mxCell style="verticalAlign=middle;align=left;overflow=width;vsdxID=89;fillColor=none;gradientColor=none;shape=stencil(nZBLDoAgDERP0z3SIyjew0SURgSD+Lu9kMZoXLhwN9O+tukAlrNpJg1SzDH4QW/URgNYgZTkjA4UkwJUgGXng+6DX1zLfmoymdXo17xh5zmRJ6Q42BWCfc2oJfdAr+Yv+AP9Cb7OJ3H/2JG1HNGz/84klThPVCc=);strokeColor=none;points=[];labelBackgroundColor=none;rounded=0;html=1;whiteSpace=wrap;" parent="1" vertex="1">
            <mxGeometry x="336" y="367" width="100" height="28" as="geometry" />
          </mxCell>
        </UserObject>
        <UserObject label="&lt;div style=&quot;font-size: 1px&quot;&gt;&lt;p style=&quot;text-align:left;margin-left:0;margin-right:0;margin-top:0px;margin-bottom:0px;text-indent:0;vertical-align:middle;direction:ltr;&quot;&gt;&lt;font style=&quot;font-size:14.11px;font-family:Calibri;color:#000000;direction:ltr;letter-spacing:0px;line-height:120%;opacity:1&quot;&gt;Lo&lt;br/&gt;?&lt;br/&gt;&lt;/font&gt;&lt;/p&gt;&lt;/div&gt;" tags="Фон" id="30">
          <mxCell style="verticalAlign=middle;align=left;overflow=width;vsdxID=90;fillColor=none;gradientColor=none;shape=stencil(nZBLDoAgDERP0z3SIyjew0SURgSD+Lu9kMZoXLhwN9O+tukAlrNpJg1SzDH4QW/URgNYgZTkjA4UkwJUgGXng+6DX1zLfmoymdXo17xh5zmRJ6Q42BWCfc2oJfdAr+Yv+AP9Cb7OJ3H/2JG1HNGz/84klThPVCc=);strokeColor=none;points=[];labelBackgroundColor=none;rounded=0;html=1;whiteSpace=wrap;" parent="1" vertex="1">
            <mxGeometry x="673" y="367" width="100" height="28" as="geometry" />
          </mxCell>
        </UserObject>
        <UserObject label="&lt;div style=&quot;font-size: 1px&quot;&gt;&lt;p style=&quot;text-align:left;margin-left:0;margin-right:0;margin-top:0px;margin-bottom:0px;text-indent:0;vertical-align:middle;direction:ltr;&quot;&gt;&lt;font style=&quot;font-size:14.11px;font-family:Calibri;color:#000000;direction:ltr;letter-spacing:0px;line-height:120%;opacity:1&quot;&gt;Lo0&lt;br/&gt;10.30.0.11&lt;br/&gt;&lt;/font&gt;&lt;/p&gt;&lt;/div&gt;" tags="Фон" id="31">
          <mxCell style="verticalAlign=middle;align=left;overflow=width;vsdxID=91;fillColor=none;gradientColor=none;shape=stencil(nZBLDoAgDERP0z3SIyjew0SURgSD+Lu9kMZoXLhwN9O+tukAlrNpJg1SzDH4QW/URgNYgZTkjA4UkwJUgGXng+6DX1zLfmoymdXo17xh5zmRJ6Q42BWCfc2oJfdAr+Yv+AP9Cb7OJ3H/2JG1HNGz/84klThPVCc=);strokeColor=none;points=[];labelBackgroundColor=none;rounded=0;html=1;whiteSpace=wrap;" parent="1" vertex="1">
            <mxGeometry x="407" y="732" width="100" height="28" as="geometry" />
          </mxCell>
        </UserObject>
        <UserObject label="&lt;div style=&quot;font-size: 1px&quot;&gt;&lt;p style=&quot;text-align:left;margin-left:0;margin-right:0;margin-top:0px;margin-bottom:0px;text-indent:0;vertical-align:middle;direction:ltr;&quot;&gt;&lt;font style=&quot;font-size:14.11px;font-family:Calibri;color:#000000;direction:ltr;letter-spacing:0px;line-height:120%;opacity:1&quot;&gt;Lo0&lt;br/&gt;10.30.0.10&lt;br/&gt;&lt;/font&gt;&lt;/p&gt;&lt;/div&gt;" tags="Фон" id="32">
          <mxCell style="verticalAlign=middle;align=left;overflow=width;vsdxID=92;fillColor=none;gradientColor=none;shape=stencil(nZBLDoAgDERP0z3SIyjew0SURgSD+Lu9kMZoXLhwN9O+tukAlrNpJg1SzDH4QW/URgNYgZTkjA4UkwJUgGXng+6DX1zLfmoymdXo17xh5zmRJ6Q42BWCfc2oJfdAr+Yv+AP9Cb7OJ3H/2JG1HNGz/84klThPVCc=);strokeColor=none;points=[];labelBackgroundColor=none;rounded=0;html=1;whiteSpace=wrap;" parent="1" vertex="1">
            <mxGeometry x="725" y="732" width="100" height="28" as="geometry" />
          </mxCell>
        </UserObject>
        <UserObject label="" tags="Фон" id="33">
          <mxCell style="vsdxID=168;fillColor=none;gradientColor=none;image;aspect=fixed;image=data:image/svg+xml,PD94bWwgdmVyc2lvbj0iMS4wIiBlbmNvZGluZz0iVVRGLTgiIHN0YW5kYWxvbmU9Im5vIj8+DQo8IS0tIENyZWF0ZWQgd2l0aCBJbmtzY2FwZSAoaHR0cDovL3d3dy5pbmtzY2FwZS5vcmcvKSAtLT4NCjxzdmcNCiAgIHhtbG5zOmRjPSJodHRwOi8vcHVybC5vcmcvZGMvZWxlbWVudHMvMS4xLyINCiAgIHhtbG5zOmNjPSJodHRwOi8vY3JlYXRpdmVjb21tb25zLm9yZy9ucyMiDQogICB4bWxuczpyZGY9Imh0dHA6Ly93d3cudzMub3JnLzE5OTkvMDIvMjItcmRmLXN5bnRheC1ucyMiDQogICB4bWxuczpzdmc9Imh0dHA6Ly93d3cudzMub3JnLzIwMDAvc3ZnIg0KICAgeG1sbnM9Imh0dHA6Ly93d3cudzMub3JnLzIwMDAvc3ZnIg0KICAgeG1sbnM6c29kaXBvZGk9Imh0dHA6Ly9zb2RpcG9kaS5zb3VyY2Vmb3JnZS5uZXQvRFREL3NvZGlwb2RpLTAuZHRkIg0KICAgeG1sbnM6aW5rc2NhcGU9Imh0dHA6Ly93d3cuaW5rc2NhcGUub3JnL25hbWVzcGFjZXMvaW5rc2NhcGUiDQogICB3aWR0aD0iMjUwIg0KICAgaGVpZ2h0PSIyNTAiDQogICBpZD0ic3ZnMzMxOSINCiAgIHNvZGlwb2RpOnZlcnNpb249IjAuMzIiDQogICBpbmtzY2FwZTp2ZXJzaW9uPSIwLjQ2Ig0KICAgdmVyc2lvbj0iMS4wIg0KICAgc29kaXBvZGk6ZG9jbmFtZT0ibm9waG90b19pLnN2ZyINCiAgIGlua3NjYXBlOm91dHB1dF9leHRlbnNpb249Im9yZy5pbmtzY2FwZS5vdXRwdXQuc3ZnLmlua3NjYXBlIj4NCiAgPGRlZnMNCiAgICAgaWQ9ImRlZnMzMzIxIj4NCiAgICA8aW5rc2NhcGU6cGVyc3BlY3RpdmUNCiAgICAgICBzb2RpcG9kaTp0eXBlPSJpbmtzY2FwZTpwZXJzcDNkIg0KICAgICAgIGlua3NjYXBlOnZwX3g9IjAgOiA1MjYuMTgxMDkgOiAxIg0KICAgICAgIGlua3NjYXBlOnZwX3k9IjAgOiAxMDAwIDogMCINCiAgICAgICBpbmtzY2FwZTp2cF96PSI3NDQuMDk0NDggOiA1MjYuMTgxMDkgOiAxIg0KICAgICAgIGlua3NjYXBlOnBlcnNwM2Qtb3JpZ2luPSIzNzIuMDQ3MjQgOiAzNTAuNzg3MzkgOiAxIg0KICAgICAgIGlkPSJwZXJzcGVjdGl2ZTMzMjciIC8+DQogICAgPGlua3NjYXBlOnBlcnNwZWN0aXZlDQogICAgICAgaWQ9InBlcnNwZWN0aXZlMzM0MiINCiAgICAgICBpbmtzY2FwZTpwZXJzcDNkLW9yaWdpbj0iMzcyLjA0NzI0IDogMzUwLjc4NzM5IDogMSINCiAgICAgICBpbmtzY2FwZTp2cF96PSI3NDQuMDk0NDggOiA1MjYuMTgxMDkgOiAxIg0KICAgICAgIGlua3NjYXBlOnZwX3k9IjAgOiAxMDAwIDogMCINCiAgICAgICBpbmtzY2FwZTp2cF94PSIwIDogNTI2LjE4MTA5IDogMSINCiAgICAgICBzb2RpcG9kaTp0eXBlPSJpbmtzY2FwZTpwZXJzcDNkIiAvPg0KICA8L2RlZnM+DQogIDxzb2RpcG9kaTpuYW1lZHZpZXcNCiAgICAgaWQ9ImJhc2UiDQogICAgIHBhZ2Vjb2xvcj0iI2ZmZmZmZiINCiAgICAgYm9yZGVyY29sb3I9IiM2NjY2NjYiDQogICAgIGJvcmRlcm9wYWNpdHk9IjEuMCINCiAgICAgaW5rc2NhcGU6cGFnZW9wYWNpdHk9IjAuMCINCiAgICAgaW5rc2NhcGU6cGFnZXNoYWRvdz0iMiINCiAgICAgaW5rc2NhcGU6em9vbT0iMi4yNDI5NDI3Ig0KICAgICBpbmtzY2FwZTpjeD0iMTIxLjk3NjQ4Ig0KICAgICBpbmtzY2FwZTpjeT0iMTIyLjQ0MTk4Ig0KICAgICBpbmtzY2FwZTpkb2N1bWVudC11bml0cz0icHgiDQogICAgIGlua3NjYXBlOmN1cnJlbnQtbGF5ZXI9ImxheWVyMSINCiAgICAgc2hvd2dyaWQ9ImZhbHNlIg0KICAgICBpbmtzY2FwZTp3aW5kb3ctd2lkdGg9IjE2NjQiDQogICAgIGlua3NjYXBlOndpbmRvdy1oZWlnaHQ9Ijg0NCINCiAgICAgaW5rc2NhcGU6d2luZG93LXg9Ii0zIg0KICAgICBpbmtzY2FwZTp3aW5kb3cteT0iLTE4IiAvPg0KICA8bWV0YWRhdGENCiAgICAgaWQ9Im1ldGFkYXRhMzMyNCI+DQogICAgPHJkZjpSREY+DQogICAgICA8Y2M6V29yaw0KICAgICAgICAgcmRmOmFib3V0PSIiPg0KICAgICAgICA8ZGM6Zm9ybWF0PmltYWdlL3N2Zyt4bWw8L2RjOmZvcm1hdD4NCiAgICAgICAgPGRjOnR5cGUNCiAgICAgICAgICAgcmRmOnJlc291cmNlPSJodHRwOi8vcHVybC5vcmcvZGMvZGNtaXR5cGUvU3RpbGxJbWFnZSIgLz4NCiAgICAgICAgPGRjOnRpdGxlPkZvdG9ncmFmaWVydmVyYm90PC9kYzp0aXRsZT4NCiAgICAgICAgPGRjOmRhdGU+MjAwOC0wNi0yOTwvZGM6ZGF0ZT4NCiAgICAgICAgPGRjOmNyZWF0b3I+DQogICAgICAgICAgPGNjOkFnZW50Pg0KICAgICAgICAgICAgPGRjOnRpdGxlPlRvcnJzdGVuIFNrb21wPC9kYzp0aXRsZT4NCiAgICAgICAgICA8L2NjOkFnZW50Pg0KICAgICAgICA8L2RjOmNyZWF0b3I+DQogICAgICAgIDxkYzpyaWdodHM+DQogICAgICAgICAgPGNjOkFnZW50Pg0KICAgICAgICAgICAgPGRjOnRpdGxlPlRvcnN0ZW4gU2tvbXA8L2RjOnRpdGxlPg0KICAgICAgICAgIDwvY2M6QWdlbnQ+DQogICAgICAgIDwvZGM6cmlnaHRzPg0KICAgICAgICA8ZGM6cHVibGlzaGVyPg0KICAgICAgICAgIDxjYzpBZ2VudD4NCiAgICAgICAgICAgIDxkYzp0aXRsZT5Ub3JzdGVuIFNrb21wPC9kYzp0aXRsZT4NCiAgICAgICAgICA8L2NjOkFnZW50Pg0KICAgICAgICA8L2RjOnB1Ymxpc2hlcj4NCiAgICAgICAgPGRjOmxhbmd1YWdlPmRlX0RFPC9kYzpsYW5ndWFnZT4NCiAgICAgICAgPGRjOnN1YmplY3Q+DQogICAgICAgICAgPHJkZjpCYWc+DQogICAgICAgICAgICA8cmRmOmxpPlBpa3RvZ3JhbW07IEZvdG9ncmFmaWVydmVyYm90PC9yZGY6bGk+DQogICAgICAgICAgPC9yZGY6QmFnPg0KICAgICAgICA8L2RjOnN1YmplY3Q+DQogICAgICAgIDxkYzpkZXNjcmlwdGlvbj5Gb3RvZ3JhZmllcnZlcmJvdCBhbHMgUGlrdG9ncmFtbSA8L2RjOmRlc2NyaXB0aW9uPg0KICAgICAgICA8Y2M6bGljZW5zZQ0KICAgICAgICAgICByZGY6cmVzb3VyY2U9Imh0dHA6Ly9jcmVhdGl2ZWNvbW1vbnMub3JnL2xpY2Vuc2VzL3B1YmxpY2RvbWFpbi8iIC8+DQogICAgICA8L2NjOldvcms+DQogICAgICA8Y2M6TGljZW5zZQ0KICAgICAgICAgcmRmOmFib3V0PSJodHRwOi8vY3JlYXRpdmVjb21tb25zLm9yZy9saWNlbnNlcy9wdWJsaWNkb21haW4vIj4NCiAgICAgICAgPGNjOnBlcm1pdHMNCiAgICAgICAgICAgcmRmOnJlc291cmNlPSJodHRwOi8vY3JlYXRpdmVjb21tb25zLm9yZy9ucyNSZXByb2R1Y3Rpb24iIC8+DQogICAgICAgIDxjYzpwZXJtaXRzDQogICAgICAgICAgIHJkZjpyZXNvdXJjZT0iaHR0cDovL2NyZWF0aXZlY29tbW9ucy5vcmcvbnMjRGlzdHJpYnV0aW9uIiAvPg0KICAgICAgICA8Y2M6cGVybWl0cw0KICAgICAgICAgICByZGY6cmVzb3VyY2U9Imh0dHA6Ly9jcmVhdGl2ZWNvbW1vbnMub3JnL25zI0Rlcml2YXRpdmVXb3JrcyIgLz4NCiAgICAgIDwvY2M6TGljZW5zZT4NCiAgICA8L3JkZjpSREY+DQogIDwvbWV0YWRhdGE+DQogIDxnDQogICAgIGlua3NjYXBlOmxhYmVsPSJFYmVuZSAxIg0KICAgICBpbmtzY2FwZTpncm91cG1vZGU9ImxheWVyIg0KICAgICBpZD0ibGF5ZXIxIj4NCiAgICA8cGF0aA0KICAgICAgIHN0eWxlPSJmaWxsOiMwMDAwMDA7ZmlsbC1vcGFjaXR5OjEiDQogICAgICAgZD0iTSAxNjQuNTMxMjUgNjIuNjg3NSBDIDE2Mi43OTExNSA2Mi42ODc1MDEgMTYxLjM3NSA2NC4wNzI0MTYgMTYxLjM3NSA2NS44MTI1IEwgMTYxLjM3NSA2OC43NSBMIDM4LjM3NSA2OC43NSBDIDM1LjA5MjI5OCA2OC43NDk5OTkgMzIuNDY4NzUgNzEuMzczNTQ4IDMyLjQ2ODc1IDc0LjY1NjI1IEwgMzIuNDY4NzUgMTgxLjM3NSBDIDMyLjQ2ODc1IDE4NC42NTc3IDM1LjA5MjMwNyAxODcuMzEyNTEgMzguMzc1IDE4Ny4zMTI1IEwgMjExLjYyNSAxODcuMzEyNSBDIDIxNC45MDc2OSAxODcuMzEyNSAyMTcuNTMxMjcgMTg0LjY1NzcgMjE3LjUzMTI1IDE4MS4zNzUgTCAyMTcuNTMxMjUgNzQuNjU2MjUgQyAyMTcuNTMxMjUgNzEuMzczNTUxIDIxNC45MDc2OCA2OC43NSAyMTEuNjI1IDY4Ljc1IEwgMjAyLjA2MjUgNjguNzUgTCAyMDIuMDYyNSA2NS44MTI1IEMgMjAyLjA2MjUgNjQuMDcyNDEgMjAwLjY0NjM1IDYyLjY4NzUgMTk4LjkwNjI1IDYyLjY4NzUgTCAxNjQuNTMxMjUgNjIuNjg3NSB6IE0gNDYuODEyNSA3OCBMIDg4LjY1NjI1IDc4IEMgOTAuMzk2MzQyIDc4IDkxLjgxMjUgNzkuMzg0OTA3IDkxLjgxMjUgODEuMTI1IEwgOTEuODEyNSA5Ni4zMTI1IEMgOTEuODEyNSA5OC4wNTI1OTIgOTAuMzk2MzQzIDk5LjQzNzUgODguNjU2MjUgOTkuNDM3NSBMIDQ2LjgxMjUgOTkuNDM3NSBDIDQ1LjA3MjQwOCA5OS40Mzc1IDQzLjY4NzUgOTguMDUyNTkzIDQzLjY4NzUgOTYuMzEyNSBMIDQzLjY4NzUgODEuMTI1IEMgNDMuNjg3NSA3OS4zODQ5MDggNDUuMDcyNDA3IDc4IDQ2LjgxMjUgNzggeiBNIDE0NiA4OC4yMTg3NSBDIDE2Ny43MzQ3NSA4OC4yMTg3NTMgMTg1LjM3NSAxMDYuMTUwNzEgMTg1LjM3NSAxMjguMjUgQyAxODUuMzc0OTkgMTUwLjM0OTI4IDE2Ny43MzQ3NCAxNjguMjgxMjUgMTQ2IDE2OC4yODEyNSBDIDEyNC4yNjUyNyAxNjguMjgxMjYgMTA2LjYyNSAxNTAuMzQ5MjkgMTA2LjYyNSAxMjguMjUgQyAxMDYuNjI1IDEwNi4xNTA3MSAxMjQuMjY1MjYgODguMjE4NzUgMTQ2IDg4LjIxODc1IHogTSAxNDYgOTEuNzE4NzUgQyAxMjYuMTY1NTcgOTEuNzE4NzUgMTEwLjA2MjUgMTA4LjA4Mjg5IDExMC4wNjI1IDEyOC4yNSBDIDExMC4wNjI1IDE0OC40MTcxMSAxMjYuMTY1NTcgMTY0Ljc4MTI2IDE0NiAxNjQuNzgxMjUgQyAxNjUuODM0NDMgMTY0Ljc4MTI1IDE4MS45Mzc1IDE0OC40MTcxIDE4MS45Mzc1IDEyOC4yNSBDIDE4MS45Mzc1IDEwOC4wODI4OSAxNjUuODM0NDMgOTEuNzE4NzUgMTQ2IDkxLjcxODc1IHogTSAxNDYgOTYuNTkzNzUgQyAxNjMuMTc3NjggOTYuNTkzNzUyIDE3Ny4xMjUgMTEwLjc4NDIgMTc3LjEyNSAxMjguMjUgQyAxNzcuMTI0OTkgMTQ1LjcxNTggMTYzLjE3NzY5IDE1OS44NzUgMTQ2IDE1OS44NzUgQyAxMjguODIyMzEgMTU5Ljg3NSAxMTQuODc1IDE0NS43MTU4IDExNC44NzUgMTI4LjI1IEMgMTE0Ljg3NSAxMTAuNzg0MTkgMTI4LjgyMjMxIDk2LjU5Mzc1IDE0NiA5Ni41OTM3NSB6IE0gMTc2LjUgMTcyLjcxODc1IEwgMjA2LjE4NzUgMTcyLjcxODc1IEMgMjA3LjQyMTM4IDE3Mi43MTg3NSAyMDguNDA2MjUgMTczLjEyNzgzIDIwOC40MDYyNSAxNzMuNjI1IEwgMjA4LjQwNjI1IDE3Ny45Njg3NSBDIDIwOC40MDYyNSAxNzguNDY1OTIgMjA3LjQyMTM4IDE3OC44NDM3NSAyMDYuMTg3NSAxNzguODQzNzUgTCAxNzYuNSAxNzguODQzNzUgQyAxNzUuMjY2MTEgMTc4Ljg0Mzc1IDE3NC4yODEyNSAxNzguNDY1OTIgMTc0LjI4MTI1IDE3Ny45Njg3NSBMIDE3NC4yODEyNSAxNzMuNjI1IEMgMTc0LjI4MTI1IDE3My4xMjc4MyAxNzUuMjY2MTIgMTcyLjcxODc1IDE3Ni41IDE3Mi43MTg3NSB6ICINCiAgICAgICBpZD0icmVjdDMyMDkiIC8+DQogICAgPHBhdGgNCiAgICAgICBzdHlsZT0iZmlsbDojYzQyNjFkO2ZpbGwtb3BhY2l0eToxIg0KICAgICAgIGQ9Ik0gMjAgMCBDIDE4LjU1OTkzOCAwIDE3LjE2NDc0NyAwLjE1MDk4NjY2IDE1LjgxMjUgMC40Mzc1IEMgMTUuMjEwMjkxIDAuNTY1MTk1NzggMTQuNjExOTEzIDAuNzI2MjExMjYgMTQuMDMxMjUgMC45MDYyNSBDIDEzLjU1NDc3MyAxLjA1Mzk4NTIgMTMuMDg1MzQ5IDEuMjI0ODUzNiAxMi42MjUgMS40MDYyNSBDIDEyLjMyODc2NiAxLjUyMzA3MzkgMTIuMDM5MDMzIDEuNjUwOTE4MiAxMS43NSAxLjc4MTI1IEMgMTEuMzQ3Mjc4IDEuOTYyMzU5OCAxMC45NTA0MDYgMi4xMzc0MTY1IDEwLjU2MjUgMi4zNDM3NSBDIDEwLjUyMTU1NSAyLjM2NTU2ODggMTAuNDc4MjczIDIuMzg0MTU1NSAxMC40Mzc1IDIuNDA2MjUgQyAxMC40MTY5MzQgMi40MTczNzU0IDEwLjM5NTUyMiAyLjQyNjMwNDkgMTAuMzc1IDIuNDM3NSBDIDkuODMyNjg2MSAyLjczMzM0NDYgOS4zMjI2NDQ4IDMuMDYzMjQ1MiA4LjgxMjUgMy40MDYyNSBDIDguMjgzMTIyMSAzLjc2MjE4NjUgNy43NzI3NzI4IDQuMTU4OTIwOSA3LjI4MTI1IDQuNTYyNSBDIDcuMjc1MDU1IDQuNTY3NTg2NiA3LjI1NjE4ODggNC41NTc0MDYxIDcuMjUgNC41NjI1IEMgNy4yMzg1NDc5IDQuNTcxOTQzNCA3LjIzMDE4MDYgNC41ODQyODE2IDcuMjE4NzUgNC41OTM3NSBDIDcuMTA0NzM1MiA0LjY4ODAxNTkgNi45ODY4NTA3IDQuNzc4MjY4NyA2Ljg3NSA0Ljg3NSBDIDYuNTE1NzAyMSA1LjE4NjQyNjQgNi4xNzk3OTA5IDUuNTA3NzA5MSA1Ljg0Mzc1IDUuODQzNzUgQyA1LjQwNDQwMjUgNi4yODE4MDc4IDQuOTkwNzQ0OSA2Ljc0MTM1NTQgNC41OTM3NSA3LjIxODc1IEMgNC41NzkwMDg2IDcuMjM2NTQ2MiA0LjU3NzE4MDYgNy4yNjM0MDE1IDQuNTYyNSA3LjI4MTI1IEMgMy43Njc0ODk4IDguMjQzOTE4MSAzLjA0MjI3MjEgOS4yNzE4NzA1IDIuNDM3NSAxMC4zNzUgQyAyLjQyNjIyMzIgMTAuMzk1NjM1IDIuNDE3NDU2MSAxMC40MTY4MiAyLjQwNjI1IDEwLjQzNzUgQyAyLjEwODM5MDggMTAuOTg1MzQ4IDEuODQwMjIzMyAxMS41NDcyMTQgMS41OTM3NSAxMi4xMjUgQyAxLjU3NTU4NjUgMTIuMTY3NjY1IDEuNTQ5MTI1NSAxMi4yMDcxODIgMS41MzEyNSAxMi4yNSBDIDEuMjg3NzEzMSAxMi44MzI0MzMgMS4wOTQ2NzU0IDEzLjQyMTgyMiAwLjkwNjI1IDE0LjAzMTI1IEMgMC43Mjk2MzAxNCAxNC42MDI0OTUgMC41NjMwOTYzNCAxNS4xODg4MjggMC40Mzc1IDE1Ljc4MTI1IEMgMC4xNDY5MTQwNCAxNy4xNDI1NzggLTQuMzkwNjEzM2UtMTggMTguNTQ5NDY2IDAgMjAgTCAwIDIzMCBDIDAgMjQxLjA4IDguOTIgMjUwIDIwIDI1MCBMIDIzMCAyNTAgQyAyMzEuNDQwMDYgMjUwIDIzMi44MzUyNSAyNDkuODQ5MDEgMjM0LjE4NzUgMjQ5LjU2MjUgQyAyMzQuNzg5MDMgMjQ5LjQzNDk3IDIzNS4zODg2NiAyNDkuMjczODEgMjM1Ljk2ODc1IDI0OS4wOTM3NSBDIDIzNi40NDQ3NiAyNDguOTQ2IDIzNi45MTUwNSAyNDguNzc1MjYgMjM3LjM3NSAyNDguNTkzNzUgQyAyMzcuNjcxMjMgMjQ4LjQ3NjkzIDIzNy45NjA5NyAyNDguMzQ5MDggMjM4LjI1IDI0OC4yMTg3NSBDIDIzOC4yNzk4MSAyNDguMjA1MzEgMjM4LjMxNDAyIDI0OC4yMDEwOSAyMzguMzQzNzUgMjQ4LjE4NzUgQyAyMzguNzU4MzYgMjQ3Ljk5ODMgMjM5LjE2Mzc0IDI0Ny44MDk4MSAyMzkuNTYyNSAyNDcuNTkzNzUgQyAyMzkuNTgzMTggMjQ3LjU4MjU0IDIzOS42MDQzNiAyNDcuNTczNzggMjM5LjYyNSAyNDcuNTYyNSBDIDI0MC4xNjkyNSAyNDcuMjY1MTIgMjQwLjY3NTU4IDI0Ni45Mzg3MyAyNDEuMTg3NSAyNDYuNTkzNzUgQyAyNDEuNjY4NzggMjQ2LjI2OTQxIDI0Mi4xNDM1OSAyNDUuOTI2MzkgMjQyLjU5Mzc1IDI0NS41NjI1IEMgMjQyLjY0NDc0IDI0NS41MjEyOCAyNDIuNjk5NDMgMjQ1LjQ3OTIxIDI0Mi43NSAyNDUuNDM3NSBDIDI0Mi44NzY1MSAyNDUuMzMzMTggMjQzLjAwMTE1IDI0NS4yMzIzNSAyNDMuMTI1IDI0NS4xMjUgQyAyNDMuNDgyNjUgMjQ0LjgxNTM4IDI0My44MjE1NSAyNDQuNDkwMTkgMjQ0LjE1NjI1IDI0NC4xNTYyNSBDIDI0NC40OTIyOSAyNDMuODIwMjEgMjQ0LjgxMzU3IDI0My40ODQzIDI0NS4xMjUgMjQzLjEyNSBDIDI0NS4yMzE2NyAyNDMuMDAyMzQgMjQ1LjMzMzgxIDI0Mi44NzUyNyAyNDUuNDM3NSAyNDIuNzUgQyAyNDUuNDQyNzYgMjQyLjc0MzYyIDI0NS40MzIyNSAyNDIuNzI1MTMgMjQ1LjQzNzUgMjQyLjcxODc1IEMgMjQ1Ljg0MjQ5IDI0Mi4yMjgzIDI0Ni4yMzY0IDI0MS43MTU3NiAyNDYuNTkzNzUgMjQxLjE4NzUgQyAyNDYuOTM4MTIgMjQwLjY3ODQzIDI0Ny4yNjUzNiAyNDAuMTY2MjIgMjQ3LjU2MjUgMjM5LjYyNSBDIDI0Ny41NzM2MyAyMzkuNjA0NzIgMjQ3LjU4MjY4IDIzOS41ODI4MiAyNDcuNTkzNzUgMjM5LjU2MjUgQyAyNDcuODkxOTcgMjM5LjAxNDggMjQ4LjE1OTMxIDIzOC40NTIzOSAyNDguNDA2MjUgMjM3Ljg3NSBDIDI0OC40MTU1NCAyMzcuODUzMjggMjQ4LjQyODI5IDIzNy44MzQyNiAyNDguNDM3NSAyMzcuODEyNSBDIDI0OC40NDY0NCAyMzcuNzkxMjkgMjQ4LjQ1OTg4IDIzNy43NzEyNSAyNDguNDY4NzUgMjM3Ljc1IEMgMjQ4LjcwOTkyIDIzNy4xNzQ3NiAyNDguOTA2MjggMjM2LjU3MDA4IDI0OS4wOTM3NSAyMzUuOTY4NzUgQyAyNDkuMjczNzUgMjM1LjM5MTM3IDI0OS40MzQ2OCAyMzQuODE3NTQgMjQ5LjU2MjUgMjM0LjIxODc1IEMgMjQ5Ljg1MzA5IDIzMi44NTc0MiAyNTAgMjMxLjQ1MDUzIDI1MCAyMzAgTCAyNTAgMjAgQyAyNTAgOC45MiAyNDEuMDggLTMuMzUzNzk4N2UtMTcgMjMwIDAgTCAyMCAwIHogTSAzNC43ODEyNSAxOS40MDYyNSBMIDIyNS40Njg3NSAxOS40MDYyNSBDIDIyOC4zMDk0NiAxOS40MDYyNSAyMzAuNTkzNzUgMjEuNjkwNTQ0IDIzMC41OTM3NSAyNC41MzEyNSBMIDIzMC41OTM3NSAyMTUuMjUgTCAzNC43ODEyNSAxOS40MDYyNSB6IE0gMTkuNDA2MjUgMzQuNzUgTCAyMTUuMjE4NzUgMjMwLjU5Mzc1IEwgMjQuNTMxMjUgMjMwLjU5Mzc1IEMgMjEuNjkwNTQ0IDIzMC41OTM3NiAxOS40MDYyNSAyMjguMzA5NDYgMTkuNDA2MjUgMjI1LjQ2ODc1IEwgMTkuNDA2MjUgMzQuNzUgeiAiDQogICAgICAgaWQ9InBhdGgzMTk2IiAvPg0KICA8L2c+DQo8L3N2Zz4NCg==;strokeColor=none;points=[[0.44,1,0]];labelBackgroundColor=none;rounded=0;html=1;whiteSpace=wrap;" parent="1" vertex="1">
            <mxGeometry x="1020" y="764" width="102" height="49" as="geometry" />
          </mxCell>
        </UserObject>
        <mxCell id="34" value="&lt;div style=&quot;font-size: 1px&quot;&gt;&lt;p style=&quot;text-align:center;margin-left:0;margin-right:0;margin-top:0px;margin-bottom:0px;text-indent:0;vertical-align:top;direction:ltr;&quot;&gt;&lt;font style=&quot;font-size:14.11px;font-family:Calibri;color:#000000;direction:ltr;letter-spacing:0px;line-height:120%;opacity:1&quot;&gt;BL-11&lt;/font&gt;&lt;font style=&quot;font-size:14.11px;font-family:Arial;color:#000000;direction:ltr;letter-spacing:0px;line-height:120%;opacity:1&quot;&gt;&lt;br/&gt;&lt;/font&gt;&lt;/p&gt;&lt;/div&gt;" style="text;vsdxID=168;fillColor=none;gradientColor=none;aspect=fixed;strokeColor=none;points=[[0.44,1,0]];labelBackgroundColor=none;rounded=0;html=1;whiteSpace=wrap;verticalAlign=top;align=center;;html=1;" parent="33" vertex="1">
          <mxGeometry x="-41.02" y="49" width="179.46" as="geometry" />
        </mxCell>
        <UserObject label="" tags="Фон" id="35">
          <mxCell style="vsdxID=170;fillColor=none;gradientColor=none;image;aspect=fixed;image=data:image/svg+xml,PD94bWwgdmVyc2lvbj0iMS4wIiBlbmNvZGluZz0iVVRGLTgiIHN0YW5kYWxvbmU9Im5vIj8+DQo8IS0tIENyZWF0ZWQgd2l0aCBJbmtzY2FwZSAoaHR0cDovL3d3dy5pbmtzY2FwZS5vcmcvKSAtLT4NCjxzdmcNCiAgIHhtbG5zOmRjPSJodHRwOi8vcHVybC5vcmcvZGMvZWxlbWVudHMvMS4xLyINCiAgIHhtbG5zOmNjPSJodHRwOi8vY3JlYXRpdmVjb21tb25zLm9yZy9ucyMiDQogICB4bWxuczpyZGY9Imh0dHA6Ly93d3cudzMub3JnLzE5OTkvMDIvMjItcmRmLXN5bnRheC1ucyMiDQogICB4bWxuczpzdmc9Imh0dHA6Ly93d3cudzMub3JnLzIwMDAvc3ZnIg0KICAgeG1sbnM9Imh0dHA6Ly93d3cudzMub3JnLzIwMDAvc3ZnIg0KICAgeG1sbnM6c29kaXBvZGk9Imh0dHA6Ly9zb2RpcG9kaS5zb3VyY2Vmb3JnZS5uZXQvRFREL3NvZGlwb2RpLTAuZHRkIg0KICAgeG1sbnM6aW5rc2NhcGU9Imh0dHA6Ly93d3cuaW5rc2NhcGUub3JnL25hbWVzcGFjZXMvaW5rc2NhcGUiDQogICB3aWR0aD0iMjUwIg0KICAgaGVpZ2h0PSIyNTAiDQogICBpZD0ic3ZnMzMxOSINCiAgIHNvZGlwb2RpOnZlcnNpb249IjAuMzIiDQogICBpbmtzY2FwZTp2ZXJzaW9uPSIwLjQ2Ig0KICAgdmVyc2lvbj0iMS4wIg0KICAgc29kaXBvZGk6ZG9jbmFtZT0ibm9waG90b19pLnN2ZyINCiAgIGlua3NjYXBlOm91dHB1dF9leHRlbnNpb249Im9yZy5pbmtzY2FwZS5vdXRwdXQuc3ZnLmlua3NjYXBlIj4NCiAgPGRlZnMNCiAgICAgaWQ9ImRlZnMzMzIxIj4NCiAgICA8aW5rc2NhcGU6cGVyc3BlY3RpdmUNCiAgICAgICBzb2RpcG9kaTp0eXBlPSJpbmtzY2FwZTpwZXJzcDNkIg0KICAgICAgIGlua3NjYXBlOnZwX3g9IjAgOiA1MjYuMTgxMDkgOiAxIg0KICAgICAgIGlua3NjYXBlOnZwX3k9IjAgOiAxMDAwIDogMCINCiAgICAgICBpbmtzY2FwZTp2cF96PSI3NDQuMDk0NDggOiA1MjYuMTgxMDkgOiAxIg0KICAgICAgIGlua3NjYXBlOnBlcnNwM2Qtb3JpZ2luPSIzNzIuMDQ3MjQgOiAzNTAuNzg3MzkgOiAxIg0KICAgICAgIGlkPSJwZXJzcGVjdGl2ZTMzMjciIC8+DQogICAgPGlua3NjYXBlOnBlcnNwZWN0aXZlDQogICAgICAgaWQ9InBlcnNwZWN0aXZlMzM0MiINCiAgICAgICBpbmtzY2FwZTpwZXJzcDNkLW9yaWdpbj0iMzcyLjA0NzI0IDogMzUwLjc4NzM5IDogMSINCiAgICAgICBpbmtzY2FwZTp2cF96PSI3NDQuMDk0NDggOiA1MjYuMTgxMDkgOiAxIg0KICAgICAgIGlua3NjYXBlOnZwX3k9IjAgOiAxMDAwIDogMCINCiAgICAgICBpbmtzY2FwZTp2cF94PSIwIDogNTI2LjE4MTA5IDogMSINCiAgICAgICBzb2RpcG9kaTp0eXBlPSJpbmtzY2FwZTpwZXJzcDNkIiAvPg0KICA8L2RlZnM+DQogIDxzb2RpcG9kaTpuYW1lZHZpZXcNCiAgICAgaWQ9ImJhc2UiDQogICAgIHBhZ2Vjb2xvcj0iI2ZmZmZmZiINCiAgICAgYm9yZGVyY29sb3I9IiM2NjY2NjYiDQogICAgIGJvcmRlcm9wYWNpdHk9IjEuMCINCiAgICAgaW5rc2NhcGU6cGFnZW9wYWNpdHk9IjAuMCINCiAgICAgaW5rc2NhcGU6cGFnZXNoYWRvdz0iMiINCiAgICAgaW5rc2NhcGU6em9vbT0iMi4yNDI5NDI3Ig0KICAgICBpbmtzY2FwZTpjeD0iMTIxLjk3NjQ4Ig0KICAgICBpbmtzY2FwZTpjeT0iMTIyLjQ0MTk4Ig0KICAgICBpbmtzY2FwZTpkb2N1bWVudC11bml0cz0icHgiDQogICAgIGlua3NjYXBlOmN1cnJlbnQtbGF5ZXI9ImxheWVyMSINCiAgICAgc2hvd2dyaWQ9ImZhbHNlIg0KICAgICBpbmtzY2FwZTp3aW5kb3ctd2lkdGg9IjE2NjQiDQogICAgIGlua3NjYXBlOndpbmRvdy1oZWlnaHQ9Ijg0NCINCiAgICAgaW5rc2NhcGU6d2luZG93LXg9Ii0zIg0KICAgICBpbmtzY2FwZTp3aW5kb3cteT0iLTE4IiAvPg0KICA8bWV0YWRhdGENCiAgICAgaWQ9Im1ldGFkYXRhMzMyNCI+DQogICAgPHJkZjpSREY+DQogICAgICA8Y2M6V29yaw0KICAgICAgICAgcmRmOmFib3V0PSIiPg0KICAgICAgICA8ZGM6Zm9ybWF0PmltYWdlL3N2Zyt4bWw8L2RjOmZvcm1hdD4NCiAgICAgICAgPGRjOnR5cGUNCiAgICAgICAgICAgcmRmOnJlc291cmNlPSJodHRwOi8vcHVybC5vcmcvZGMvZGNtaXR5cGUvU3RpbGxJbWFnZSIgLz4NCiAgICAgICAgPGRjOnRpdGxlPkZvdG9ncmFmaWVydmVyYm90PC9kYzp0aXRsZT4NCiAgICAgICAgPGRjOmRhdGU+MjAwOC0wNi0yOTwvZGM6ZGF0ZT4NCiAgICAgICAgPGRjOmNyZWF0b3I+DQogICAgICAgICAgPGNjOkFnZW50Pg0KICAgICAgICAgICAgPGRjOnRpdGxlPlRvcnJzdGVuIFNrb21wPC9kYzp0aXRsZT4NCiAgICAgICAgICA8L2NjOkFnZW50Pg0KICAgICAgICA8L2RjOmNyZWF0b3I+DQogICAgICAgIDxkYzpyaWdodHM+DQogICAgICAgICAgPGNjOkFnZW50Pg0KICAgICAgICAgICAgPGRjOnRpdGxlPlRvcnN0ZW4gU2tvbXA8L2RjOnRpdGxlPg0KICAgICAgICAgIDwvY2M6QWdlbnQ+DQogICAgICAgIDwvZGM6cmlnaHRzPg0KICAgICAgICA8ZGM6cHVibGlzaGVyPg0KICAgICAgICAgIDxjYzpBZ2VudD4NCiAgICAgICAgICAgIDxkYzp0aXRsZT5Ub3JzdGVuIFNrb21wPC9kYzp0aXRsZT4NCiAgICAgICAgICA8L2NjOkFnZW50Pg0KICAgICAgICA8L2RjOnB1Ymxpc2hlcj4NCiAgICAgICAgPGRjOmxhbmd1YWdlPmRlX0RFPC9kYzpsYW5ndWFnZT4NCiAgICAgICAgPGRjOnN1YmplY3Q+DQogICAgICAgICAgPHJkZjpCYWc+DQogICAgICAgICAgICA8cmRmOmxpPlBpa3RvZ3JhbW07IEZvdG9ncmFmaWVydmVyYm90PC9yZGY6bGk+DQogICAgICAgICAgPC9yZGY6QmFnPg0KICAgICAgICA8L2RjOnN1YmplY3Q+DQogICAgICAgIDxkYzpkZXNjcmlwdGlvbj5Gb3RvZ3JhZmllcnZlcmJvdCBhbHMgUGlrdG9ncmFtbSA8L2RjOmRlc2NyaXB0aW9uPg0KICAgICAgICA8Y2M6bGljZW5zZQ0KICAgICAgICAgICByZGY6cmVzb3VyY2U9Imh0dHA6Ly9jcmVhdGl2ZWNvbW1vbnMub3JnL2xpY2Vuc2VzL3B1YmxpY2RvbWFpbi8iIC8+DQogICAgICA8L2NjOldvcms+DQogICAgICA8Y2M6TGljZW5zZQ0KICAgICAgICAgcmRmOmFib3V0PSJodHRwOi8vY3JlYXRpdmVjb21tb25zLm9yZy9saWNlbnNlcy9wdWJsaWNkb21haW4vIj4NCiAgICAgICAgPGNjOnBlcm1pdHMNCiAgICAgICAgICAgcmRmOnJlc291cmNlPSJodHRwOi8vY3JlYXRpdmVjb21tb25zLm9yZy9ucyNSZXByb2R1Y3Rpb24iIC8+DQogICAgICAgIDxjYzpwZXJtaXRzDQogICAgICAgICAgIHJkZjpyZXNvdXJjZT0iaHR0cDovL2NyZWF0aXZlY29tbW9ucy5vcmcvbnMjRGlzdHJpYnV0aW9uIiAvPg0KICAgICAgICA8Y2M6cGVybWl0cw0KICAgICAgICAgICByZGY6cmVzb3VyY2U9Imh0dHA6Ly9jcmVhdGl2ZWNvbW1vbnMub3JnL25zI0Rlcml2YXRpdmVXb3JrcyIgLz4NCiAgICAgIDwvY2M6TGljZW5zZT4NCiAgICA8L3JkZjpSREY+DQogIDwvbWV0YWRhdGE+DQogIDxnDQogICAgIGlua3NjYXBlOmxhYmVsPSJFYmVuZSAxIg0KICAgICBpbmtzY2FwZTpncm91cG1vZGU9ImxheWVyIg0KICAgICBpZD0ibGF5ZXIxIj4NCiAgICA8cGF0aA0KICAgICAgIHN0eWxlPSJmaWxsOiMwMDAwMDA7ZmlsbC1vcGFjaXR5OjEiDQogICAgICAgZD0iTSAxNjQuNTMxMjUgNjIuNjg3NSBDIDE2Mi43OTExNSA2Mi42ODc1MDEgMTYxLjM3NSA2NC4wNzI0MTYgMTYxLjM3NSA2NS44MTI1IEwgMTYxLjM3NSA2OC43NSBMIDM4LjM3NSA2OC43NSBDIDM1LjA5MjI5OCA2OC43NDk5OTkgMzIuNDY4NzUgNzEuMzczNTQ4IDMyLjQ2ODc1IDc0LjY1NjI1IEwgMzIuNDY4NzUgMTgxLjM3NSBDIDMyLjQ2ODc1IDE4NC42NTc3IDM1LjA5MjMwNyAxODcuMzEyNTEgMzguMzc1IDE4Ny4zMTI1IEwgMjExLjYyNSAxODcuMzEyNSBDIDIxNC45MDc2OSAxODcuMzEyNSAyMTcuNTMxMjcgMTg0LjY1NzcgMjE3LjUzMTI1IDE4MS4zNzUgTCAyMTcuNTMxMjUgNzQuNjU2MjUgQyAyMTcuNTMxMjUgNzEuMzczNTUxIDIxNC45MDc2OCA2OC43NSAyMTEuNjI1IDY4Ljc1IEwgMjAyLjA2MjUgNjguNzUgTCAyMDIuMDYyNSA2NS44MTI1IEMgMjAyLjA2MjUgNjQuMDcyNDEgMjAwLjY0NjM1IDYyLjY4NzUgMTk4LjkwNjI1IDYyLjY4NzUgTCAxNjQuNTMxMjUgNjIuNjg3NSB6IE0gNDYuODEyNSA3OCBMIDg4LjY1NjI1IDc4IEMgOTAuMzk2MzQyIDc4IDkxLjgxMjUgNzkuMzg0OTA3IDkxLjgxMjUgODEuMTI1IEwgOTEuODEyNSA5Ni4zMTI1IEMgOTEuODEyNSA5OC4wNTI1OTIgOTAuMzk2MzQzIDk5LjQzNzUgODguNjU2MjUgOTkuNDM3NSBMIDQ2LjgxMjUgOTkuNDM3NSBDIDQ1LjA3MjQwOCA5OS40Mzc1IDQzLjY4NzUgOTguMDUyNTkzIDQzLjY4NzUgOTYuMzEyNSBMIDQzLjY4NzUgODEuMTI1IEMgNDMuNjg3NSA3OS4zODQ5MDggNDUuMDcyNDA3IDc4IDQ2LjgxMjUgNzggeiBNIDE0NiA4OC4yMTg3NSBDIDE2Ny43MzQ3NSA4OC4yMTg3NTMgMTg1LjM3NSAxMDYuMTUwNzEgMTg1LjM3NSAxMjguMjUgQyAxODUuMzc0OTkgMTUwLjM0OTI4IDE2Ny43MzQ3NCAxNjguMjgxMjUgMTQ2IDE2OC4yODEyNSBDIDEyNC4yNjUyNyAxNjguMjgxMjYgMTA2LjYyNSAxNTAuMzQ5MjkgMTA2LjYyNSAxMjguMjUgQyAxMDYuNjI1IDEwNi4xNTA3MSAxMjQuMjY1MjYgODguMjE4NzUgMTQ2IDg4LjIxODc1IHogTSAxNDYgOTEuNzE4NzUgQyAxMjYuMTY1NTcgOTEuNzE4NzUgMTEwLjA2MjUgMTA4LjA4Mjg5IDExMC4wNjI1IDEyOC4yNSBDIDExMC4wNjI1IDE0OC40MTcxMSAxMjYuMTY1NTcgMTY0Ljc4MTI2IDE0NiAxNjQuNzgxMjUgQyAxNjUuODM0NDMgMTY0Ljc4MTI1IDE4MS45Mzc1IDE0OC40MTcxIDE4MS45Mzc1IDEyOC4yNSBDIDE4MS45Mzc1IDEwOC4wODI4OSAxNjUuODM0NDMgOTEuNzE4NzUgMTQ2IDkxLjcxODc1IHogTSAxNDYgOTYuNTkzNzUgQyAxNjMuMTc3NjggOTYuNTkzNzUyIDE3Ny4xMjUgMTEwLjc4NDIgMTc3LjEyNSAxMjguMjUgQyAxNzcuMTI0OTkgMTQ1LjcxNTggMTYzLjE3NzY5IDE1OS44NzUgMTQ2IDE1OS44NzUgQyAxMjguODIyMzEgMTU5Ljg3NSAxMTQuODc1IDE0NS43MTU4IDExNC44NzUgMTI4LjI1IEMgMTE0Ljg3NSAxMTAuNzg0MTkgMTI4LjgyMjMxIDk2LjU5Mzc1IDE0NiA5Ni41OTM3NSB6IE0gMTc2LjUgMTcyLjcxODc1IEwgMjA2LjE4NzUgMTcyLjcxODc1IEMgMjA3LjQyMTM4IDE3Mi43MTg3NSAyMDguNDA2MjUgMTczLjEyNzgzIDIwOC40MDYyNSAxNzMuNjI1IEwgMjA4LjQwNjI1IDE3Ny45Njg3NSBDIDIwOC40MDYyNSAxNzguNDY1OTIgMjA3LjQyMTM4IDE3OC44NDM3NSAyMDYuMTg3NSAxNzguODQzNzUgTCAxNzYuNSAxNzguODQzNzUgQyAxNzUuMjY2MTEgMTc4Ljg0Mzc1IDE3NC4yODEyNSAxNzguNDY1OTIgMTc0LjI4MTI1IDE3Ny45Njg3NSBMIDE3NC4yODEyNSAxNzMuNjI1IEMgMTc0LjI4MTI1IDE3My4xMjc4MyAxNzUuMjY2MTIgMTcyLjcxODc1IDE3Ni41IDE3Mi43MTg3NSB6ICINCiAgICAgICBpZD0icmVjdDMyMDkiIC8+DQogICAgPHBhdGgNCiAgICAgICBzdHlsZT0iZmlsbDojYzQyNjFkO2ZpbGwtb3BhY2l0eToxIg0KICAgICAgIGQ9Ik0gMjAgMCBDIDE4LjU1OTkzOCAwIDE3LjE2NDc0NyAwLjE1MDk4NjY2IDE1LjgxMjUgMC40Mzc1IEMgMTUuMjEwMjkxIDAuNTY1MTk1NzggMTQuNjExOTEzIDAuNzI2MjExMjYgMTQuMDMxMjUgMC45MDYyNSBDIDEzLjU1NDc3MyAxLjA1Mzk4NTIgMTMuMDg1MzQ5IDEuMjI0ODUzNiAxMi42MjUgMS40MDYyNSBDIDEyLjMyODc2NiAxLjUyMzA3MzkgMTIuMDM5MDMzIDEuNjUwOTE4MiAxMS43NSAxLjc4MTI1IEMgMTEuMzQ3Mjc4IDEuOTYyMzU5OCAxMC45NTA0MDYgMi4xMzc0MTY1IDEwLjU2MjUgMi4zNDM3NSBDIDEwLjUyMTU1NSAyLjM2NTU2ODggMTAuNDc4MjczIDIuMzg0MTU1NSAxMC40Mzc1IDIuNDA2MjUgQyAxMC40MTY5MzQgMi40MTczNzU0IDEwLjM5NTUyMiAyLjQyNjMwNDkgMTAuMzc1IDIuNDM3NSBDIDkuODMyNjg2MSAyLjczMzM0NDYgOS4zMjI2NDQ4IDMuMDYzMjQ1MiA4LjgxMjUgMy40MDYyNSBDIDguMjgzMTIyMSAzLjc2MjE4NjUgNy43NzI3NzI4IDQuMTU4OTIwOSA3LjI4MTI1IDQuNTYyNSBDIDcuMjc1MDU1IDQuNTY3NTg2NiA3LjI1NjE4ODggNC41NTc0MDYxIDcuMjUgNC41NjI1IEMgNy4yMzg1NDc5IDQuNTcxOTQzNCA3LjIzMDE4MDYgNC41ODQyODE2IDcuMjE4NzUgNC41OTM3NSBDIDcuMTA0NzM1MiA0LjY4ODAxNTkgNi45ODY4NTA3IDQuNzc4MjY4NyA2Ljg3NSA0Ljg3NSBDIDYuNTE1NzAyMSA1LjE4NjQyNjQgNi4xNzk3OTA5IDUuNTA3NzA5MSA1Ljg0Mzc1IDUuODQzNzUgQyA1LjQwNDQwMjUgNi4yODE4MDc4IDQuOTkwNzQ0OSA2Ljc0MTM1NTQgNC41OTM3NSA3LjIxODc1IEMgNC41NzkwMDg2IDcuMjM2NTQ2MiA0LjU3NzE4MDYgNy4yNjM0MDE1IDQuNTYyNSA3LjI4MTI1IEMgMy43Njc0ODk4IDguMjQzOTE4MSAzLjA0MjI3MjEgOS4yNzE4NzA1IDIuNDM3NSAxMC4zNzUgQyAyLjQyNjIyMzIgMTAuMzk1NjM1IDIuNDE3NDU2MSAxMC40MTY4MiAyLjQwNjI1IDEwLjQzNzUgQyAyLjEwODM5MDggMTAuOTg1MzQ4IDEuODQwMjIzMyAxMS41NDcyMTQgMS41OTM3NSAxMi4xMjUgQyAxLjU3NTU4NjUgMTIuMTY3NjY1IDEuNTQ5MTI1NSAxMi4yMDcxODIgMS41MzEyNSAxMi4yNSBDIDEuMjg3NzEzMSAxMi44MzI0MzMgMS4wOTQ2NzU0IDEzLjQyMTgyMiAwLjkwNjI1IDE0LjAzMTI1IEMgMC43Mjk2MzAxNCAxNC42MDI0OTUgMC41NjMwOTYzNCAxNS4xODg4MjggMC40Mzc1IDE1Ljc4MTI1IEMgMC4xNDY5MTQwNCAxNy4xNDI1NzggLTQuMzkwNjEzM2UtMTggMTguNTQ5NDY2IDAgMjAgTCAwIDIzMCBDIDAgMjQxLjA4IDguOTIgMjUwIDIwIDI1MCBMIDIzMCAyNTAgQyAyMzEuNDQwMDYgMjUwIDIzMi44MzUyNSAyNDkuODQ5MDEgMjM0LjE4NzUgMjQ5LjU2MjUgQyAyMzQuNzg5MDMgMjQ5LjQzNDk3IDIzNS4zODg2NiAyNDkuMjczODEgMjM1Ljk2ODc1IDI0OS4wOTM3NSBDIDIzNi40NDQ3NiAyNDguOTQ2IDIzNi45MTUwNSAyNDguNzc1MjYgMjM3LjM3NSAyNDguNTkzNzUgQyAyMzcuNjcxMjMgMjQ4LjQ3NjkzIDIzNy45NjA5NyAyNDguMzQ5MDggMjM4LjI1IDI0OC4yMTg3NSBDIDIzOC4yNzk4MSAyNDguMjA1MzEgMjM4LjMxNDAyIDI0OC4yMDEwOSAyMzguMzQzNzUgMjQ4LjE4NzUgQyAyMzguNzU4MzYgMjQ3Ljk5ODMgMjM5LjE2Mzc0IDI0Ny44MDk4MSAyMzkuNTYyNSAyNDcuNTkzNzUgQyAyMzkuNTgzMTggMjQ3LjU4MjU0IDIzOS42MDQzNiAyNDcuNTczNzggMjM5LjYyNSAyNDcuNTYyNSBDIDI0MC4xNjkyNSAyNDcuMjY1MTIgMjQwLjY3NTU4IDI0Ni45Mzg3MyAyNDEuMTg3NSAyNDYuNTkzNzUgQyAyNDEuNjY4NzggMjQ2LjI2OTQxIDI0Mi4xNDM1OSAyNDUuOTI2MzkgMjQyLjU5Mzc1IDI0NS41NjI1IEMgMjQyLjY0NDc0IDI0NS41MjEyOCAyNDIuNjk5NDMgMjQ1LjQ3OTIxIDI0Mi43NSAyNDUuNDM3NSBDIDI0Mi44NzY1MSAyNDUuMzMzMTggMjQzLjAwMTE1IDI0NS4yMzIzNSAyNDMuMTI1IDI0NS4xMjUgQyAyNDMuNDgyNjUgMjQ0LjgxNTM4IDI0My44MjE1NSAyNDQuNDkwMTkgMjQ0LjE1NjI1IDI0NC4xNTYyNSBDIDI0NC40OTIyOSAyNDMuODIwMjEgMjQ0LjgxMzU3IDI0My40ODQzIDI0NS4xMjUgMjQzLjEyNSBDIDI0NS4yMzE2NyAyNDMuMDAyMzQgMjQ1LjMzMzgxIDI0Mi44NzUyNyAyNDUuNDM3NSAyNDIuNzUgQyAyNDUuNDQyNzYgMjQyLjc0MzYyIDI0NS40MzIyNSAyNDIuNzI1MTMgMjQ1LjQzNzUgMjQyLjcxODc1IEMgMjQ1Ljg0MjQ5IDI0Mi4yMjgzIDI0Ni4yMzY0IDI0MS43MTU3NiAyNDYuNTkzNzUgMjQxLjE4NzUgQyAyNDYuOTM4MTIgMjQwLjY3ODQzIDI0Ny4yNjUzNiAyNDAuMTY2MjIgMjQ3LjU2MjUgMjM5LjYyNSBDIDI0Ny41NzM2MyAyMzkuNjA0NzIgMjQ3LjU4MjY4IDIzOS41ODI4MiAyNDcuNTkzNzUgMjM5LjU2MjUgQyAyNDcuODkxOTcgMjM5LjAxNDggMjQ4LjE1OTMxIDIzOC40NTIzOSAyNDguNDA2MjUgMjM3Ljg3NSBDIDI0OC40MTU1NCAyMzcuODUzMjggMjQ4LjQyODI5IDIzNy44MzQyNiAyNDguNDM3NSAyMzcuODEyNSBDIDI0OC40NDY0NCAyMzcuNzkxMjkgMjQ4LjQ1OTg4IDIzNy43NzEyNSAyNDguNDY4NzUgMjM3Ljc1IEMgMjQ4LjcwOTkyIDIzNy4xNzQ3NiAyNDguOTA2MjggMjM2LjU3MDA4IDI0OS4wOTM3NSAyMzUuOTY4NzUgQyAyNDkuMjczNzUgMjM1LjM5MTM3IDI0OS40MzQ2OCAyMzQuODE3NTQgMjQ5LjU2MjUgMjM0LjIxODc1IEMgMjQ5Ljg1MzA5IDIzMi44NTc0MiAyNTAgMjMxLjQ1MDUzIDI1MCAyMzAgTCAyNTAgMjAgQyAyNTAgOC45MiAyNDEuMDggLTMuMzUzNzk4N2UtMTcgMjMwIDAgTCAyMCAwIHogTSAzNC43ODEyNSAxOS40MDYyNSBMIDIyNS40Njg3NSAxOS40MDYyNSBDIDIyOC4zMDk0NiAxOS40MDYyNSAyMzAuNTkzNzUgMjEuNjkwNTQ0IDIzMC41OTM3NSAyNC41MzEyNSBMIDIzMC41OTM3NSAyMTUuMjUgTCAzNC43ODEyNSAxOS40MDYyNSB6IE0gMTkuNDA2MjUgMzQuNzUgTCAyMTUuMjE4NzUgMjMwLjU5Mzc1IEwgMjQuNTMxMjUgMjMwLjU5Mzc1IEMgMjEuNjkwNTQ0IDIzMC41OTM3NiAxOS40MDYyNSAyMjguMzA5NDYgMTkuNDA2MjUgMjI1LjQ2ODc1IEwgMTkuNDA2MjUgMzQuNzUgeiAiDQogICAgICAgaWQ9InBhdGgzMTk2IiAvPg0KICA8L2c+DQo8L3N2Zz4NCg==;strokeColor=none;points=[[0.43,1,0]];labelBackgroundColor=none;rounded=0;html=1;whiteSpace=wrap;" parent="1" vertex="1">
            <mxGeometry x="1335" y="765" width="102" height="49" as="geometry" />
          </mxCell>
        </UserObject>
        <mxCell id="36" value="&lt;div style=&quot;font-size: 1px&quot;&gt;&lt;p style=&quot;text-align:center;margin-left:0;margin-right:0;margin-top:0px;margin-bottom:0px;text-indent:0;vertical-align:top;direction:ltr;&quot;&gt;&lt;font style=&quot;font-size:14.11px;font-family:Calibri;color:#000000;direction:ltr;letter-spacing:0px;line-height:120%;opacity:1&quot;&gt;BL-21&lt;/font&gt;&lt;font style=&quot;font-size:14.11px;font-family:Arial;color:#000000;direction:ltr;letter-spacing:0px;line-height:120%;opacity:1&quot;&gt;&lt;br/&gt;&lt;/font&gt;&lt;/p&gt;&lt;/div&gt;" style="text;vsdxID=170;fillColor=none;gradientColor=none;aspect=fixed;strokeColor=none;points=[[0.43,1,0]];labelBackgroundColor=none;rounded=0;html=1;whiteSpace=wrap;verticalAlign=top;align=center;;html=1;" parent="35" vertex="1">
          <mxGeometry x="-41.02" y="49" width="179.46" as="geometry" />
        </mxCell>
        <UserObject label="&lt;div style=&quot;font-size: 1px&quot;&gt;&lt;p style=&quot;text-align:center;margin-left:0;margin-right:0;margin-top:0px;margin-bottom:0px;text-indent:0;vertical-align:middle;direction:ltr;&quot;&gt;&lt;font style=&quot;font-size:11.29px;font-family:Calibri;color:#000000;direction:ltr;letter-spacing:0px;line-height:120%;opacity:1&quot;&gt;Vlan 200&lt;br/&gt;&lt;/font&gt;&lt;/p&gt;&lt;p style=&quot;text-align:center;margin-left:0;margin-right:0;margin-top:0px;margin-bottom:0px;text-indent:0;vertical-align:middle;direction:ltr;&quot;&gt;&lt;font style=&quot;font-size:11.29px;font-family:Calibri;color:#000000;direction:ltr;letter-spacing:0px;line-height:120%;opacity:1&quot;&gt;Anycast gw 10.1.0.1/29&lt;br/&gt;&lt;/font&gt;&lt;/p&gt;&lt;/div&gt;" tags="Соединительная_линия" id="100">
          <mxCell style="vsdxID=171;edgeStyle=none;startArrow=none;endArrow=none;startSize=5;endSize=5;strokeWidth=2;strokeColor=#ff0000;spacingTop=0;spacingBottom=0;spacingLeft=0;spacingRight=0;verticalAlign=middle;html=1;labelBackgroundColor=#FFFFFF;rounded=0;align=center;" parent="1" edge="1">
            <mxGeometry relative="1" as="geometry">
              <mxPoint x="20" y="-1" as="offset" />
              <Array as="points" />
              <mxPoint x="1049" y="647" as="sourcePoint" />
              <mxPoint x="1401" y="646" as="targetPoint" />
            </mxGeometry>
          </mxCell>
        </UserObject>
        <UserObject label="" tags="Фон" id="37">
          <mxCell style="vsdxID=176;fillColor=none;gradientColor=none;strokeColor=none;points=[[0.5,0.5,0]];labelBackgroundColor=none;rounded=0;html=1;whiteSpace=wrap;" parent="1" vertex="1">
            <mxGeometry x="1090" y="458" width="42" height="71" as="geometry" />
          </mxCell>
        </UserObject>
        <mxCell id="38" style="vsdxID=177;fillColor=#FF00FF;gradientColor=#FF00FF;fillOpacity=0;strokeOpacity=0;shape=stencil(jZHdDsIgDIWfprcE2zn0es73WDImRISF4d/bC5LFucS5u9P2a3NyClQNquklIB+Cd2d5121QQAdA1FZJr0NUQDVQ1TkvT95dbZvrvklkUhd3SxceeU8QI0pbyJ+5s+H8XR8zbrSd4ONwhPec7dbTuGXFbxpLVoovfsHIzAbDtagoljz8jSOKT5SdNiZ/YjqfRx9b+W1UvwA=);points=[[0.5,0.5,0]];labelBackgroundColor=none;rounded=0;html=1;whiteSpace=wrap;" parent="37" vertex="1">
          <mxGeometry width="42" height="71" as="geometry" />
        </mxCell>
        <mxCell id="39" value="&lt;div style=&quot;font-size: 1px&quot;&gt;&lt;/div&gt;" style="verticalAlign=middle;align=center;overflow=width;vsdxID=178;fillColor=#e7e4cd;gradientColor=#ff6600;shape=stencil(UzV2Ls5ILEhVNTIoLinKz04tz0wpyVA1dlE1MsrMy0gtyiwBslSNXVWNndPyi1LTi/JL81Ig/IJEkEoQKze/DGRCBUSfAUiHkUElhGdopGcGFnCDqM3JzMOt1sAAt1KYJEyxhbmemTnxyvGYjN/BQAbCp2mZOTnIMuhhAhSChKexKwA=);strokeColor=#ffffff;spacingTop=-3;spacingBottom=-3;spacingLeft=-3;spacingRight=-3;points=[[0.5,0.5,0]];labelBackgroundColor=none;rounded=0;html=1;whiteSpace=wrap;" parent="37" vertex="1">
          <mxGeometry x="31" y="18" width="11" height="53" as="geometry" />
        </mxCell>
        <mxCell id="40" value="&lt;div style=&quot;font-size: 1px&quot;&gt;&lt;/div&gt;" style="verticalAlign=middle;align=center;overflow=width;vsdxID=179;fillColor=#e7e4cd;gradientColor=#ff6600;gradientDirection=north;shape=stencil(hZDdDoIwDIWfprfLbAkL14jvQcJgi3MjY6K+vRsLEUzQu9P2O/0DqifVjhKQT8G7q3zoLiigMyBqq6TXISqgBqjunZeDd3fb5XhsE5nUzc2pwzP7eHIgf+UIS1YUS+aSYaPtBhbEiHaGE+fH+FpcYYGsqo7xOLwUO8OP3n/2juJzca+N2Va+fxNT+a/UvAE=);strokeColor=#ffffff;spacingTop=-3;spacingBottom=-3;spacingLeft=-3;spacingRight=-3;points=[[0.5,0.5,0]];labelBackgroundColor=none;rounded=0;html=1;whiteSpace=wrap;" parent="37" vertex="1">
          <mxGeometry width="42" height="24" as="geometry" />
        </mxCell>
        <mxCell id="41" value="&lt;div style=&quot;font-size: 1px&quot;&gt;&lt;/div&gt;" style="verticalAlign=middle;align=center;overflow=width;vsdxID=180;fillColor=#e7e4cd;gradientColor=#ff6600;shape=stencil(UzV2Ls5ILEhVNTIoLinKz04tz0wpyVA1dlE1MsrMy0gtyiwBslSNXVWNndPyi1LTi/JL81Ig/IJEkEoQKze/DGRCBUSfAUiHkUElhGduqGdhCBZxgyjOycxDUmxogKocxidKsZGFnqElbuWoivGYS8DFQAbCr2mZOTnIMuihAhSChKixKwA=);strokeColor=#000000;spacingTop=-3;spacingBottom=-3;spacingLeft=-3;spacingRight=-3;points=[[0.5,0.5,0]];labelBackgroundColor=none;rounded=0;html=1;whiteSpace=wrap;" parent="37" vertex="1">
          <mxGeometry y="6" width="31" height="64" as="geometry" />
        </mxCell>
        <mxCell id="42" style="vsdxID=181;fillColor=#e7e4cd;gradientColor=#ff6600;shape=stencil(lVTNbsMgDH4arhbYGMi5696jUrMl2pZUabqtb1+iiI6UFcHNJN+PMbYF7c7d4dQKlOd5Gj/an/44d4JeBGI/dO3Uzz4StBe0exun9n0aL8NxPZ8OC3KJvsbvReF35cmFgfIan15X4Gc/REBroMENGC1Yfk5QcqutGjAYw7eJVOunhOD4r/5DMhjIhdpagrGl6sjgdI06E3BTqk4OrKlRNwZYlaozgqqqum2gOHXDIG2NeIPgMk3DJiR7zwYBM+mnBMegMg+rCNyWwBZ0pnVSgpVA9NyBdJiLu4OCjEGKNzrbPemdtQGtaorELlyqsEikIGOQ4rUfAF1TIz9ilBmClOCnBl3VOwNmDFK88usqxvvgb+mu+zr+97ig/ad1udP+Bg==);strokeColor=#e7e4cd;points=[[0.5,0.5,0]];labelBackgroundColor=none;rounded=0;html=1;whiteSpace=wrap;" parent="37" vertex="1">
          <mxGeometry x="2" y="8" width="37" height="59" as="geometry" />
        </mxCell>
        <mxCell id="43" value="&lt;div style=&quot;font-size: 1px&quot;&gt;&lt;/div&gt;" style="verticalAlign=middle;align=center;overflow=width;vsdxID=182;fillColor=#000000;gradientColor=none;shape=stencil(jZHdDoIwDIWfprdLbRH0GvE9SJhuUTcy5t/bu7kQYYmEu9P2a3NyClwPqu0lEA7e2Yt86s4r4AMQaaOk0z4o4Aa4Plknz87eTZfqvo1kVDf7iBdeaQ/jBuE7VVUhim/jmNirNhO2YsE84zeI//FxOMJ7FLv1NG2XrFApymrGLxjJbAhai+ZxBPHLMb1gOsszD630L24+);strokeColor=#000000;strokeWidth=2;spacingTop=-3;spacingBottom=-3;spacingLeft=-3;spacingRight=-3;points=[[0.5,0.5,0]];labelBackgroundColor=none;rounded=0;html=1;whiteSpace=wrap;" parent="37" vertex="1">
          <mxGeometry width="42" height="71" as="geometry" />
        </mxCell>
        <mxCell id="44" value="&lt;div style=&quot;font-size: 1px&quot;&gt;&lt;/div&gt;" style="text;vsdxID=176;fillColor=none;gradientColor=none;strokeColor=none;points=[[0.5,0.5,0]];labelBackgroundColor=none;rounded=0;html=1;whiteSpace=wrap;verticalAlign=middle;align=center;overflow=width;;html=1;" parent="37" vertex="1">
          <mxGeometry x="-92.96" y="27.43" width="11.29" height="31.61" as="geometry" />
        </mxCell>
        <UserObject label="" tags="Фон" id="45">
          <mxCell style="vsdxID=183;fillColor=none;gradientColor=none;image;aspect=fixed;image=data:image/svg+xml,PD94bWwgdmVyc2lvbj0iMS4wIiBlbmNvZGluZz0iVVRGLTgiIHN0YW5kYWxvbmU9Im5vIj8+DQo8IS0tIENyZWF0ZWQgd2l0aCBJbmtzY2FwZSAoaHR0cDovL3d3dy5pbmtzY2FwZS5vcmcvKSAtLT4NCjxzdmcNCiAgIHhtbG5zOmRjPSJodHRwOi8vcHVybC5vcmcvZGMvZWxlbWVudHMvMS4xLyINCiAgIHhtbG5zOmNjPSJodHRwOi8vY3JlYXRpdmVjb21tb25zLm9yZy9ucyMiDQogICB4bWxuczpyZGY9Imh0dHA6Ly93d3cudzMub3JnLzE5OTkvMDIvMjItcmRmLXN5bnRheC1ucyMiDQogICB4bWxuczpzdmc9Imh0dHA6Ly93d3cudzMub3JnLzIwMDAvc3ZnIg0KICAgeG1sbnM9Imh0dHA6Ly93d3cudzMub3JnLzIwMDAvc3ZnIg0KICAgeG1sbnM6c29kaXBvZGk9Imh0dHA6Ly9zb2RpcG9kaS5zb3VyY2Vmb3JnZS5uZXQvRFREL3NvZGlwb2RpLTAuZHRkIg0KICAgeG1sbnM6aW5rc2NhcGU9Imh0dHA6Ly93d3cuaW5rc2NhcGUub3JnL25hbWVzcGFjZXMvaW5rc2NhcGUiDQogICB3aWR0aD0iMjUwIg0KICAgaGVpZ2h0PSIyNTAiDQogICBpZD0ic3ZnMzMxOSINCiAgIHNvZGlwb2RpOnZlcnNpb249IjAuMzIiDQogICBpbmtzY2FwZTp2ZXJzaW9uPSIwLjQ2Ig0KICAgdmVyc2lvbj0iMS4wIg0KICAgc29kaXBvZGk6ZG9jbmFtZT0ibm9waG90b19pLnN2ZyINCiAgIGlua3NjYXBlOm91dHB1dF9leHRlbnNpb249Im9yZy5pbmtzY2FwZS5vdXRwdXQuc3ZnLmlua3NjYXBlIj4NCiAgPGRlZnMNCiAgICAgaWQ9ImRlZnMzMzIxIj4NCiAgICA8aW5rc2NhcGU6cGVyc3BlY3RpdmUNCiAgICAgICBzb2RpcG9kaTp0eXBlPSJpbmtzY2FwZTpwZXJzcDNkIg0KICAgICAgIGlua3NjYXBlOnZwX3g9IjAgOiA1MjYuMTgxMDkgOiAxIg0KICAgICAgIGlua3NjYXBlOnZwX3k9IjAgOiAxMDAwIDogMCINCiAgICAgICBpbmtzY2FwZTp2cF96PSI3NDQuMDk0NDggOiA1MjYuMTgxMDkgOiAxIg0KICAgICAgIGlua3NjYXBlOnBlcnNwM2Qtb3JpZ2luPSIzNzIuMDQ3MjQgOiAzNTAuNzg3MzkgOiAxIg0KICAgICAgIGlkPSJwZXJzcGVjdGl2ZTMzMjciIC8+DQogICAgPGlua3NjYXBlOnBlcnNwZWN0aXZlDQogICAgICAgaWQ9InBlcnNwZWN0aXZlMzM0MiINCiAgICAgICBpbmtzY2FwZTpwZXJzcDNkLW9yaWdpbj0iMzcyLjA0NzI0IDogMzUwLjc4NzM5IDogMSINCiAgICAgICBpbmtzY2FwZTp2cF96PSI3NDQuMDk0NDggOiA1MjYuMTgxMDkgOiAxIg0KICAgICAgIGlua3NjYXBlOnZwX3k9IjAgOiAxMDAwIDogMCINCiAgICAgICBpbmtzY2FwZTp2cF94PSIwIDogNTI2LjE4MTA5IDogMSINCiAgICAgICBzb2RpcG9kaTp0eXBlPSJpbmtzY2FwZTpwZXJzcDNkIiAvPg0KICA8L2RlZnM+DQogIDxzb2RpcG9kaTpuYW1lZHZpZXcNCiAgICAgaWQ9ImJhc2UiDQogICAgIHBhZ2Vjb2xvcj0iI2ZmZmZmZiINCiAgICAgYm9yZGVyY29sb3I9IiM2NjY2NjYiDQogICAgIGJvcmRlcm9wYWNpdHk9IjEuMCINCiAgICAgaW5rc2NhcGU6cGFnZW9wYWNpdHk9IjAuMCINCiAgICAgaW5rc2NhcGU6cGFnZXNoYWRvdz0iMiINCiAgICAgaW5rc2NhcGU6em9vbT0iMi4yNDI5NDI3Ig0KICAgICBpbmtzY2FwZTpjeD0iMTIxLjk3NjQ4Ig0KICAgICBpbmtzY2FwZTpjeT0iMTIyLjQ0MTk4Ig0KICAgICBpbmtzY2FwZTpkb2N1bWVudC11bml0cz0icHgiDQogICAgIGlua3NjYXBlOmN1cnJlbnQtbGF5ZXI9ImxheWVyMSINCiAgICAgc2hvd2dyaWQ9ImZhbHNlIg0KICAgICBpbmtzY2FwZTp3aW5kb3ctd2lkdGg9IjE2NjQiDQogICAgIGlua3NjYXBlOndpbmRvdy1oZWlnaHQ9Ijg0NCINCiAgICAgaW5rc2NhcGU6d2luZG93LXg9Ii0zIg0KICAgICBpbmtzY2FwZTp3aW5kb3cteT0iLTE4IiAvPg0KICA8bWV0YWRhdGENCiAgICAgaWQ9Im1ldGFkYXRhMzMyNCI+DQogICAgPHJkZjpSREY+DQogICAgICA8Y2M6V29yaw0KICAgICAgICAgcmRmOmFib3V0PSIiPg0KICAgICAgICA8ZGM6Zm9ybWF0PmltYWdlL3N2Zyt4bWw8L2RjOmZvcm1hdD4NCiAgICAgICAgPGRjOnR5cGUNCiAgICAgICAgICAgcmRmOnJlc291cmNlPSJodHRwOi8vcHVybC5vcmcvZGMvZGNtaXR5cGUvU3RpbGxJbWFnZSIgLz4NCiAgICAgICAgPGRjOnRpdGxlPkZvdG9ncmFmaWVydmVyYm90PC9kYzp0aXRsZT4NCiAgICAgICAgPGRjOmRhdGU+MjAwOC0wNi0yOTwvZGM6ZGF0ZT4NCiAgICAgICAgPGRjOmNyZWF0b3I+DQogICAgICAgICAgPGNjOkFnZW50Pg0KICAgICAgICAgICAgPGRjOnRpdGxlPlRvcnJzdGVuIFNrb21wPC9kYzp0aXRsZT4NCiAgICAgICAgICA8L2NjOkFnZW50Pg0KICAgICAgICA8L2RjOmNyZWF0b3I+DQogICAgICAgIDxkYzpyaWdodHM+DQogICAgICAgICAgPGNjOkFnZW50Pg0KICAgICAgICAgICAgPGRjOnRpdGxlPlRvcnN0ZW4gU2tvbXA8L2RjOnRpdGxlPg0KICAgICAgICAgIDwvY2M6QWdlbnQ+DQogICAgICAgIDwvZGM6cmlnaHRzPg0KICAgICAgICA8ZGM6cHVibGlzaGVyPg0KICAgICAgICAgIDxjYzpBZ2VudD4NCiAgICAgICAgICAgIDxkYzp0aXRsZT5Ub3JzdGVuIFNrb21wPC9kYzp0aXRsZT4NCiAgICAgICAgICA8L2NjOkFnZW50Pg0KICAgICAgICA8L2RjOnB1Ymxpc2hlcj4NCiAgICAgICAgPGRjOmxhbmd1YWdlPmRlX0RFPC9kYzpsYW5ndWFnZT4NCiAgICAgICAgPGRjOnN1YmplY3Q+DQogICAgICAgICAgPHJkZjpCYWc+DQogICAgICAgICAgICA8cmRmOmxpPlBpa3RvZ3JhbW07IEZvdG9ncmFmaWVydmVyYm90PC9yZGY6bGk+DQogICAgICAgICAgPC9yZGY6QmFnPg0KICAgICAgICA8L2RjOnN1YmplY3Q+DQogICAgICAgIDxkYzpkZXNjcmlwdGlvbj5Gb3RvZ3JhZmllcnZlcmJvdCBhbHMgUGlrdG9ncmFtbSA8L2RjOmRlc2NyaXB0aW9uPg0KICAgICAgICA8Y2M6bGljZW5zZQ0KICAgICAgICAgICByZGY6cmVzb3VyY2U9Imh0dHA6Ly9jcmVhdGl2ZWNvbW1vbnMub3JnL2xpY2Vuc2VzL3B1YmxpY2RvbWFpbi8iIC8+DQogICAgICA8L2NjOldvcms+DQogICAgICA8Y2M6TGljZW5zZQ0KICAgICAgICAgcmRmOmFib3V0PSJodHRwOi8vY3JlYXRpdmVjb21tb25zLm9yZy9saWNlbnNlcy9wdWJsaWNkb21haW4vIj4NCiAgICAgICAgPGNjOnBlcm1pdHMNCiAgICAgICAgICAgcmRmOnJlc291cmNlPSJodHRwOi8vY3JlYXRpdmVjb21tb25zLm9yZy9ucyNSZXByb2R1Y3Rpb24iIC8+DQogICAgICAgIDxjYzpwZXJtaXRzDQogICAgICAgICAgIHJkZjpyZXNvdXJjZT0iaHR0cDovL2NyZWF0aXZlY29tbW9ucy5vcmcvbnMjRGlzdHJpYnV0aW9uIiAvPg0KICAgICAgICA8Y2M6cGVybWl0cw0KICAgICAgICAgICByZGY6cmVzb3VyY2U9Imh0dHA6Ly9jcmVhdGl2ZWNvbW1vbnMub3JnL25zI0Rlcml2YXRpdmVXb3JrcyIgLz4NCiAgICAgIDwvY2M6TGljZW5zZT4NCiAgICA8L3JkZjpSREY+DQogIDwvbWV0YWRhdGE+DQogIDxnDQogICAgIGlua3NjYXBlOmxhYmVsPSJFYmVuZSAxIg0KICAgICBpbmtzY2FwZTpncm91cG1vZGU9ImxheWVyIg0KICAgICBpZD0ibGF5ZXIxIj4NCiAgICA8cGF0aA0KICAgICAgIHN0eWxlPSJmaWxsOiMwMDAwMDA7ZmlsbC1vcGFjaXR5OjEiDQogICAgICAgZD0iTSAxNjQuNTMxMjUgNjIuNjg3NSBDIDE2Mi43OTExNSA2Mi42ODc1MDEgMTYxLjM3NSA2NC4wNzI0MTYgMTYxLjM3NSA2NS44MTI1IEwgMTYxLjM3NSA2OC43NSBMIDM4LjM3NSA2OC43NSBDIDM1LjA5MjI5OCA2OC43NDk5OTkgMzIuNDY4NzUgNzEuMzczNTQ4IDMyLjQ2ODc1IDc0LjY1NjI1IEwgMzIuNDY4NzUgMTgxLjM3NSBDIDMyLjQ2ODc1IDE4NC42NTc3IDM1LjA5MjMwNyAxODcuMzEyNTEgMzguMzc1IDE4Ny4zMTI1IEwgMjExLjYyNSAxODcuMzEyNSBDIDIxNC45MDc2OSAxODcuMzEyNSAyMTcuNTMxMjcgMTg0LjY1NzcgMjE3LjUzMTI1IDE4MS4zNzUgTCAyMTcuNTMxMjUgNzQuNjU2MjUgQyAyMTcuNTMxMjUgNzEuMzczNTUxIDIxNC45MDc2OCA2OC43NSAyMTEuNjI1IDY4Ljc1IEwgMjAyLjA2MjUgNjguNzUgTCAyMDIuMDYyNSA2NS44MTI1IEMgMjAyLjA2MjUgNjQuMDcyNDEgMjAwLjY0NjM1IDYyLjY4NzUgMTk4LjkwNjI1IDYyLjY4NzUgTCAxNjQuNTMxMjUgNjIuNjg3NSB6IE0gNDYuODEyNSA3OCBMIDg4LjY1NjI1IDc4IEMgOTAuMzk2MzQyIDc4IDkxLjgxMjUgNzkuMzg0OTA3IDkxLjgxMjUgODEuMTI1IEwgOTEuODEyNSA5Ni4zMTI1IEMgOTEuODEyNSA5OC4wNTI1OTIgOTAuMzk2MzQzIDk5LjQzNzUgODguNjU2MjUgOTkuNDM3NSBMIDQ2LjgxMjUgOTkuNDM3NSBDIDQ1LjA3MjQwOCA5OS40Mzc1IDQzLjY4NzUgOTguMDUyNTkzIDQzLjY4NzUgOTYuMzEyNSBMIDQzLjY4NzUgODEuMTI1IEMgNDMuNjg3NSA3OS4zODQ5MDggNDUuMDcyNDA3IDc4IDQ2LjgxMjUgNzggeiBNIDE0NiA4OC4yMTg3NSBDIDE2Ny43MzQ3NSA4OC4yMTg3NTMgMTg1LjM3NSAxMDYuMTUwNzEgMTg1LjM3NSAxMjguMjUgQyAxODUuMzc0OTkgMTUwLjM0OTI4IDE2Ny43MzQ3NCAxNjguMjgxMjUgMTQ2IDE2OC4yODEyNSBDIDEyNC4yNjUyNyAxNjguMjgxMjYgMTA2LjYyNSAxNTAuMzQ5MjkgMTA2LjYyNSAxMjguMjUgQyAxMDYuNjI1IDEwNi4xNTA3MSAxMjQuMjY1MjYgODguMjE4NzUgMTQ2IDg4LjIxODc1IHogTSAxNDYgOTEuNzE4NzUgQyAxMjYuMTY1NTcgOTEuNzE4NzUgMTEwLjA2MjUgMTA4LjA4Mjg5IDExMC4wNjI1IDEyOC4yNSBDIDExMC4wNjI1IDE0OC40MTcxMSAxMjYuMTY1NTcgMTY0Ljc4MTI2IDE0NiAxNjQuNzgxMjUgQyAxNjUuODM0NDMgMTY0Ljc4MTI1IDE4MS45Mzc1IDE0OC40MTcxIDE4MS45Mzc1IDEyOC4yNSBDIDE4MS45Mzc1IDEwOC4wODI4OSAxNjUuODM0NDMgOTEuNzE4NzUgMTQ2IDkxLjcxODc1IHogTSAxNDYgOTYuNTkzNzUgQyAxNjMuMTc3NjggOTYuNTkzNzUyIDE3Ny4xMjUgMTEwLjc4NDIgMTc3LjEyNSAxMjguMjUgQyAxNzcuMTI0OTkgMTQ1LjcxNTggMTYzLjE3NzY5IDE1OS44NzUgMTQ2IDE1OS44NzUgQyAxMjguODIyMzEgMTU5Ljg3NSAxMTQuODc1IDE0NS43MTU4IDExNC44NzUgMTI4LjI1IEMgMTE0Ljg3NSAxMTAuNzg0MTkgMTI4LjgyMjMxIDk2LjU5Mzc1IDE0NiA5Ni41OTM3NSB6IE0gMTc2LjUgMTcyLjcxODc1IEwgMjA2LjE4NzUgMTcyLjcxODc1IEMgMjA3LjQyMTM4IDE3Mi43MTg3NSAyMDguNDA2MjUgMTczLjEyNzgzIDIwOC40MDYyNSAxNzMuNjI1IEwgMjA4LjQwNjI1IDE3Ny45Njg3NSBDIDIwOC40MDYyNSAxNzguNDY1OTIgMjA3LjQyMTM4IDE3OC44NDM3NSAyMDYuMTg3NSAxNzguODQzNzUgTCAxNzYuNSAxNzguODQzNzUgQyAxNzUuMjY2MTEgMTc4Ljg0Mzc1IDE3NC4yODEyNSAxNzguNDY1OTIgMTc0LjI4MTI1IDE3Ny45Njg3NSBMIDE3NC4yODEyNSAxNzMuNjI1IEMgMTc0LjI4MTI1IDE3My4xMjc4MyAxNzUuMjY2MTIgMTcyLjcxODc1IDE3Ni41IDE3Mi43MTg3NSB6ICINCiAgICAgICBpZD0icmVjdDMyMDkiIC8+DQogICAgPHBhdGgNCiAgICAgICBzdHlsZT0iZmlsbDojYzQyNjFkO2ZpbGwtb3BhY2l0eToxIg0KICAgICAgIGQ9Ik0gMjAgMCBDIDE4LjU1OTkzOCAwIDE3LjE2NDc0NyAwLjE1MDk4NjY2IDE1LjgxMjUgMC40Mzc1IEMgMTUuMjEwMjkxIDAuNTY1MTk1NzggMTQuNjExOTEzIDAuNzI2MjExMjYgMTQuMDMxMjUgMC45MDYyNSBDIDEzLjU1NDc3MyAxLjA1Mzk4NTIgMTMuMDg1MzQ5IDEuMjI0ODUzNiAxMi42MjUgMS40MDYyNSBDIDEyLjMyODc2NiAxLjUyMzA3MzkgMTIuMDM5MDMzIDEuNjUwOTE4MiAxMS43NSAxLjc4MTI1IEMgMTEuMzQ3Mjc4IDEuOTYyMzU5OCAxMC45NTA0MDYgMi4xMzc0MTY1IDEwLjU2MjUgMi4zNDM3NSBDIDEwLjUyMTU1NSAyLjM2NTU2ODggMTAuNDc4MjczIDIuMzg0MTU1NSAxMC40Mzc1IDIuNDA2MjUgQyAxMC40MTY5MzQgMi40MTczNzU0IDEwLjM5NTUyMiAyLjQyNjMwNDkgMTAuMzc1IDIuNDM3NSBDIDkuODMyNjg2MSAyLjczMzM0NDYgOS4zMjI2NDQ4IDMuMDYzMjQ1MiA4LjgxMjUgMy40MDYyNSBDIDguMjgzMTIyMSAzLjc2MjE4NjUgNy43NzI3NzI4IDQuMTU4OTIwOSA3LjI4MTI1IDQuNTYyNSBDIDcuMjc1MDU1IDQuNTY3NTg2NiA3LjI1NjE4ODggNC41NTc0MDYxIDcuMjUgNC41NjI1IEMgNy4yMzg1NDc5IDQuNTcxOTQzNCA3LjIzMDE4MDYgNC41ODQyODE2IDcuMjE4NzUgNC41OTM3NSBDIDcuMTA0NzM1MiA0LjY4ODAxNTkgNi45ODY4NTA3IDQuNzc4MjY4NyA2Ljg3NSA0Ljg3NSBDIDYuNTE1NzAyMSA1LjE4NjQyNjQgNi4xNzk3OTA5IDUuNTA3NzA5MSA1Ljg0Mzc1IDUuODQzNzUgQyA1LjQwNDQwMjUgNi4yODE4MDc4IDQuOTkwNzQ0OSA2Ljc0MTM1NTQgNC41OTM3NSA3LjIxODc1IEMgNC41NzkwMDg2IDcuMjM2NTQ2MiA0LjU3NzE4MDYgNy4yNjM0MDE1IDQuNTYyNSA3LjI4MTI1IEMgMy43Njc0ODk4IDguMjQzOTE4MSAzLjA0MjI3MjEgOS4yNzE4NzA1IDIuNDM3NSAxMC4zNzUgQyAyLjQyNjIyMzIgMTAuMzk1NjM1IDIuNDE3NDU2MSAxMC40MTY4MiAyLjQwNjI1IDEwLjQzNzUgQyAyLjEwODM5MDggMTAuOTg1MzQ4IDEuODQwMjIzMyAxMS41NDcyMTQgMS41OTM3NSAxMi4xMjUgQyAxLjU3NTU4NjUgMTIuMTY3NjY1IDEuNTQ5MTI1NSAxMi4yMDcxODIgMS41MzEyNSAxMi4yNSBDIDEuMjg3NzEzMSAxMi44MzI0MzMgMS4wOTQ2NzU0IDEzLjQyMTgyMiAwLjkwNjI1IDE0LjAzMTI1IEMgMC43Mjk2MzAxNCAxNC42MDI0OTUgMC41NjMwOTYzNCAxNS4xODg4MjggMC40Mzc1IDE1Ljc4MTI1IEMgMC4xNDY5MTQwNCAxNy4xNDI1NzggLTQuMzkwNjEzM2UtMTggMTguNTQ5NDY2IDAgMjAgTCAwIDIzMCBDIDAgMjQxLjA4IDguOTIgMjUwIDIwIDI1MCBMIDIzMCAyNTAgQyAyMzEuNDQwMDYgMjUwIDIzMi44MzUyNSAyNDkuODQ5MDEgMjM0LjE4NzUgMjQ5LjU2MjUgQyAyMzQuNzg5MDMgMjQ5LjQzNDk3IDIzNS4zODg2NiAyNDkuMjczODEgMjM1Ljk2ODc1IDI0OS4wOTM3NSBDIDIzNi40NDQ3NiAyNDguOTQ2IDIzNi45MTUwNSAyNDguNzc1MjYgMjM3LjM3NSAyNDguNTkzNzUgQyAyMzcuNjcxMjMgMjQ4LjQ3NjkzIDIzNy45NjA5NyAyNDguMzQ5MDggMjM4LjI1IDI0OC4yMTg3NSBDIDIzOC4yNzk4MSAyNDguMjA1MzEgMjM4LjMxNDAyIDI0OC4yMDEwOSAyMzguMzQzNzUgMjQ4LjE4NzUgQyAyMzguNzU4MzYgMjQ3Ljk5ODMgMjM5LjE2Mzc0IDI0Ny44MDk4MSAyMzkuNTYyNSAyNDcuNTkzNzUgQyAyMzkuNTgzMTggMjQ3LjU4MjU0IDIzOS42MDQzNiAyNDcuNTczNzggMjM5LjYyNSAyNDcuNTYyNSBDIDI0MC4xNjkyNSAyNDcuMjY1MTIgMjQwLjY3NTU4IDI0Ni45Mzg3MyAyNDEuMTg3NSAyNDYuNTkzNzUgQyAyNDEuNjY4NzggMjQ2LjI2OTQxIDI0Mi4xNDM1OSAyNDUuOTI2MzkgMjQyLjU5Mzc1IDI0NS41NjI1IEMgMjQyLjY0NDc0IDI0NS41MjEyOCAyNDIuNjk5NDMgMjQ1LjQ3OTIxIDI0Mi43NSAyNDUuNDM3NSBDIDI0Mi44NzY1MSAyNDUuMzMzMTggMjQzLjAwMTE1IDI0NS4yMzIzNSAyNDMuMTI1IDI0NS4xMjUgQyAyNDMuNDgyNjUgMjQ0LjgxNTM4IDI0My44MjE1NSAyNDQuNDkwMTkgMjQ0LjE1NjI1IDI0NC4xNTYyNSBDIDI0NC40OTIyOSAyNDMuODIwMjEgMjQ0LjgxMzU3IDI0My40ODQzIDI0NS4xMjUgMjQzLjEyNSBDIDI0NS4yMzE2NyAyNDMuMDAyMzQgMjQ1LjMzMzgxIDI0Mi44NzUyNyAyNDUuNDM3NSAyNDIuNzUgQyAyNDUuNDQyNzYgMjQyLjc0MzYyIDI0NS40MzIyNSAyNDIuNzI1MTMgMjQ1LjQzNzUgMjQyLjcxODc1IEMgMjQ1Ljg0MjQ5IDI0Mi4yMjgzIDI0Ni4yMzY0IDI0MS43MTU3NiAyNDYuNTkzNzUgMjQxLjE4NzUgQyAyNDYuOTM4MTIgMjQwLjY3ODQzIDI0Ny4yNjUzNiAyNDAuMTY2MjIgMjQ3LjU2MjUgMjM5LjYyNSBDIDI0Ny41NzM2MyAyMzkuNjA0NzIgMjQ3LjU4MjY4IDIzOS41ODI4MiAyNDcuNTkzNzUgMjM5LjU2MjUgQyAyNDcuODkxOTcgMjM5LjAxNDggMjQ4LjE1OTMxIDIzOC40NTIzOSAyNDguNDA2MjUgMjM3Ljg3NSBDIDI0OC40MTU1NCAyMzcuODUzMjggMjQ4LjQyODI5IDIzNy44MzQyNiAyNDguNDM3NSAyMzcuODEyNSBDIDI0OC40NDY0NCAyMzcuNzkxMjkgMjQ4LjQ1OTg4IDIzNy43NzEyNSAyNDguNDY4NzUgMjM3Ljc1IEMgMjQ4LjcwOTkyIDIzNy4xNzQ3NiAyNDguOTA2MjggMjM2LjU3MDA4IDI0OS4wOTM3NSAyMzUuOTY4NzUgQyAyNDkuMjczNzUgMjM1LjM5MTM3IDI0OS40MzQ2OCAyMzQuODE3NTQgMjQ5LjU2MjUgMjM0LjIxODc1IEMgMjQ5Ljg1MzA5IDIzMi44NTc0MiAyNTAgMjMxLjQ1MDUzIDI1MCAyMzAgTCAyNTAgMjAgQyAyNTAgOC45MiAyNDEuMDggLTMuMzUzNzk4N2UtMTcgMjMwIDAgTCAyMCAwIHogTSAzNC43ODEyNSAxOS40MDYyNSBMIDIyNS40Njg3NSAxOS40MDYyNSBDIDIyOC4zMDk0NiAxOS40MDYyNSAyMzAuNTkzNzUgMjEuNjkwNTQ0IDIzMC41OTM3NSAyNC41MzEyNSBMIDIzMC41OTM3NSAyMTUuMjUgTCAzNC43ODEyNSAxOS40MDYyNSB6IE0gMTkuNDA2MjUgMzQuNzUgTCAyMTUuMjE4NzUgMjMwLjU5Mzc1IEwgMjQuNTMxMjUgMjMwLjU5Mzc1IEMgMjEuNjkwNTQ0IDIzMC41OTM3NiAxOS40MDYyNSAyMjguMzA5NDYgMTkuNDA2MjUgMjI1LjQ2ODc1IEwgMTkuNDA2MjUgMzQuNzUgeiAiDQogICAgICAgaWQ9InBhdGgzMTk2IiAvPg0KICA8L2c+DQo8L3N2Zz4NCg==;strokeColor=none;points=[[0.44,1,0]];labelBackgroundColor=none;rounded=0;html=1;whiteSpace=wrap;" parent="1" vertex="1">
            <mxGeometry x="1059" y="311" width="102" height="49" as="geometry" />
          </mxCell>
        </UserObject>
        <mxCell id="46" value="&lt;div style=&quot;font-size: 1px&quot;&gt;&lt;font style=&quot;font-size:14.11px;font-family:Calibri;color:#000000;direction:ltr;letter-spacing:0px;line-height:120%;opacity:1&quot;&gt;WAN-11&lt;br/&gt;&lt;/font&gt;&lt;/div&gt;" style="text;vsdxID=183;fillColor=none;gradientColor=none;aspect=fixed;strokeColor=none;points=[[0.44,1,0]];labelBackgroundColor=none;rounded=0;html=1;whiteSpace=wrap;verticalAlign=top;align=center;;html=1;" parent="45" vertex="1">
          <mxGeometry x="-56.2" y="-27.2" width="208.6" as="geometry" />
        </mxCell>
        <UserObject label="" tags="Фон" id="47">
          <mxCell style="vsdxID=184;fillColor=none;gradientColor=none;image;aspect=fixed;image=data:image/svg+xml,PD94bWwgdmVyc2lvbj0iMS4wIiBlbmNvZGluZz0iVVRGLTgiIHN0YW5kYWxvbmU9Im5vIj8+DQo8IS0tIENyZWF0ZWQgd2l0aCBJbmtzY2FwZSAoaHR0cDovL3d3dy5pbmtzY2FwZS5vcmcvKSAtLT4NCjxzdmcNCiAgIHhtbG5zOmRjPSJodHRwOi8vcHVybC5vcmcvZGMvZWxlbWVudHMvMS4xLyINCiAgIHhtbG5zOmNjPSJodHRwOi8vY3JlYXRpdmVjb21tb25zLm9yZy9ucyMiDQogICB4bWxuczpyZGY9Imh0dHA6Ly93d3cudzMub3JnLzE5OTkvMDIvMjItcmRmLXN5bnRheC1ucyMiDQogICB4bWxuczpzdmc9Imh0dHA6Ly93d3cudzMub3JnLzIwMDAvc3ZnIg0KICAgeG1sbnM9Imh0dHA6Ly93d3cudzMub3JnLzIwMDAvc3ZnIg0KICAgeG1sbnM6c29kaXBvZGk9Imh0dHA6Ly9zb2RpcG9kaS5zb3VyY2Vmb3JnZS5uZXQvRFREL3NvZGlwb2RpLTAuZHRkIg0KICAgeG1sbnM6aW5rc2NhcGU9Imh0dHA6Ly93d3cuaW5rc2NhcGUub3JnL25hbWVzcGFjZXMvaW5rc2NhcGUiDQogICB3aWR0aD0iMjUwIg0KICAgaGVpZ2h0PSIyNTAiDQogICBpZD0ic3ZnMzMxOSINCiAgIHNvZGlwb2RpOnZlcnNpb249IjAuMzIiDQogICBpbmtzY2FwZTp2ZXJzaW9uPSIwLjQ2Ig0KICAgdmVyc2lvbj0iMS4wIg0KICAgc29kaXBvZGk6ZG9jbmFtZT0ibm9waG90b19pLnN2ZyINCiAgIGlua3NjYXBlOm91dHB1dF9leHRlbnNpb249Im9yZy5pbmtzY2FwZS5vdXRwdXQuc3ZnLmlua3NjYXBlIj4NCiAgPGRlZnMNCiAgICAgaWQ9ImRlZnMzMzIxIj4NCiAgICA8aW5rc2NhcGU6cGVyc3BlY3RpdmUNCiAgICAgICBzb2RpcG9kaTp0eXBlPSJpbmtzY2FwZTpwZXJzcDNkIg0KICAgICAgIGlua3NjYXBlOnZwX3g9IjAgOiA1MjYuMTgxMDkgOiAxIg0KICAgICAgIGlua3NjYXBlOnZwX3k9IjAgOiAxMDAwIDogMCINCiAgICAgICBpbmtzY2FwZTp2cF96PSI3NDQuMDk0NDggOiA1MjYuMTgxMDkgOiAxIg0KICAgICAgIGlua3NjYXBlOnBlcnNwM2Qtb3JpZ2luPSIzNzIuMDQ3MjQgOiAzNTAuNzg3MzkgOiAxIg0KICAgICAgIGlkPSJwZXJzcGVjdGl2ZTMzMjciIC8+DQogICAgPGlua3NjYXBlOnBlcnNwZWN0aXZlDQogICAgICAgaWQ9InBlcnNwZWN0aXZlMzM0MiINCiAgICAgICBpbmtzY2FwZTpwZXJzcDNkLW9yaWdpbj0iMzcyLjA0NzI0IDogMzUwLjc4NzM5IDogMSINCiAgICAgICBpbmtzY2FwZTp2cF96PSI3NDQuMDk0NDggOiA1MjYuMTgxMDkgOiAxIg0KICAgICAgIGlua3NjYXBlOnZwX3k9IjAgOiAxMDAwIDogMCINCiAgICAgICBpbmtzY2FwZTp2cF94PSIwIDogNTI2LjE4MTA5IDogMSINCiAgICAgICBzb2RpcG9kaTp0eXBlPSJpbmtzY2FwZTpwZXJzcDNkIiAvPg0KICA8L2RlZnM+DQogIDxzb2RpcG9kaTpuYW1lZHZpZXcNCiAgICAgaWQ9ImJhc2UiDQogICAgIHBhZ2Vjb2xvcj0iI2ZmZmZmZiINCiAgICAgYm9yZGVyY29sb3I9IiM2NjY2NjYiDQogICAgIGJvcmRlcm9wYWNpdHk9IjEuMCINCiAgICAgaW5rc2NhcGU6cGFnZW9wYWNpdHk9IjAuMCINCiAgICAgaW5rc2NhcGU6cGFnZXNoYWRvdz0iMiINCiAgICAgaW5rc2NhcGU6em9vbT0iMi4yNDI5NDI3Ig0KICAgICBpbmtzY2FwZTpjeD0iMTIxLjk3NjQ4Ig0KICAgICBpbmtzY2FwZTpjeT0iMTIyLjQ0MTk4Ig0KICAgICBpbmtzY2FwZTpkb2N1bWVudC11bml0cz0icHgiDQogICAgIGlua3NjYXBlOmN1cnJlbnQtbGF5ZXI9ImxheWVyMSINCiAgICAgc2hvd2dyaWQ9ImZhbHNlIg0KICAgICBpbmtzY2FwZTp3aW5kb3ctd2lkdGg9IjE2NjQiDQogICAgIGlua3NjYXBlOndpbmRvdy1oZWlnaHQ9Ijg0NCINCiAgICAgaW5rc2NhcGU6d2luZG93LXg9Ii0zIg0KICAgICBpbmtzY2FwZTp3aW5kb3cteT0iLTE4IiAvPg0KICA8bWV0YWRhdGENCiAgICAgaWQ9Im1ldGFkYXRhMzMyNCI+DQogICAgPHJkZjpSREY+DQogICAgICA8Y2M6V29yaw0KICAgICAgICAgcmRmOmFib3V0PSIiPg0KICAgICAgICA8ZGM6Zm9ybWF0PmltYWdlL3N2Zyt4bWw8L2RjOmZvcm1hdD4NCiAgICAgICAgPGRjOnR5cGUNCiAgICAgICAgICAgcmRmOnJlc291cmNlPSJodHRwOi8vcHVybC5vcmcvZGMvZGNtaXR5cGUvU3RpbGxJbWFnZSIgLz4NCiAgICAgICAgPGRjOnRpdGxlPkZvdG9ncmFmaWVydmVyYm90PC9kYzp0aXRsZT4NCiAgICAgICAgPGRjOmRhdGU+MjAwOC0wNi0yOTwvZGM6ZGF0ZT4NCiAgICAgICAgPGRjOmNyZWF0b3I+DQogICAgICAgICAgPGNjOkFnZW50Pg0KICAgICAgICAgICAgPGRjOnRpdGxlPlRvcnJzdGVuIFNrb21wPC9kYzp0aXRsZT4NCiAgICAgICAgICA8L2NjOkFnZW50Pg0KICAgICAgICA8L2RjOmNyZWF0b3I+DQogICAgICAgIDxkYzpyaWdodHM+DQogICAgICAgICAgPGNjOkFnZW50Pg0KICAgICAgICAgICAgPGRjOnRpdGxlPlRvcnN0ZW4gU2tvbXA8L2RjOnRpdGxlPg0KICAgICAgICAgIDwvY2M6QWdlbnQ+DQogICAgICAgIDwvZGM6cmlnaHRzPg0KICAgICAgICA8ZGM6cHVibGlzaGVyPg0KICAgICAgICAgIDxjYzpBZ2VudD4NCiAgICAgICAgICAgIDxkYzp0aXRsZT5Ub3JzdGVuIFNrb21wPC9kYzp0aXRsZT4NCiAgICAgICAgICA8L2NjOkFnZW50Pg0KICAgICAgICA8L2RjOnB1Ymxpc2hlcj4NCiAgICAgICAgPGRjOmxhbmd1YWdlPmRlX0RFPC9kYzpsYW5ndWFnZT4NCiAgICAgICAgPGRjOnN1YmplY3Q+DQogICAgICAgICAgPHJkZjpCYWc+DQogICAgICAgICAgICA8cmRmOmxpPlBpa3RvZ3JhbW07IEZvdG9ncmFmaWVydmVyYm90PC9yZGY6bGk+DQogICAgICAgICAgPC9yZGY6QmFnPg0KICAgICAgICA8L2RjOnN1YmplY3Q+DQogICAgICAgIDxkYzpkZXNjcmlwdGlvbj5Gb3RvZ3JhZmllcnZlcmJvdCBhbHMgUGlrdG9ncmFtbSA8L2RjOmRlc2NyaXB0aW9uPg0KICAgICAgICA8Y2M6bGljZW5zZQ0KICAgICAgICAgICByZGY6cmVzb3VyY2U9Imh0dHA6Ly9jcmVhdGl2ZWNvbW1vbnMub3JnL2xpY2Vuc2VzL3B1YmxpY2RvbWFpbi8iIC8+DQogICAgICA8L2NjOldvcms+DQogICAgICA8Y2M6TGljZW5zZQ0KICAgICAgICAgcmRmOmFib3V0PSJodHRwOi8vY3JlYXRpdmVjb21tb25zLm9yZy9saWNlbnNlcy9wdWJsaWNkb21haW4vIj4NCiAgICAgICAgPGNjOnBlcm1pdHMNCiAgICAgICAgICAgcmRmOnJlc291cmNlPSJodHRwOi8vY3JlYXRpdmVjb21tb25zLm9yZy9ucyNSZXByb2R1Y3Rpb24iIC8+DQogICAgICAgIDxjYzpwZXJtaXRzDQogICAgICAgICAgIHJkZjpyZXNvdXJjZT0iaHR0cDovL2NyZWF0aXZlY29tbW9ucy5vcmcvbnMjRGlzdHJpYnV0aW9uIiAvPg0KICAgICAgICA8Y2M6cGVybWl0cw0KICAgICAgICAgICByZGY6cmVzb3VyY2U9Imh0dHA6Ly9jcmVhdGl2ZWNvbW1vbnMub3JnL25zI0Rlcml2YXRpdmVXb3JrcyIgLz4NCiAgICAgIDwvY2M6TGljZW5zZT4NCiAgICA8L3JkZjpSREY+DQogIDwvbWV0YWRhdGE+DQogIDxnDQogICAgIGlua3NjYXBlOmxhYmVsPSJFYmVuZSAxIg0KICAgICBpbmtzY2FwZTpncm91cG1vZGU9ImxheWVyIg0KICAgICBpZD0ibGF5ZXIxIj4NCiAgICA8cGF0aA0KICAgICAgIHN0eWxlPSJmaWxsOiMwMDAwMDA7ZmlsbC1vcGFjaXR5OjEiDQogICAgICAgZD0iTSAxNjQuNTMxMjUgNjIuNjg3NSBDIDE2Mi43OTExNSA2Mi42ODc1MDEgMTYxLjM3NSA2NC4wNzI0MTYgMTYxLjM3NSA2NS44MTI1IEwgMTYxLjM3NSA2OC43NSBMIDM4LjM3NSA2OC43NSBDIDM1LjA5MjI5OCA2OC43NDk5OTkgMzIuNDY4NzUgNzEuMzczNTQ4IDMyLjQ2ODc1IDc0LjY1NjI1IEwgMzIuNDY4NzUgMTgxLjM3NSBDIDMyLjQ2ODc1IDE4NC42NTc3IDM1LjA5MjMwNyAxODcuMzEyNTEgMzguMzc1IDE4Ny4zMTI1IEwgMjExLjYyNSAxODcuMzEyNSBDIDIxNC45MDc2OSAxODcuMzEyNSAyMTcuNTMxMjcgMTg0LjY1NzcgMjE3LjUzMTI1IDE4MS4zNzUgTCAyMTcuNTMxMjUgNzQuNjU2MjUgQyAyMTcuNTMxMjUgNzEuMzczNTUxIDIxNC45MDc2OCA2OC43NSAyMTEuNjI1IDY4Ljc1IEwgMjAyLjA2MjUgNjguNzUgTCAyMDIuMDYyNSA2NS44MTI1IEMgMjAyLjA2MjUgNjQuMDcyNDEgMjAwLjY0NjM1IDYyLjY4NzUgMTk4LjkwNjI1IDYyLjY4NzUgTCAxNjQuNTMxMjUgNjIuNjg3NSB6IE0gNDYuODEyNSA3OCBMIDg4LjY1NjI1IDc4IEMgOTAuMzk2MzQyIDc4IDkxLjgxMjUgNzkuMzg0OTA3IDkxLjgxMjUgODEuMTI1IEwgOTEuODEyNSA5Ni4zMTI1IEMgOTEuODEyNSA5OC4wNTI1OTIgOTAuMzk2MzQzIDk5LjQzNzUgODguNjU2MjUgOTkuNDM3NSBMIDQ2LjgxMjUgOTkuNDM3NSBDIDQ1LjA3MjQwOCA5OS40Mzc1IDQzLjY4NzUgOTguMDUyNTkzIDQzLjY4NzUgOTYuMzEyNSBMIDQzLjY4NzUgODEuMTI1IEMgNDMuNjg3NSA3OS4zODQ5MDggNDUuMDcyNDA3IDc4IDQ2LjgxMjUgNzggeiBNIDE0NiA4OC4yMTg3NSBDIDE2Ny43MzQ3NSA4OC4yMTg3NTMgMTg1LjM3NSAxMDYuMTUwNzEgMTg1LjM3NSAxMjguMjUgQyAxODUuMzc0OTkgMTUwLjM0OTI4IDE2Ny43MzQ3NCAxNjguMjgxMjUgMTQ2IDE2OC4yODEyNSBDIDEyNC4yNjUyNyAxNjguMjgxMjYgMTA2LjYyNSAxNTAuMzQ5MjkgMTA2LjYyNSAxMjguMjUgQyAxMDYuNjI1IDEwNi4xNTA3MSAxMjQuMjY1MjYgODguMjE4NzUgMTQ2IDg4LjIxODc1IHogTSAxNDYgOTEuNzE4NzUgQyAxMjYuMTY1NTcgOTEuNzE4NzUgMTEwLjA2MjUgMTA4LjA4Mjg5IDExMC4wNjI1IDEyOC4yNSBDIDExMC4wNjI1IDE0OC40MTcxMSAxMjYuMTY1NTcgMTY0Ljc4MTI2IDE0NiAxNjQuNzgxMjUgQyAxNjUuODM0NDMgMTY0Ljc4MTI1IDE4MS45Mzc1IDE0OC40MTcxIDE4MS45Mzc1IDEyOC4yNSBDIDE4MS45Mzc1IDEwOC4wODI4OSAxNjUuODM0NDMgOTEuNzE4NzUgMTQ2IDkxLjcxODc1IHogTSAxNDYgOTYuNTkzNzUgQyAxNjMuMTc3NjggOTYuNTkzNzUyIDE3Ny4xMjUgMTEwLjc4NDIgMTc3LjEyNSAxMjguMjUgQyAxNzcuMTI0OTkgMTQ1LjcxNTggMTYzLjE3NzY5IDE1OS44NzUgMTQ2IDE1OS44NzUgQyAxMjguODIyMzEgMTU5Ljg3NSAxMTQuODc1IDE0NS43MTU4IDExNC44NzUgMTI4LjI1IEMgMTE0Ljg3NSAxMTAuNzg0MTkgMTI4LjgyMjMxIDk2LjU5Mzc1IDE0NiA5Ni41OTM3NSB6IE0gMTc2LjUgMTcyLjcxODc1IEwgMjA2LjE4NzUgMTcyLjcxODc1IEMgMjA3LjQyMTM4IDE3Mi43MTg3NSAyMDguNDA2MjUgMTczLjEyNzgzIDIwOC40MDYyNSAxNzMuNjI1IEwgMjA4LjQwNjI1IDE3Ny45Njg3NSBDIDIwOC40MDYyNSAxNzguNDY1OTIgMjA3LjQyMTM4IDE3OC44NDM3NSAyMDYuMTg3NSAxNzguODQzNzUgTCAxNzYuNSAxNzguODQzNzUgQyAxNzUuMjY2MTEgMTc4Ljg0Mzc1IDE3NC4yODEyNSAxNzguNDY1OTIgMTc0LjI4MTI1IDE3Ny45Njg3NSBMIDE3NC4yODEyNSAxNzMuNjI1IEMgMTc0LjI4MTI1IDE3My4xMjc4MyAxNzUuMjY2MTIgMTcyLjcxODc1IDE3Ni41IDE3Mi43MTg3NSB6ICINCiAgICAgICBpZD0icmVjdDMyMDkiIC8+DQogICAgPHBhdGgNCiAgICAgICBzdHlsZT0iZmlsbDojYzQyNjFkO2ZpbGwtb3BhY2l0eToxIg0KICAgICAgIGQ9Ik0gMjAgMCBDIDE4LjU1OTkzOCAwIDE3LjE2NDc0NyAwLjE1MDk4NjY2IDE1LjgxMjUgMC40Mzc1IEMgMTUuMjEwMjkxIDAuNTY1MTk1NzggMTQuNjExOTEzIDAuNzI2MjExMjYgMTQuMDMxMjUgMC45MDYyNSBDIDEzLjU1NDc3MyAxLjA1Mzk4NTIgMTMuMDg1MzQ5IDEuMjI0ODUzNiAxMi42MjUgMS40MDYyNSBDIDEyLjMyODc2NiAxLjUyMzA3MzkgMTIuMDM5MDMzIDEuNjUwOTE4MiAxMS43NSAxLjc4MTI1IEMgMTEuMzQ3Mjc4IDEuOTYyMzU5OCAxMC45NTA0MDYgMi4xMzc0MTY1IDEwLjU2MjUgMi4zNDM3NSBDIDEwLjUyMTU1NSAyLjM2NTU2ODggMTAuNDc4MjczIDIuMzg0MTU1NSAxMC40Mzc1IDIuNDA2MjUgQyAxMC40MTY5MzQgMi40MTczNzU0IDEwLjM5NTUyMiAyLjQyNjMwNDkgMTAuMzc1IDIuNDM3NSBDIDkuODMyNjg2MSAyLjczMzM0NDYgOS4zMjI2NDQ4IDMuMDYzMjQ1MiA4LjgxMjUgMy40MDYyNSBDIDguMjgzMTIyMSAzLjc2MjE4NjUgNy43NzI3NzI4IDQuMTU4OTIwOSA3LjI4MTI1IDQuNTYyNSBDIDcuMjc1MDU1IDQuNTY3NTg2NiA3LjI1NjE4ODggNC41NTc0MDYxIDcuMjUgNC41NjI1IEMgNy4yMzg1NDc5IDQuNTcxOTQzNCA3LjIzMDE4MDYgNC41ODQyODE2IDcuMjE4NzUgNC41OTM3NSBDIDcuMTA0NzM1MiA0LjY4ODAxNTkgNi45ODY4NTA3IDQuNzc4MjY4NyA2Ljg3NSA0Ljg3NSBDIDYuNTE1NzAyMSA1LjE4NjQyNjQgNi4xNzk3OTA5IDUuNTA3NzA5MSA1Ljg0Mzc1IDUuODQzNzUgQyA1LjQwNDQwMjUgNi4yODE4MDc4IDQuOTkwNzQ0OSA2Ljc0MTM1NTQgNC41OTM3NSA3LjIxODc1IEMgNC41NzkwMDg2IDcuMjM2NTQ2MiA0LjU3NzE4MDYgNy4yNjM0MDE1IDQuNTYyNSA3LjI4MTI1IEMgMy43Njc0ODk4IDguMjQzOTE4MSAzLjA0MjI3MjEgOS4yNzE4NzA1IDIuNDM3NSAxMC4zNzUgQyAyLjQyNjIyMzIgMTAuMzk1NjM1IDIuNDE3NDU2MSAxMC40MTY4MiAyLjQwNjI1IDEwLjQzNzUgQyAyLjEwODM5MDggMTAuOTg1MzQ4IDEuODQwMjIzMyAxMS41NDcyMTQgMS41OTM3NSAxMi4xMjUgQyAxLjU3NTU4NjUgMTIuMTY3NjY1IDEuNTQ5MTI1NSAxMi4yMDcxODIgMS41MzEyNSAxMi4yNSBDIDEuMjg3NzEzMSAxMi44MzI0MzMgMS4wOTQ2NzU0IDEzLjQyMTgyMiAwLjkwNjI1IDE0LjAzMTI1IEMgMC43Mjk2MzAxNCAxNC42MDI0OTUgMC41NjMwOTYzNCAxNS4xODg4MjggMC40Mzc1IDE1Ljc4MTI1IEMgMC4xNDY5MTQwNCAxNy4xNDI1NzggLTQuMzkwNjEzM2UtMTggMTguNTQ5NDY2IDAgMjAgTCAwIDIzMCBDIDAgMjQxLjA4IDguOTIgMjUwIDIwIDI1MCBMIDIzMCAyNTAgQyAyMzEuNDQwMDYgMjUwIDIzMi44MzUyNSAyNDkuODQ5MDEgMjM0LjE4NzUgMjQ5LjU2MjUgQyAyMzQuNzg5MDMgMjQ5LjQzNDk3IDIzNS4zODg2NiAyNDkuMjczODEgMjM1Ljk2ODc1IDI0OS4wOTM3NSBDIDIzNi40NDQ3NiAyNDguOTQ2IDIzNi45MTUwNSAyNDguNzc1MjYgMjM3LjM3NSAyNDguNTkzNzUgQyAyMzcuNjcxMjMgMjQ4LjQ3NjkzIDIzNy45NjA5NyAyNDguMzQ5MDggMjM4LjI1IDI0OC4yMTg3NSBDIDIzOC4yNzk4MSAyNDguMjA1MzEgMjM4LjMxNDAyIDI0OC4yMDEwOSAyMzguMzQzNzUgMjQ4LjE4NzUgQyAyMzguNzU4MzYgMjQ3Ljk5ODMgMjM5LjE2Mzc0IDI0Ny44MDk4MSAyMzkuNTYyNSAyNDcuNTkzNzUgQyAyMzkuNTgzMTggMjQ3LjU4MjU0IDIzOS42MDQzNiAyNDcuNTczNzggMjM5LjYyNSAyNDcuNTYyNSBDIDI0MC4xNjkyNSAyNDcuMjY1MTIgMjQwLjY3NTU4IDI0Ni45Mzg3MyAyNDEuMTg3NSAyNDYuNTkzNzUgQyAyNDEuNjY4NzggMjQ2LjI2OTQxIDI0Mi4xNDM1OSAyNDUuOTI2MzkgMjQyLjU5Mzc1IDI0NS41NjI1IEMgMjQyLjY0NDc0IDI0NS41MjEyOCAyNDIuNjk5NDMgMjQ1LjQ3OTIxIDI0Mi43NSAyNDUuNDM3NSBDIDI0Mi44NzY1MSAyNDUuMzMzMTggMjQzLjAwMTE1IDI0NS4yMzIzNSAyNDMuMTI1IDI0NS4xMjUgQyAyNDMuNDgyNjUgMjQ0LjgxNTM4IDI0My44MjE1NSAyNDQuNDkwMTkgMjQ0LjE1NjI1IDI0NC4xNTYyNSBDIDI0NC40OTIyOSAyNDMuODIwMjEgMjQ0LjgxMzU3IDI0My40ODQzIDI0NS4xMjUgMjQzLjEyNSBDIDI0NS4yMzE2NyAyNDMuMDAyMzQgMjQ1LjMzMzgxIDI0Mi44NzUyNyAyNDUuNDM3NSAyNDIuNzUgQyAyNDUuNDQyNzYgMjQyLjc0MzYyIDI0NS40MzIyNSAyNDIuNzI1MTMgMjQ1LjQzNzUgMjQyLjcxODc1IEMgMjQ1Ljg0MjQ5IDI0Mi4yMjgzIDI0Ni4yMzY0IDI0MS43MTU3NiAyNDYuNTkzNzUgMjQxLjE4NzUgQyAyNDYuOTM4MTIgMjQwLjY3ODQzIDI0Ny4yNjUzNiAyNDAuMTY2MjIgMjQ3LjU2MjUgMjM5LjYyNSBDIDI0Ny41NzM2MyAyMzkuNjA0NzIgMjQ3LjU4MjY4IDIzOS41ODI4MiAyNDcuNTkzNzUgMjM5LjU2MjUgQyAyNDcuODkxOTcgMjM5LjAxNDggMjQ4LjE1OTMxIDIzOC40NTIzOSAyNDguNDA2MjUgMjM3Ljg3NSBDIDI0OC40MTU1NCAyMzcuODUzMjggMjQ4LjQyODI5IDIzNy44MzQyNiAyNDguNDM3NSAyMzcuODEyNSBDIDI0OC40NDY0NCAyMzcuNzkxMjkgMjQ4LjQ1OTg4IDIzNy43NzEyNSAyNDguNDY4NzUgMjM3Ljc1IEMgMjQ4LjcwOTkyIDIzNy4xNzQ3NiAyNDguOTA2MjggMjM2LjU3MDA4IDI0OS4wOTM3NSAyMzUuOTY4NzUgQyAyNDkuMjczNzUgMjM1LjM5MTM3IDI0OS40MzQ2OCAyMzQuODE3NTQgMjQ5LjU2MjUgMjM0LjIxODc1IEMgMjQ5Ljg1MzA5IDIzMi44NTc0MiAyNTAgMjMxLjQ1MDUzIDI1MCAyMzAgTCAyNTAgMjAgQyAyNTAgOC45MiAyNDEuMDggLTMuMzUzNzk4N2UtMTcgMjMwIDAgTCAyMCAwIHogTSAzNC43ODEyNSAxOS40MDYyNSBMIDIyNS40Njg3NSAxOS40MDYyNSBDIDIyOC4zMDk0NiAxOS40MDYyNSAyMzAuNTkzNzUgMjEuNjkwNTQ0IDIzMC41OTM3NSAyNC41MzEyNSBMIDIzMC41OTM3NSAyMTUuMjUgTCAzNC43ODEyNSAxOS40MDYyNSB6IE0gMTkuNDA2MjUgMzQuNzUgTCAyMTUuMjE4NzUgMjMwLjU5Mzc1IEwgMjQuNTMxMjUgMjMwLjU5Mzc1IEMgMjEuNjkwNTQ0IDIzMC41OTM3NiAxOS40MDYyNSAyMjguMzA5NDYgMTkuNDA2MjUgMjI1LjQ2ODc1IEwgMTkuNDA2MjUgMzQuNzUgeiAiDQogICAgICAgaWQ9InBhdGgzMTk2IiAvPg0KICA8L2c+DQo8L3N2Zz4NCg==;strokeColor=none;points=[[0.44,1,0]];labelBackgroundColor=none;rounded=0;html=1;whiteSpace=wrap;" parent="1" vertex="1">
            <mxGeometry x="1290" y="310" width="102" height="49" as="geometry" />
          </mxCell>
        </UserObject>
        <mxCell id="48" value="&lt;div style=&quot;font-size: 1px&quot;&gt;&lt;font style=&quot;font-size:14.11px;font-family:Calibri;color:#000000;direction:ltr;letter-spacing:0px;line-height:120%;opacity:1&quot;&gt;WAN-21&lt;br/&gt;&lt;/font&gt;&lt;/div&gt;" style="text;vsdxID=184;fillColor=none;gradientColor=none;aspect=fixed;strokeColor=none;points=[[0.44,1,0]];labelBackgroundColor=none;rounded=0;html=1;whiteSpace=wrap;verticalAlign=top;align=center;;html=1;" parent="47" vertex="1">
          <mxGeometry x="-43.98" y="-26.22" width="200.25" as="geometry" />
        </mxCell>
        <UserObject label="" tags="Фон" id="49">
          <mxCell style="vsdxID=186;fillColor=none;gradientColor=none;strokeColor=none;points=[[0.5,0.5,0]];labelBackgroundColor=none;rounded=0;html=1;whiteSpace=wrap;" parent="1" vertex="1">
            <mxGeometry x="1320" y="459" width="42" height="71" as="geometry" />
          </mxCell>
        </UserObject>
        <mxCell id="50" style="vsdxID=187;fillColor=#FF00FF;gradientColor=#FF00FF;fillOpacity=0;strokeOpacity=0;shape=stencil(jZHdDsIgDIWfprcE2zn0es73WDImRISF4d/bC5LFucS5u9P2a3NyClQNquklIB+Cd2d5121QQAdA1FZJr0NUQDVQ1TkvT95dbZvrvklkUhd3SxceeU8QI0pbyJ+5s+H8XR8zbrSd4ONwhPec7dbTuGXFbxpLVoovfsHIzAbDtagoljz8jSOKT5SdNiZ/YjqfRx9b+W1UvwA=);points=[[0.5,0.5,0]];labelBackgroundColor=none;rounded=0;html=1;whiteSpace=wrap;" parent="49" vertex="1">
          <mxGeometry width="42" height="71" as="geometry" />
        </mxCell>
        <mxCell id="51" value="&lt;div style=&quot;font-size: 1px&quot;&gt;&lt;/div&gt;" style="verticalAlign=middle;align=center;overflow=width;vsdxID=188;fillColor=#e7e4cd;gradientColor=#ff6600;shape=stencil(UzV2Ls5ILEhVNTIoLinKz04tz0wpyVA1dlE1MsrMy0gtyiwBslSNXVWNndPyi1LTi/JL81Ig/IJEkEoQKze/DGRCBUSfAUiHkUElhGdopGcGFnCDqM3JzMOt1sAAt1KYJEyxhbmemTnxyvGYjN/BQAbCp2mZOTnIMuhhAhSChKexKwA=);strokeColor=#ffffff;spacingTop=-3;spacingBottom=-3;spacingLeft=-3;spacingRight=-3;points=[[0.5,0.5,0]];labelBackgroundColor=none;rounded=0;html=1;whiteSpace=wrap;" parent="49" vertex="1">
          <mxGeometry x="31" y="18" width="11" height="53" as="geometry" />
        </mxCell>
        <mxCell id="52" value="&lt;div style=&quot;font-size: 1px&quot;&gt;&lt;/div&gt;" style="verticalAlign=middle;align=center;overflow=width;vsdxID=189;fillColor=#e7e4cd;gradientColor=#ff6600;gradientDirection=north;shape=stencil(hZDdDoIwDIWfprfLbAkL14jvQcJgi3MjY6K+vRsLEUzQu9P2O/0DqifVjhKQT8G7q3zoLiigMyBqq6TXISqgBqjunZeDd3fb5XhsE5nUzc2pwzP7eHIgf+UIS1YUS+aSYaPtBhbEiHaGE+fH+FpcYYGsqo7xOLwUO8OP3n/2juJzca+N2Va+fxNT+a/UvAE=);strokeColor=#ffffff;spacingTop=-3;spacingBottom=-3;spacingLeft=-3;spacingRight=-3;points=[[0.5,0.5,0]];labelBackgroundColor=none;rounded=0;html=1;whiteSpace=wrap;" parent="49" vertex="1">
          <mxGeometry width="42" height="24" as="geometry" />
        </mxCell>
        <mxCell id="53" value="&lt;div style=&quot;font-size: 1px&quot;&gt;&lt;/div&gt;" style="verticalAlign=middle;align=center;overflow=width;vsdxID=190;fillColor=#e7e4cd;gradientColor=#ff6600;shape=stencil(UzV2Ls5ILEhVNTIoLinKz04tz0wpyVA1dlE1MsrMy0gtyiwBslSNXVWNndPyi1LTi/JL81Ig/IJEkEoQKze/DGRCBUSfAUiHkUElhGduqGdhCBZxgyjOycxDUmxogKocxidKsZGFnqElbuWoivGYS8DFQAbCr2mZOTnIMuihAhSChKixKwA=);strokeColor=#000000;spacingTop=-3;spacingBottom=-3;spacingLeft=-3;spacingRight=-3;points=[[0.5,0.5,0]];labelBackgroundColor=none;rounded=0;html=1;whiteSpace=wrap;" parent="49" vertex="1">
          <mxGeometry y="6" width="31" height="64" as="geometry" />
        </mxCell>
        <mxCell id="54" style="vsdxID=191;fillColor=#e7e4cd;gradientColor=#ff6600;shape=stencil(lVTNbsMgDH4arhbYGMi5696jUrMl2pZUabqtb1+iiI6UFcHNJN+PMbYF7c7d4dQKlOd5Gj/an/44d4JeBGI/dO3Uzz4StBe0exun9n0aL8NxPZ8OC3KJvsbvReF35cmFgfIan15X4Gc/REBroMENGC1Yfk5QcqutGjAYw7eJVOunhOD4r/5DMhjIhdpagrGl6sjgdI06E3BTqk4OrKlRNwZYlaozgqqqum2gOHXDIG2NeIPgMk3DJiR7zwYBM+mnBMegMg+rCNyWwBZ0pnVSgpVA9NyBdJiLu4OCjEGKNzrbPemdtQGtaorELlyqsEikIGOQ4rUfAF1TIz9ilBmClOCnBl3VOwNmDFK88usqxvvgb+mu+zr+97ig/ad1udP+Bg==);strokeColor=#e7e4cd;points=[[0.5,0.5,0]];labelBackgroundColor=none;rounded=0;html=1;whiteSpace=wrap;" parent="49" vertex="1">
          <mxGeometry x="2" y="8" width="37" height="59" as="geometry" />
        </mxCell>
        <mxCell id="55" value="&lt;div style=&quot;font-size: 1px&quot;&gt;&lt;/div&gt;" style="verticalAlign=middle;align=center;overflow=width;vsdxID=192;fillColor=#000000;gradientColor=none;shape=stencil(jZHdDoIwDIWfprdLbRH0GvE9SJhuUTcy5t/bu7kQYYmEu9P2a3NyClwPqu0lEA7e2Yt86s4r4AMQaaOk0z4o4Aa4Plknz87eTZfqvo1kVDf7iBdeaQ/jBuE7VVUhim/jmNirNhO2YsE84zeI//FxOMJ7FLv1NG2XrFApymrGLxjJbAhai+ZxBPHLMb1gOsszD630L24+);strokeColor=#000000;strokeWidth=2;spacingTop=-3;spacingBottom=-3;spacingLeft=-3;spacingRight=-3;points=[[0.5,0.5,0]];labelBackgroundColor=none;rounded=0;html=1;whiteSpace=wrap;" parent="49" vertex="1">
          <mxGeometry width="42" height="71" as="geometry" />
        </mxCell>
        <mxCell id="56" value="&lt;div style=&quot;font-size: 1px&quot;&gt;&lt;/div&gt;" style="text;vsdxID=186;fillColor=none;gradientColor=none;strokeColor=none;points=[[0.5,0.5,0]];labelBackgroundColor=none;rounded=0;html=1;whiteSpace=wrap;verticalAlign=middle;align=center;overflow=width;;html=1;" parent="49" vertex="1">
          <mxGeometry x="-87.48" y="26.77" width="11.29" height="31.61" as="geometry" />
        </mxCell>
        <UserObject label="&lt;div style=&quot;font-size: 1px&quot;&gt;&lt;font style=&quot;font-size:11.29px;font-family:Calibri;color:#000000;direction:ltr;letter-spacing:0px;line-height:120%;opacity:1&quot;&gt;Vlan 201 FHRP 10.1.0.9/29&lt;br/&gt;&lt;/font&gt;&lt;/div&gt;" tags="Соединительная_линия" id="101">
          <mxCell style="vsdxID=194;edgeStyle=none;startArrow=none;endArrow=none;startSize=5;endSize=5;strokeWidth=2;strokeColor=#ff0000;spacingTop=0;spacingBottom=0;spacingLeft=0;spacingRight=0;verticalAlign=middle;html=1;labelBackgroundColor=#FFFFFF;rounded=0;align=center;" parent="1" edge="1">
            <mxGeometry relative="1" as="geometry">
              <mxPoint x="9" as="offset" />
              <Array as="points" />
              <mxPoint x="1111" y="411" as="sourcePoint" />
              <mxPoint x="1341" y="411" as="targetPoint" />
            </mxGeometry>
          </mxCell>
        </UserObject>
        <UserObject label="&lt;div style=&quot;font-size: 1px&quot;&gt;&lt;p style=&quot;text-align:left;margin-left:0;margin-right:0;margin-top:0px;margin-bottom:0px;text-indent:0;vertical-align:middle;direction:ltr;&quot;&gt;&lt;font style=&quot;font-size:14.11px;font-family:Calibri;color:#000000;direction:ltr;letter-spacing:0px;line-height:120%;opacity:1&quot;&gt;Lo&lt;br/&gt;?&lt;br/&gt;&lt;/font&gt;&lt;/p&gt;&lt;/div&gt;" tags="Фон" id="57">
          <mxCell style="verticalAlign=middle;align=left;overflow=width;vsdxID=195;fillColor=none;gradientColor=none;shape=stencil(nZBLDoAgDERP0z3SIyjew0SURgSD+Lu9kMZoXLhwN9O+tukAlrNpJg1SzDH4QW/URgNYgZTkjA4UkwJUgGXng+6DX1zLfmoymdXo17xh5zmRJ6Q42BWCfc2oJfdAr+Yv+AP9Cb7OJ3H/2JG1HNGz/84klThPVCc=);strokeColor=none;points=[];labelBackgroundColor=none;rounded=0;html=1;whiteSpace=wrap;" parent="1" vertex="1">
            <mxGeometry x="1011" y="365" width="100" height="28" as="geometry" />
          </mxCell>
        </UserObject>
        <UserObject label="&lt;div style=&quot;font-size: 1px&quot;&gt;&lt;p style=&quot;text-align:left;margin-left:0;margin-right:0;margin-top:0px;margin-bottom:0px;text-indent:0;vertical-align:middle;direction:ltr;&quot;&gt;&lt;font style=&quot;font-size:14.11px;font-family:Calibri;color:#000000;direction:ltr;letter-spacing:0px;line-height:120%;opacity:1&quot;&gt;Lo&lt;br/&gt;?&lt;br/&gt;&lt;/font&gt;&lt;/p&gt;&lt;/div&gt;" tags="Фон" id="58">
          <mxCell style="verticalAlign=middle;align=left;overflow=width;vsdxID=196;fillColor=none;gradientColor=none;shape=stencil(nZBLDoAgDERP0z3SIyjew0SURgSD+Lu9kMZoXLhwN9O+tukAlrNpJg1SzDH4QW/URgNYgZTkjA4UkwJUgGXng+6DX1zLfmoymdXo17xh5zmRJ6Q42BWCfc2oJfdAr+Yv+AP9Cb7OJ3H/2JG1HNGz/84klThPVCc=);strokeColor=none;points=[];labelBackgroundColor=none;rounded=0;html=1;whiteSpace=wrap;" parent="1" vertex="1">
            <mxGeometry x="1347" y="365" width="100" height="28" as="geometry" />
          </mxCell>
        </UserObject>
        <UserObject label="&lt;div style=&quot;font-size: 1px&quot;&gt;&lt;p style=&quot;text-align:left;margin-left:0;margin-right:0;margin-top:0px;margin-bottom:0px;text-indent:0;vertical-align:middle;direction:ltr;&quot;&gt;&lt;font style=&quot;font-size:14.11px;font-family:Calibri;color:#000000;direction:ltr;letter-spacing:0px;line-height:120%;opacity:1&quot;&gt;Lo0&lt;br/&gt;10.30.0.10&lt;br/&gt;&lt;/font&gt;&lt;/p&gt;&lt;/div&gt;" tags="Фон" id="59">
          <mxCell style="verticalAlign=middle;align=left;overflow=width;vsdxID=197;fillColor=none;gradientColor=none;shape=stencil(nZBLDoAgDERP0z3SIyjew0SURgSD+Lu9kMZoXLhwN9O+tukAlrNpJg1SzDH4QW/URgNYgZTkjA4UkwJUgGXng+6DX1zLfmoymdXo17xh5zmRJ6Q42BWCfc2oJfdAr+Yv+AP9Cb7OJ3H/2JG1HNGz/84klThPVCc=);strokeColor=none;points=[];labelBackgroundColor=none;rounded=0;html=1;whiteSpace=wrap;" parent="1" vertex="1">
            <mxGeometry x="1087" y="730" width="100" height="28" as="geometry" />
          </mxCell>
        </UserObject>
        <UserObject label="&lt;div style=&quot;font-size: 1px&quot;&gt;&lt;p style=&quot;text-align:left;margin-left:0;margin-right:0;margin-top:0px;margin-bottom:0px;text-indent:0;vertical-align:middle;direction:ltr;&quot;&gt;&lt;font style=&quot;font-size:14.11px;font-family:Calibri;color:#000000;direction:ltr;letter-spacing:0px;line-height:120%;opacity:1&quot;&gt;Lo0&lt;br/&gt;10.30.100.10&lt;br/&gt;&lt;/font&gt;&lt;/p&gt;&lt;/div&gt;" tags="Фон" id="60">
          <mxCell style="verticalAlign=middle;align=left;overflow=width;vsdxID=198;fillColor=none;gradientColor=none;shape=stencil(nZBLDoAgDERP0z3SIyjew0SURgSD+Lu9kMZoXLhwN9O+tukAlrNpJg1SzDH4QW/URgNYgZTkjA4UkwJUgGXng+6DX1zLfmoymdXo17xh5zmRJ6Q42BWCfc2oJfdAr+Yv+AP9Cb7OJ3H/2JG1HNGz/84klThPVCc=);strokeColor=none;points=[];labelBackgroundColor=none;rounded=0;html=1;whiteSpace=wrap;" parent="1" vertex="1">
            <mxGeometry x="1397" y="729" width="100" height="28" as="geometry" />
          </mxCell>
        </UserObject>
        <UserObject label="&lt;div style=&quot;font-size: 1px&quot;&gt;&lt;font style=&quot;font-size:16.93px;font-family:Calibri;color:#000000;direction:ltr;letter-spacing:0px;line-height:120%;opacity:1&quot;&gt;&lt;b&gt;ASN 65031&lt;br/&gt;&lt;/b&gt;&lt;/font&gt;&lt;/div&gt;" tags="Фон" id="61">
          <mxCell style="verticalAlign=middle;align=center;overflow=width;vsdxID=218;fillColor=none;gradientColor=none;shape=stencil(nZBLDoAgDERP0z3SIyjew0SURgSD+Lu9kMZoXLhwN9O+tukAlrNpJg1SzDH4QW/URgNYgZTkjA4UkwJUgGXng+6DX1zLfmoymdXo17xh5zmRJ6Q42BWCfc2oJfdAr+Yv+AP9Cb7OJ3H/2JG1HNGz/84klThPVCc=);strokeColor=none;points=[];labelBackgroundColor=none;rounded=0;html=1;whiteSpace=wrap;" parent="1" vertex="1">
            <mxGeometry x="354" y="867" width="58" height="31" as="geometry" />
          </mxCell>
        </UserObject>
        <UserObject label="&lt;div style=&quot;font-size: 1px&quot;&gt;&lt;font style=&quot;font-size:16.93px;font-family:Calibri;color:#000000;direction:ltr;letter-spacing:0px;line-height:120%;opacity:1&quot;&gt;&lt;b&gt;ASN 65032&lt;br/&gt;&lt;/b&gt;&lt;/font&gt;&lt;/div&gt;" tags="Фон" id="62">
          <mxCell style="verticalAlign=middle;align=center;overflow=width;vsdxID=219;fillColor=none;gradientColor=none;shape=stencil(nZBLDoAgDERP0z3SIyjew0SURgSD+Lu9kMZoXLhwN9O+tukAlrNpJg1SzDH4QW/URgNYgZTkjA4UkwJUgGXng+6DX1zLfmoymdXo17xh5zmRJ6Q42BWCfc2oJfdAr+Yv+AP9Cb7OJ3H/2JG1HNGz/84klThPVCc=);strokeColor=none;points=[];labelBackgroundColor=none;rounded=0;html=1;whiteSpace=wrap;" parent="1" vertex="1">
            <mxGeometry x="1361" y="854" width="58" height="31" as="geometry" />
          </mxCell>
        </UserObject>
        <UserObject label="&lt;div style=&quot;font-size: 1px&quot;&gt;&lt;font style=&quot;font-size:16.93px;font-family:Calibri;color:#000000;direction:ltr;letter-spacing:0px;line-height:120%;opacity:1&quot;&gt;&lt;b&gt;DEFAULT ORIGINATE&lt;br/&gt;&lt;/b&gt;&lt;/font&gt;&lt;/div&gt;" tags="Фон" id="63">
          <mxCell style="verticalAlign=middle;align=center;overflow=width;vsdxID=220;fillColor=none;gradientColor=none;shape=stencil(nZBLDoAgDERP0z3SIyjew0SURgSD+Lu9kMZoXLhwN9O+tukAlrNpJg1SzDH4QW/URgNYgZTkjA4UkwJUgGXng+6DX1zLfmoymdXo17xh5zmRJ6Q42BWCfc2oJfdAr+Yv+AP9Cb7OJ3H/2JG1HNGz/84klThPVCc=);strokeColor=none;points=[];labelBackgroundColor=none;rounded=0;html=1;whiteSpace=wrap;" parent="1" vertex="1">
            <mxGeometry x="1162" y="216" width="139" height="31" as="geometry" />
          </mxCell>
        </UserObject>
        <UserObject label="&lt;div style=&quot;font-size: 1px&quot;&gt;&lt;p style=&quot;text-align:center;margin-left:0;margin-right:0;margin-top:0px;margin-bottom:0px;text-indent:0;vertical-align:middle;direction:ltr;&quot;&gt;&lt;font style=&quot;font-size:11.29px;font-family:Calibri;color:#7030a0;direction:ltr;letter-spacing:0px;line-height:120%;opacity:1&quot;&gt;&lt;b&gt; Announce  &lt;br/&gt;10.1.30.02/24&lt;br/&gt;10.1.40.0/24&lt;/b&gt;&lt;/font&gt;&lt;font style=&quot;font-size:11.29px;font-family:Calibri;color:#7030a0;direction:ltr;letter-spacing:0px;line-height:120%;opacity:1&quot;&gt;&lt;b&gt;&lt;br/&gt;&lt;/b&gt;&lt;/font&gt;&lt;/p&gt;&lt;/div&gt;" tags="Соединительная_линия" id="102">
          <mxCell style="vsdxID=223;edgeStyle=none;startArrow=none;endArrow=block;startSize=5;endSize=5;strokeWidth=2;strokeColor=#7030a0;spacingTop=0;spacingBottom=0;spacingLeft=0;spacingRight=0;verticalAlign=middle;html=1;labelBackgroundColor=#FFFFFF;rounded=0;align=center;" parent="1" edge="1">
            <mxGeometry relative="1" as="geometry">
              <mxPoint x="12" as="offset" />
              <Array as="points" />
              <mxPoint x="933" y="808" as="sourcePoint" />
              <mxPoint x="933" y="618" as="targetPoint" />
            </mxGeometry>
          </mxCell>
        </UserObject>
        <UserObject label="&lt;div style=&quot;font-size: 1px&quot;&gt;&lt;p style=&quot;text-align:center;margin-left:0;margin-right:0;margin-top:0px;margin-bottom:0px;text-indent:0;vertical-align:middle;direction:ltr;&quot;&gt;&lt;font style=&quot;font-size:11.29px;font-family:Calibri;color:#7030a0;direction:ltr;letter-spacing:0px;line-height:120%;opacity:1&quot;&gt;&lt;b&gt;Announce  &lt;br/&gt;&lt;/b&gt;&lt;/font&gt;&lt;font style=&quot;font-size:11.29px;font-family:Calibri;color:#7030a0;direction:ltr;letter-spacing:0px;line-height:120%;opacity:1&quot;&gt;&lt;b&gt;0&lt;/b&gt;&lt;/font&gt;&lt;font style=&quot;font-size:11.29px;font-family:Calibri;color:#7030a0;direction:ltr;letter-spacing:0px;line-height:120%;opacity:1&quot;&gt;&lt;b&gt;.0.0.0/0&lt;/b&gt;&lt;/font&gt;&lt;font style=&quot;font-size:11.29px;font-family:Calibri;color:#7030a0;direction:ltr;letter-spacing:0px;line-height:120%;opacity:1&quot;&gt;&lt;b&gt;&lt;br/&gt;&lt;/b&gt;&lt;/font&gt;&lt;/p&gt;&lt;/div&gt;" tags="Соединительная_линия" id="103">
          <mxCell style="vsdxID=224;edgeStyle=none;startArrow=none;endArrow=block;startSize=5;endSize=5;strokeWidth=2;strokeColor=#7030a0;spacingTop=0;spacingBottom=0;spacingLeft=0;spacingRight=0;verticalAlign=middle;html=1;labelBackgroundColor=#FFFFFF;rounded=0;align=center;" parent="1" edge="1">
            <mxGeometry relative="1" as="geometry">
              <mxPoint x="12" y="-2" as="offset" />
              <Array as="points" />
              <mxPoint x="933" y="322" as="sourcePoint" />
              <mxPoint x="933" y="526" as="targetPoint" />
            </mxGeometry>
          </mxCell>
        </UserObject>
        <UserObject label="&lt;div style=&quot;font-size: 1px&quot;&gt;&lt;p style=&quot;text-align:center;margin-left:0;margin-right:0;margin-top:0px;margin-bottom:0px;text-indent:0;vertical-align:middle;direction:ltr;&quot;&gt;&lt;font style=&quot;font-size:11.29px;font-family:Calibri;color:#7030a0;direction:ltr;letter-spacing:0px;line-height:120%;opacity:1&quot;&gt;&lt;b&gt; Announce  &lt;br/&gt;10.0.10.0/24&lt;br/&gt;&lt;/b&gt;&lt;/font&gt;&lt;font style=&quot;font-size:11.29px;font-family:Calibri;color:#7030a0;direction:ltr;letter-spacing:0px;line-height:120%;opacity:1&quot;&gt;&lt;b&gt;10.0.20.0/24&lt;/b&gt;&lt;/font&gt;&lt;font style=&quot;font-size:11.29px;font-family:Calibri;color:#7030a0;direction:ltr;letter-spacing:0px;line-height:120%;opacity:1&quot;&gt;&lt;b&gt;&lt;br/&gt;&lt;/b&gt;&lt;/font&gt;&lt;/p&gt;&lt;/div&gt;" tags="Соединительная_линия" id="104">
          <mxCell style="vsdxID=243;edgeStyle=none;startArrow=none;endArrow=block;startSize=5;endSize=5;strokeWidth=2;strokeColor=#7030a0;spacingTop=0;spacingBottom=0;spacingLeft=0;spacingRight=0;verticalAlign=middle;html=1;labelBackgroundColor=#FFFFFF;rounded=0;align=center;" parent="1" edge="1">
            <mxGeometry relative="1" as="geometry">
              <mxPoint x="12" as="offset" />
              <Array as="points" />
              <mxPoint x="247" y="797" as="sourcePoint" />
              <mxPoint x="247" y="606" as="targetPoint" />
            </mxGeometry>
          </mxCell>
        </UserObject>
        <UserObject label="&lt;div style=&quot;font-size: 1px&quot;&gt;&lt;p style=&quot;text-align:center;margin-left:0;margin-right:0;margin-top:0px;margin-bottom:0px;text-indent:0;vertical-align:middle;direction:ltr;&quot;&gt;&lt;font style=&quot;font-size:11.29px;font-family:Calibri;color:#7030a0;direction:ltr;letter-spacing:0px;line-height:120%;opacity:1&quot;&gt;&lt;b&gt;Announce  &lt;br/&gt;&lt;/b&gt;&lt;/font&gt;&lt;font style=&quot;font-size:11.29px;font-family:Calibri;color:#7030a0;direction:ltr;letter-spacing:0px;line-height:120%;opacity:1&quot;&gt;&lt;b&gt;0&lt;/b&gt;&lt;/font&gt;&lt;font style=&quot;font-size:11.29px;font-family:Calibri;color:#7030a0;direction:ltr;letter-spacing:0px;line-height:120%;opacity:1&quot;&gt;&lt;b&gt;.0.0.0/0&lt;/b&gt;&lt;/font&gt;&lt;font style=&quot;font-size:11.29px;font-family:Calibri;color:#7030a0;direction:ltr;letter-spacing:0px;line-height:120%;opacity:1&quot;&gt;&lt;b&gt;&lt;br/&gt;&lt;/b&gt;&lt;/font&gt;&lt;/p&gt;&lt;/div&gt;" tags="Соединительная_линия" id="105">
          <mxCell style="vsdxID=244;edgeStyle=none;startArrow=none;endArrow=block;startSize=5;endSize=5;strokeWidth=2;strokeColor=#7030a0;spacingTop=0;spacingBottom=0;spacingLeft=0;spacingRight=0;verticalAlign=middle;html=1;labelBackgroundColor=#FFFFFF;rounded=0;align=center;" parent="1" edge="1">
            <mxGeometry relative="1" as="geometry">
              <mxPoint x="12" y="-2" as="offset" />
              <Array as="points" />
              <mxPoint x="247" y="311" as="sourcePoint" />
              <mxPoint x="247" y="514" as="targetPoint" />
            </mxGeometry>
          </mxCell>
        </UserObject>
        <UserObject label="&lt;div style=&quot;font-size: 1px&quot;&gt;&lt;p style=&quot;text-align:center;margin-left:0;margin-right:0;margin-top:0px;margin-bottom:0px;text-indent:0;vertical-align:middle;direction:ltr;&quot;&gt;&lt;font style=&quot;font-size:11.29px;font-family:Calibri;color:#000000;direction:ltr;letter-spacing:0px;line-height:120%;opacity:1&quot;&gt;FW-ASA&lt;br/&gt;(act)&lt;br/&gt;ctx PROM&lt;/font&gt;&lt;font style=&quot;font-size:16.93px;font-family:Calibri;color:#000000;direction:ltr;letter-spacing:0px;line-height:120%;opacity:1&quot;&gt;&lt;b&gt;&lt;br/&gt;&lt;/b&gt;&lt;/font&gt;&lt;/p&gt;&lt;/div&gt;" tags="Фон" id="64">
          <mxCell style="verticalAlign=middle;align=center;overflow=width;vsdxID=273;fillColor=none;gradientColor=none;shape=stencil(nZBLDoAgDERP0z3SIyjew0SURgSD+Lu9kMZoXLhwN9O+tukAlrNpJg1SzDH4QW/URgNYgZTkjA4UkwJUgGXng+6DX1zLfmoymdXo17xh5zmRJ6Q42BWCfc2oJfdAr+Yv+AP9Cb7OJ3H/2JG1HNGz/84klThPVCc=);strokeColor=none;points=[];labelBackgroundColor=none;rounded=0;html=1;whiteSpace=wrap;" parent="1" vertex="1">
            <mxGeometry x="346" y="467" width="78" height="50" as="geometry" />
          </mxCell>
        </UserObject>
        <UserObject label="&lt;div style=&quot;font-size: 1px&quot;&gt;&lt;p style=&quot;text-align:center;margin-left:0;margin-right:0;margin-top:0px;margin-bottom:0px;text-indent:0;vertical-align:middle;direction:ltr;&quot;&gt;&lt;font style=&quot;font-size:11.29px;font-family:Calibri;color:#000000;direction:ltr;letter-spacing:0px;line-height:120%;opacity:1&quot;&gt;FW-ASA&lt;br/&gt;(act)&lt;br/&gt;ctx PROM&lt;/font&gt;&lt;font style=&quot;font-size:16.93px;font-family:Calibri;color:#000000;direction:ltr;letter-spacing:0px;line-height:120%;opacity:1&quot;&gt;&lt;b&gt;&lt;br/&gt;&lt;/b&gt;&lt;/font&gt;&lt;/p&gt;&lt;/div&gt;" tags="Фон" id="65">
          <mxCell style="verticalAlign=middle;align=center;overflow=width;vsdxID=275;fillColor=none;gradientColor=none;shape=stencil(nZBLDoAgDERP0z3SIyjew0SURgSD+Lu9kMZoXLhwN9O+tukAlrNpJg1SzDH4QW/URgNYgZTkjA4UkwJUgGXng+6DX1zLfmoymdXo17xh5zmRJ6Q42BWCfc2oJfdAr+Yv+AP9Cb7OJ3H/2JG1HNGz/84klThPVCc=);strokeColor=none;points=[];labelBackgroundColor=none;rounded=0;html=1;whiteSpace=wrap;" parent="1" vertex="1">
            <mxGeometry x="577" y="470" width="78" height="50" as="geometry" />
          </mxCell>
        </UserObject>
        <UserObject label="&lt;div style=&quot;font-size: 1px&quot;&gt;&lt;p style=&quot;text-align:center;margin-left:0;margin-right:0;margin-top:0px;margin-bottom:0px;text-indent:0;vertical-align:middle;direction:ltr;&quot;&gt;&lt;font style=&quot;font-size:11.29px;font-family:Calibri;color:#000000;direction:ltr;letter-spacing:0px;line-height:120%;opacity:1&quot;&gt;FW-ASA&lt;br/&gt;(act)&lt;br/&gt;ctx TEST&lt;/font&gt;&lt;font style=&quot;font-size:16.93px;font-family:Calibri;color:#000000;direction:ltr;letter-spacing:0px;line-height:120%;opacity:1&quot;&gt;&lt;b&gt;&lt;br/&gt;&lt;/b&gt;&lt;/font&gt;&lt;/p&gt;&lt;/div&gt;" tags="Фон" id="66">
          <mxCell style="verticalAlign=middle;align=center;overflow=width;vsdxID=276;fillColor=none;gradientColor=none;shape=stencil(nZBLDoAgDERP0z3SIyjew0SURgSD+Lu9kMZoXLhwN9O+tukAlrNpJg1SzDH4QW/URgNYgZTkjA4UkwJUgGXng+6DX1zLfmoymdXo17xh5zmRJ6Q42BWCfc2oJfdAr+Yv+AP9Cb7OJ3H/2JG1HNGz/84klThPVCc=);strokeColor=none;points=[];labelBackgroundColor=none;rounded=0;html=1;whiteSpace=wrap;" parent="1" vertex="1">
            <mxGeometry x="1016" y="464" width="78" height="50" as="geometry" />
          </mxCell>
        </UserObject>
        <UserObject label="&lt;div style=&quot;font-size: 1px&quot;&gt;&lt;p style=&quot;text-align:center;margin-left:0;margin-right:0;margin-top:0px;margin-bottom:0px;text-indent:0;vertical-align:middle;direction:ltr;&quot;&gt;&lt;font style=&quot;font-size:11.29px;font-family:Calibri;color:#000000;direction:ltr;letter-spacing:0px;line-height:120%;opacity:1&quot;&gt;FW-ASA&lt;br/&gt;(stby)&lt;br/&gt;ctx TEST&lt;/font&gt;&lt;font style=&quot;font-size:16.93px;font-family:Calibri;color:#000000;direction:ltr;letter-spacing:0px;line-height:120%;opacity:1&quot;&gt;&lt;b&gt;&lt;br/&gt;&lt;/b&gt;&lt;/font&gt;&lt;/p&gt;&lt;/div&gt;" tags="Фон" id="67">
          <mxCell style="verticalAlign=middle;align=center;overflow=width;vsdxID=278;fillColor=none;gradientColor=none;shape=stencil(nZBLDoAgDERP0z3SIyjew0SURgSD+Lu9kMZoXLhwN9O+tukAlrNpJg1SzDH4QW/URgNYgZTkjA4UkwJUgGXng+6DX1zLfmoymdXo17xh5zmRJ6Q42BWCfc2oJfdAr+Yv+AP9Cb7OJ3H/2JG1HNGz/84klThPVCc=);strokeColor=none;points=[];labelBackgroundColor=none;rounded=0;html=1;whiteSpace=wrap;" parent="1" vertex="1">
            <mxGeometry x="1242" y="467" width="78" height="50" as="geometry" />
          </mxCell>
        </UserObject>
        <UserObject label="&lt;div style=&quot;font-size: 1px&quot;&gt;&lt;/div&gt;" tags="Соединительная_линия" id="106">
          <mxCell style="vsdxID=280;edgeStyle=none;startArrow=none;endArrow=block;startSize=5;endSize=5;strokeWidth=2;strokeColor=#7030a0;spacingTop=0;spacingBottom=0;spacingLeft=0;spacingRight=0;verticalAlign=middle;html=1;labelBackgroundColor=#FFFFFF;rounded=0;align=center;" parent="1" edge="1">
            <mxGeometry relative="1" as="geometry">
              <mxPoint x="12" y="-1" as="offset" />
              <Array as="points" />
              <mxPoint x="1231" y="165" as="sourcePoint" />
              <mxPoint x="1231" y="299" as="targetPoint" />
            </mxGeometry>
          </mxCell>
        </UserObject>
        <UserObject label="&lt;div style=&quot;font-size: 1px&quot;&gt;&lt;font style=&quot;font-size:16.93px;font-family:Calibri;color:#000000;direction:ltr;letter-spacing:0px;line-height:120%;opacity:1&quot;&gt;&lt;b&gt;DEFAULT ORIGINATE&lt;br/&gt;&lt;/b&gt;&lt;/font&gt;&lt;/div&gt;" tags="Фон" id="68">
          <mxCell style="verticalAlign=middle;align=center;overflow=width;vsdxID=281;fillColor=none;gradientColor=none;shape=stencil(nZBLDoAgDERP0z3SIyjew0SURgSD+Lu9kMZoXLhwN9O+tukAlrNpJg1SzDH4QW/URgNYgZTkjA4UkwJUgGXng+6DX1zLfmoymdXo17xh5zmRJ6Q42BWCfc2oJfdAr+Yv+AP9Cb7OJ3H/2JG1HNGz/84klThPVCc=);strokeColor=none;points=[];labelBackgroundColor=none;rounded=0;html=1;whiteSpace=wrap;" parent="1" vertex="1">
            <mxGeometry x="482" y="226" width="139" height="31" as="geometry" />
          </mxCell>
        </UserObject>
        <UserObject label="&lt;div style=&quot;font-size: 1px&quot;&gt;&lt;/div&gt;" tags="Соединительная_линия" id="107">
          <mxCell style="vsdxID=282;edgeStyle=none;startArrow=none;endArrow=block;startSize=5;endSize=5;strokeWidth=2;strokeColor=#7030a0;spacingTop=0;spacingBottom=0;spacingLeft=0;spacingRight=0;verticalAlign=middle;html=1;labelBackgroundColor=#FFFFFF;rounded=0;align=center;" parent="1" edge="1">
            <mxGeometry relative="1" as="geometry">
              <mxPoint x="12" y="-1" as="offset" />
              <Array as="points" />
              <mxPoint x="552" y="175" as="sourcePoint" />
              <mxPoint x="552" y="308" as="targetPoint" />
            </mxGeometry>
          </mxCell>
        </UserObject>
        <UserObject label="&lt;div style=&quot;font-size: 1px&quot;&gt;&lt;font style=&quot;font-size:16.93px;font-family:Calibri;color:#000000;direction:ltr;letter-spacing:0px;line-height:120%;opacity:1&quot;&gt;&lt;b&gt;ASN 65032&lt;br/&gt;&lt;/b&gt;&lt;/font&gt;&lt;/div&gt;" tags="Фон" id="69">
          <mxCell style="verticalAlign=middle;align=center;overflow=width;vsdxID=286;fillColor=none;gradientColor=none;shape=stencil(nZBLDoAgDERP0z3SIyjew0SURgSD+Lu9kMZoXLhwN9O+tukAlrNpJg1SzDH4QW/URgNYgZTkjA4UkwJUgGXng+6DX1zLfmoymdXo17xh5zmRJ6Q42BWCfc2oJfdAr+Yv+AP9Cb7OJ3H/2JG1HNGz/84klThPVCc=);strokeColor=none;points=[];labelBackgroundColor=none;rounded=0;html=1;whiteSpace=wrap;" parent="1" vertex="1">
            <mxGeometry x="679" y="864" width="58" height="31" as="geometry" />
          </mxCell>
        </UserObject>
        <UserObject label="&lt;div style=&quot;font-size: 1px&quot;&gt;&lt;font style=&quot;font-size:11.29px;font-family:Calibri;color:#000000;direction:ltr;letter-spacing:0px;line-height:120%;opacity:1&quot;&gt;eBGP Multihop 4&lt;br/&gt;&lt;/font&gt;&lt;/div&gt;" tags="Соединительная_линия" id="108">
          <mxCell style="vsdxID=287;edgeStyle=none;dashed=1;dashPattern=12.00 6.00;startArrow=block;endArrow=block;startSize=5;endSize=5;strokeColor=#7030a0;spacingTop=0;spacingBottom=0;spacingLeft=0;spacingRight=0;verticalAlign=middle;html=1;labelBackgroundColor=#ffffff;rounded=0;align=center;" parent="1" edge="1">
            <mxGeometry relative="1" as="geometry">
              <Array as="points" />
              <mxPoint x="383" y="765" as="sourcePoint" />
              <mxPoint x="422" y="362" as="targetPoint" />
            </mxGeometry>
          </mxCell>
        </UserObject>
        <UserObject label="&lt;div style=&quot;font-size: 1px&quot;&gt;&lt;font style=&quot;font-size:16.93px;font-family:Calibri;color:#000000;direction:ltr;letter-spacing:0px;line-height:120%;opacity:1&quot;&gt;&lt;b&gt;ASN 65031&lt;br/&gt;&lt;/b&gt;&lt;/font&gt;&lt;/div&gt;" tags="Фон" id="70">
          <mxCell style="verticalAlign=middle;align=center;overflow=width;vsdxID=292;fillColor=none;gradientColor=none;shape=stencil(nZBLDoAgDERP0z3SIyjew0SURgSD+Lu9kMZoXLhwN9O+tukAlrNpJg1SzDH4QW/URgNYgZTkjA4UkwJUgGXng+6DX1zLfmoymdXo17xh5zmRJ6Q42BWCfc2oJfdAr+Yv+AP9Cb7OJ3H/2JG1HNGz/84klThPVCc=);strokeColor=none;points=[];labelBackgroundColor=none;rounded=0;html=1;whiteSpace=wrap;" parent="1" vertex="1">
            <mxGeometry x="1044" y="857" width="58" height="31" as="geometry" />
          </mxCell>
        </UserObject>
        <UserObject label="" tags="Соединительная_линия" id="71">
          <mxCell style="vsdxID=200;edgeStyle=none;dashed=1;dashPattern=12.00 6.00;startArrow=block;endArrow=none;startSize=5;endSize=5;strokeColor=#7030a0;spacingTop=0;spacingBottom=0;spacingLeft=0;spacingRight=0;verticalAlign=middle;html=1;labelBackgroundColor=#ffffff;rounded=0;exitX=0.18627450980392157;exitY=0.10204081632653061;exitDx=0;exitDy=0;exitPerimeter=0;entryX=0.5;entryY=0.5070422535211268;entryDx=0;entryDy=0;entryPerimeter=0;" parent="1" source="35" target="37" edge="1">
            <mxGeometry relative="1" as="geometry">
              <Array as="points" />
            </mxGeometry>
          </mxCell>
        </UserObject>
        <UserObject label="&lt;div style=&quot;font-size: 1px&quot;&gt;&lt;font style=&quot;font-size:11.29px;font-family:Calibri;color:#000000;direction:ltr;letter-spacing:0px;line-height:120%;opacity:1&quot;&gt;eBGP Multihop 4&lt;br/&gt;&lt;/font&gt;&lt;/div&gt;" tags="Соединительная_линия" id="72">
          <mxCell style="vsdxID=199;edgeStyle=none;dashed=1;dashPattern=12.00 6.00;startArrow=block;endArrow=block;startSize=5;endSize=5;strokeColor=#7030a0;spacingTop=0;spacingBottom=0;spacingLeft=0;spacingRight=0;verticalAlign=middle;html=1;labelBackgroundColor=#ffffff;rounded=0;align=center;exitX=0.4411764705882353;exitY=0;exitDx=0;exitDy=0;exitPerimeter=0;entryX=0.4411764705882353;entryY=1.0204081632653061;entryDx=0;entryDy=0;entryPerimeter=0;" parent="1" source="33" target="45" edge="1">
            <mxGeometry relative="1" as="geometry">
              <Array as="points" />
            </mxGeometry>
          </mxCell>
        </UserObject>
        <UserObject label="&lt;div style=&quot;font-size: 1px&quot;&gt;&lt;p style=&quot;text-align:center;margin-left:0;margin-right:0;margin-top:0px;margin-bottom:0px;text-indent:0;vertical-align:middle;direction:ltr;&quot;&gt;&lt;font style=&quot;font-size:11.29px;font-family:Calibri;color:#000000;direction:ltr;letter-spacing:0px;line-height:120%;opacity:1&quot;&gt;10.1.0.10&lt;/font&gt;&lt;font style=&quot;font-size:11.29px;font-family:Calibri;color:#000000;direction:ltr;letter-spacing:0px;line-height:120%;opacity:1&quot;&gt;&lt;br/&gt;&lt;/font&gt;&lt;/p&gt;&lt;/div&gt;" tags="Соединительная_линия" id="73">
          <mxCell style="vsdxID=193;edgeStyle=none;startArrow=none;endArrow=none;startSize=5;endSize=5;strokeWidth=2;strokeColor=#ff0000;spacingTop=0;spacingBottom=0;spacingLeft=0;spacingRight=0;verticalAlign=middle;html=1;labelBackgroundColor=#FFFFFF;rounded=0;align=center;exitX=0.5;exitY=1.0204081632653061;exitDx=0;exitDy=0;exitPerimeter=0;entryX=0.5;entryY=0.08450704225352113;entryDx=0;entryDy=0;entryPerimeter=0;" parent="1" source="45" target="37" edge="1">
            <mxGeometry relative="1" as="geometry">
              <mxPoint x="12" y="33" as="offset" />
              <Array as="points" />
            </mxGeometry>
          </mxCell>
        </UserObject>
        <UserObject label="&lt;div style=&quot;font-size: 1px&quot;&gt;&lt;p style=&quot;text-align:center;margin-left:0;margin-right:0;margin-top:0px;margin-bottom:0px;text-indent:0;vertical-align:middle;direction:ltr;&quot;&gt;&lt;font style=&quot;font-size:11.29px;font-family:Calibri;color:#000000;direction:ltr;letter-spacing:0px;line-height:120%;opacity:1&quot;&gt;10.1.0.11&lt;/font&gt;&lt;font style=&quot;font-size:11.29px;font-family:Calibri;color:#000000;direction:ltr;letter-spacing:0px;line-height:120%;opacity:1&quot;&gt;&lt;br/&gt;&lt;/font&gt;&lt;/p&gt;&lt;/div&gt;" tags="Соединительная_линия" id="74">
          <mxCell style="vsdxID=185;edgeStyle=none;startArrow=none;endArrow=none;startSize=5;endSize=5;strokeWidth=2;strokeColor=#ff0000;spacingTop=0;spacingBottom=0;spacingLeft=0;spacingRight=0;verticalAlign=middle;html=1;labelBackgroundColor=#FFFFFF;rounded=0;align=center;exitX=0.5;exitY=1.0204081632653061;exitDx=0;exitDy=0;exitPerimeter=0;entryX=0.5;entryY=0.5070422535211268;entryDx=0;entryDy=0;entryPerimeter=0;" parent="1" source="47" target="49" edge="1">
            <mxGeometry relative="1" as="geometry">
              <mxPoint x="12" y="13" as="offset" />
              <Array as="points" />
            </mxGeometry>
          </mxCell>
        </UserObject>
        <mxCell id="75" parent="1" vertex="1">
          <mxGeometry x="1387" y="646" as="geometry" />
        </mxCell>
        <UserObject label="&lt;div style=&quot;font-size: 1px&quot;&gt;&lt;/div&gt;" tags="Соединительная_линия" id="76">
          <mxCell style="vsdxID=173;edgeStyle=none;startArrow=none;endArrow=none;startSize=5;endSize=5;strokeWidth=2;strokeColor=#ff0000;spacingTop=0;spacingBottom=0;spacingLeft=0;spacingRight=0;verticalAlign=middle;html=1;labelBackgroundColor=#FFFFFF;rounded=0;align=center;entryX=0.5;entryY=0;entryDx=0;entryDy=0;entryPerimeter=0;" parent="1" source="75" target="35" edge="1">
            <mxGeometry relative="1" as="geometry">
              <mxPoint x="-14" y="36" as="offset" />
              <Array as="points" />
            </mxGeometry>
          </mxCell>
        </UserObject>
        <mxCell id="77" parent="1" vertex="1">
          <mxGeometry x="1072" y="647" as="geometry" />
        </mxCell>
        <UserObject label="&lt;div style=&quot;font-size: 1px&quot;&gt;&lt;/div&gt;" tags="Соединительная_линия" id="78">
          <mxCell style="vsdxID=172;edgeStyle=none;startArrow=none;endArrow=none;startSize=5;endSize=5;strokeWidth=2;strokeColor=#ff0000;spacingTop=0;spacingBottom=0;spacingLeft=0;spacingRight=0;verticalAlign=middle;html=1;labelBackgroundColor=#FFFFFF;rounded=0;align=center;entryX=0.5098039215686274;entryY=0;entryDx=0;entryDy=0;entryPerimeter=0;" parent="1" source="77" target="33" edge="1">
            <mxGeometry relative="1" as="geometry">
              <mxPoint x="-14" y="32" as="offset" />
              <Array as="points" />
            </mxGeometry>
          </mxCell>
        </UserObject>
        <mxCell id="79" parent="1" vertex="1">
          <mxGeometry x="397" y="648" as="geometry" />
        </mxCell>
        <UserObject label="&lt;div style=&quot;font-size: 1px&quot;&gt;&lt;/div&gt;" tags="Соединительная_линия" id="80">
          <mxCell style="vsdxID=47;edgeStyle=none;startArrow=none;endArrow=none;startSize=5;endSize=5;strokeWidth=2;strokeColor=#00b0f0;spacingTop=0;spacingBottom=0;spacingLeft=0;spacingRight=0;verticalAlign=middle;html=1;labelBackgroundColor=#FFFFFF;rounded=0;align=center;entryX=0.5;entryY=0;entryDx=0;entryDy=0;entryPerimeter=0;" parent="1" source="79" target="5" edge="1">
            <mxGeometry relative="1" as="geometry">
              <mxPoint x="-14" y="32" as="offset" />
              <Array as="points" />
            </mxGeometry>
          </mxCell>
        </UserObject>
        <mxCell id="81" parent="1" vertex="1">
          <mxGeometry x="712" y="648" as="geometry" />
        </mxCell>
        <UserObject label="&lt;div style=&quot;font-size: 1px&quot;&gt;&lt;/div&gt;" tags="Соединительная_линия" id="82">
          <mxCell style="vsdxID=48;edgeStyle=none;startArrow=none;endArrow=none;startSize=5;endSize=5;strokeWidth=2;strokeColor=#00b0f0;spacingTop=0;spacingBottom=0;spacingLeft=0;spacingRight=0;verticalAlign=middle;html=1;labelBackgroundColor=#FFFFFF;rounded=0;align=center;entryX=0.5;entryY=0;entryDx=0;entryDy=0;entryPerimeter=0;" parent="1" source="81" target="7" edge="1">
            <mxGeometry relative="1" as="geometry">
              <mxPoint x="11" y="36" as="offset" />
              <Array as="points" />
            </mxGeometry>
          </mxCell>
        </UserObject>
        <UserObject label="&lt;div style=&quot;font-size: 1px&quot;&gt;&lt;p style=&quot;text-align:center;margin-left:0;margin-right:0;margin-top:0px;margin-bottom:0px;text-indent:0;vertical-align:middle;direction:ltr;&quot;&gt;&lt;font style=&quot;font-size:11.29px;font-family:Calibri;color:#000000;direction:ltr;letter-spacing:0px;line-height:120%;opacity:1&quot;&gt;10.0.0.11&lt;/font&gt;&lt;font style=&quot;font-size:11.29px;font-family:Calibri;color:#000000;direction:ltr;letter-spacing:0px;line-height:120%;opacity:1&quot;&gt;&lt;br/&gt;&lt;/font&gt;&lt;/p&gt;&lt;/div&gt;" tags="Соединительная_линия" id="83">
          <mxCell style="vsdxID=84;edgeStyle=none;startArrow=none;endArrow=none;startSize=5;endSize=5;strokeWidth=2;strokeColor=#00b0f0;spacingTop=0;spacingBottom=0;spacingLeft=0;spacingRight=0;verticalAlign=middle;html=1;labelBackgroundColor=#FFFFFF;rounded=0;align=center;exitX=0.5;exitY=1.0204081632653061;exitDx=0;exitDy=0;exitPerimeter=0;entryX=0.5;entryY=0.49295774647887325;entryDx=0;entryDy=0;entryPerimeter=0;" parent="1" source="19" target="21" edge="1">
            <mxGeometry relative="1" as="geometry">
              <mxPoint x="-13" y="14" as="offset" />
              <Array as="points" />
            </mxGeometry>
          </mxCell>
        </UserObject>
        <UserObject label="&lt;div style=&quot;font-size: 1px&quot;&gt;&lt;p style=&quot;text-align:center;margin-left:0;margin-right:0;margin-top:0px;margin-bottom:0px;text-indent:0;vertical-align:middle;direction:ltr;&quot;&gt;&lt;font style=&quot;font-size:11.29px;font-family:Calibri;color:#000000;direction:ltr;letter-spacing:0px;line-height:120%;opacity:1&quot;&gt;10.0.0.10&lt;/font&gt;&lt;font style=&quot;font-size:11.29px;font-family:Calibri;color:#000000;direction:ltr;letter-spacing:0px;line-height:120%;opacity:1&quot;&gt;&lt;br/&gt;&lt;/font&gt;&lt;/p&gt;&lt;/div&gt;" tags="Соединительная_линия" id="84">
          <mxCell style="vsdxID=87;edgeStyle=none;startArrow=none;endArrow=none;startSize=5;endSize=5;strokeWidth=2;strokeColor=#00b0f0;spacingTop=0;spacingBottom=0;spacingLeft=0;spacingRight=0;verticalAlign=middle;html=1;labelBackgroundColor=#FFFFFF;rounded=0;align=center;exitX=0.5098039215686274;exitY=1.0204081632653061;exitDx=0;exitDy=0;exitPerimeter=0;entryX=0.5238095238095238;entryY=0.07042253521126761;entryDx=0;entryDy=0;entryPerimeter=0;" parent="1" source="17" target="9" edge="1">
            <mxGeometry relative="1" as="geometry">
              <mxPoint x="12" y="30" as="offset" />
              <Array as="points" />
            </mxGeometry>
          </mxCell>
        </UserObject>
        <UserObject label="" tags="Соединительная_линия" id="85">
          <mxCell style="vsdxID=94;edgeStyle=none;dashed=1;dashPattern=12.00 6.00;startArrow=block;endArrow=none;startSize=5;endSize=5;strokeColor=#7030a0;spacingTop=0;spacingBottom=0;spacingLeft=0;spacingRight=0;verticalAlign=middle;html=1;labelBackgroundColor=#ffffff;rounded=0;exitX=0.18627450980392157;exitY=0.10204081632653061;exitDx=0;exitDy=0;exitPerimeter=0;entryX=0.5238095238095238;entryY=0.49295774647887325;entryDx=0;entryDy=0;entryPerimeter=0;" parent="1" source="7" target="9" edge="1">
            <mxGeometry relative="1" as="geometry">
              <Array as="points" />
            </mxGeometry>
          </mxCell>
        </UserObject>
        <mxCell id="86" parent="1" vertex="1">
          <mxGeometry x="1335" y="360" as="geometry" />
        </mxCell>
        <UserObject label="" tags="Соединительная_линия" id="87">
          <mxCell style="vsdxID=201;edgeStyle=none;dashed=1;dashPattern=12.00 6.00;startArrow=block;endArrow=none;startSize=5;endSize=5;strokeColor=#7030a0;spacingTop=0;spacingBottom=0;spacingLeft=0;spacingRight=0;verticalAlign=middle;html=1;labelBackgroundColor=#ffffff;rounded=0;entryX=0.5;entryY=0.5070422535211268;entryDx=0;entryDy=0;entryPerimeter=0;" parent="1" source="86" target="37" edge="1">
            <mxGeometry relative="1" as="geometry">
              <Array as="points" />
            </mxGeometry>
          </mxCell>
        </UserObject>
        <mxCell id="88" parent="1" vertex="1">
          <mxGeometry x="1111" y="647" as="geometry" />
        </mxCell>
        <UserObject label="&lt;div style=&quot;font-size: 1px&quot;&gt;&lt;p style=&quot;text-align:center;margin-left:0;margin-right:0;margin-top:0px;margin-bottom:0px;text-indent:0;vertical-align:middle;direction:ltr;&quot;&gt;&lt;font style=&quot;font-size:11.29px;font-family:Calibri;color:#000000;direction:ltr;letter-spacing:0px;line-height:120%;opacity:1&quot;&gt;10.1.0.2&lt;/font&gt;&lt;font style=&quot;font-size:8.47px;font-family:Calibri;color:#000000;direction:ltr;letter-spacing:0px;line-height:120%;opacity:1&quot;&gt;&lt;br/&gt;&lt;/font&gt;&lt;/p&gt;&lt;/div&gt;" tags="Соединительная_линия" id="89">
          <mxCell style="vsdxID=175;edgeStyle=none;startArrow=none;endArrow=none;startSize=5;endSize=5;strokeWidth=2;strokeColor=#ff0000;spacingTop=0;spacingBottom=0;spacingLeft=0;spacingRight=0;verticalAlign=middle;html=1;labelBackgroundColor=#FFFFFF;rounded=0;align=center;exitX=0.5;exitY=0.5070422535211268;exitDx=0;exitDy=0;exitPerimeter=0;" parent="1" source="37" target="88" edge="1">
            <mxGeometry relative="1" as="geometry">
              <mxPoint x="-13" y="16" as="offset" />
              <Array as="points" />
            </mxGeometry>
          </mxCell>
        </UserObject>
        <mxCell id="90" parent="1" vertex="1">
          <mxGeometry x="1340" y="646" as="geometry" />
        </mxCell>
        <UserObject label="&lt;div style=&quot;font-size: 1px&quot;&gt;&lt;p style=&quot;text-align:center;margin-left:0;margin-right:0;margin-top:0px;margin-bottom:0px;text-indent:0;vertical-align:middle;direction:ltr;&quot;&gt;&lt;font style=&quot;font-size:11.29px;font-family:Calibri;color:#000000;direction:ltr;letter-spacing:0px;line-height:120%;opacity:1&quot;&gt;10.1.0.3&lt;/font&gt;&lt;font style=&quot;font-size:11.29px;font-family:Calibri;color:#000000;direction:ltr;letter-spacing:0px;line-height:120%;opacity:1&quot;&gt;&lt;br/&gt;&lt;/font&gt;&lt;/p&gt;&lt;/div&gt;" tags="Соединительная_линия" id="91">
          <mxCell style="vsdxID=174;edgeStyle=none;startArrow=none;endArrow=none;startSize=5;endSize=5;strokeWidth=2;strokeColor=#ff0000;spacingTop=0;spacingBottom=0;spacingLeft=0;spacingRight=0;verticalAlign=middle;html=1;labelBackgroundColor=#FFFFFF;rounded=0;align=center;exitX=0.5;exitY=0.5070422535211268;exitDx=0;exitDy=0;exitPerimeter=0;" parent="1" source="49" target="90" edge="1">
            <mxGeometry relative="1" as="geometry">
              <mxPoint x="-13" y="15" as="offset" />
              <Array as="points" />
            </mxGeometry>
          </mxCell>
        </UserObject>
        <mxCell id="92" parent="1" vertex="1">
          <mxGeometry x="660" y="361" as="geometry" />
        </mxCell>
        <UserObject label="" tags="Соединительная_линия" id="93">
          <mxCell style="vsdxID=95;edgeStyle=none;dashed=1;dashPattern=12.00 6.00;startArrow=block;endArrow=none;startSize=5;endSize=5;strokeColor=#7030a0;spacingTop=0;spacingBottom=0;spacingLeft=0;spacingRight=0;verticalAlign=middle;html=1;labelBackgroundColor=#ffffff;rounded=0;entryX=0.5238095238095238;entryY=0.49295774647887325;entryDx=0;entryDy=0;entryPerimeter=0;" parent="1" source="92" target="9" edge="1">
            <mxGeometry relative="1" as="geometry">
              <Array as="points" />
            </mxGeometry>
          </mxCell>
        </UserObject>
        <mxCell id="94" parent="1" vertex="1">
          <mxGeometry x="665" y="648" as="geometry" />
        </mxCell>
        <UserObject label="&lt;div style=&quot;font-size: 1px&quot;&gt;&lt;p style=&quot;text-align:center;margin-left:0;margin-right:0;margin-top:0px;margin-bottom:0px;text-indent:0;vertical-align:middle;direction:ltr;&quot;&gt;&lt;font style=&quot;font-size:11.29px;font-family:Calibri;color:#000000;direction:ltr;letter-spacing:0px;line-height:120%;opacity:1&quot;&gt;10.0.0.3&lt;br/&gt;&lt;/font&gt;&lt;/p&gt;&lt;/div&gt;" tags="Соединительная_линия" id="95">
          <mxCell style="vsdxID=49;edgeStyle=none;startArrow=none;endArrow=none;startSize=5;endSize=5;strokeWidth=2;strokeColor=#00b0f0;spacingTop=0;spacingBottom=0;spacingLeft=0;spacingRight=0;verticalAlign=middle;html=1;labelBackgroundColor=#FFFFFF;rounded=0;align=center;exitX=0.5;exitY=0.49295774647887325;exitDx=0;exitDy=0;exitPerimeter=0;" parent="1" source="21" target="94" edge="1">
            <mxGeometry relative="1" as="geometry">
              <mxPoint x="-13" y="15" as="offset" />
              <Array as="points" />
            </mxGeometry>
          </mxCell>
        </UserObject>
        <mxCell id="96" parent="1" vertex="1">
          <mxGeometry x="436" y="648" as="geometry" />
        </mxCell>
        <UserObject label="&lt;div style=&quot;font-size: 1px&quot;&gt;&lt;font style=&quot;font-size:11.29px;font-family:Calibri;color:#000000;direction:ltr;letter-spacing:0px;line-height:120%;opacity:1&quot;&gt;10.0.0.2&lt;br/&gt;&lt;/font&gt;&lt;/div&gt;" tags="Соединительная_линия" id="97">
          <mxCell style="vsdxID=50;edgeStyle=none;startArrow=none;endArrow=none;startSize=5;endSize=5;strokeWidth=2;strokeColor=#00b0f0;spacingTop=0;spacingBottom=0;spacingLeft=0;spacingRight=0;verticalAlign=middle;html=1;labelBackgroundColor=#FFFFFF;rounded=0;align=center;exitX=0.5238095238095238;exitY=0.49295774647887325;exitDx=0;exitDy=0;exitPerimeter=0;" parent="1" source="9" target="96" edge="1">
            <mxGeometry relative="1" as="geometry">
              <mxPoint x="-13" y="16" as="offset" />
              <Array as="points" />
            </mxGeometry>
          </mxCell>
        </UserObject>
      </root>
    </mxGraphModel>
  </diagram>
</mxfile>
